<svg xmlns="http://www.w3.org/2000/svg" xmlns:xlink="http://www.w3.org/1999/xlink" width="312" height="705" viewBox="0 0 312 705">
    <defs>
        <path id="a" d="M0 54.94h156.586V0H0z"/>
        <path id="c" d="M.169.076h5.88V7.14H.169z"/>
        <path id="e" d="M0 13.192h76.655V0H0z"/>
    </defs>
    <g fill="none" fill-rule="evenodd">
        <rect width="312" height="704" fill="#FFF" rx="16"/>
        <g transform="translate(44 583)">
            <rect width="214" height="83" x="1.5" y="1.5" stroke="#00568A" stroke-width="3" opacity=".318" rx="10"/>
            <path fill="#C23716" d="M45.367 23.57v1.708c0 2.056-1.03 3.232-3.016 3.232-1.987 0-3.017-1.176-3.017-3.232v-6.685c0-2.058 1.03-3.233 3.017-3.233 1.986 0 3.016 1.175 3.016 3.233v1.249h-1.913v-1.378c0-.918-.404-1.267-1.048-1.267s-1.049.349-1.049 1.267v6.943c0 .917.405 1.249 1.049 1.249.644 0 1.048-.332 1.048-1.25V23.57h1.913zM48.53 24.286h1.951l-.957-6.502h-.037l-.957 6.502zm4.618 4.078h-2.042l-.35-2.333h-2.483l-.35 2.333h-1.858l2.061-12.857h2.962l2.06 12.857zM56.108 17.344v3.948h.791c.754 0 1.214-.33 1.214-1.358v-1.268c0-.918-.312-1.322-1.03-1.322h-.975zm2.207 11.02c-.11-.331-.183-.533-.183-1.58v-2.02c0-1.194-.405-1.635-1.325-1.635h-.699v5.235h-2.024V15.507h3.054c2.097 0 2.998.973 2.998 2.957v1.01c0 1.323-.423 2.167-1.324 2.59v.037c1.012.422 1.343 1.377 1.343 2.717v1.984c0 .625.018 1.084.22 1.562h-2.06zM63.502 17.344v3.948h.791c.754 0 1.214-.33 1.214-1.358v-1.268c0-.918-.312-1.322-1.03-1.322h-.975zm2.208 11.02c-.111-.331-.184-.533-.184-1.58v-2.02c0-1.194-.405-1.635-1.325-1.635h-.699v5.235h-2.024V15.507h3.054c2.097 0 2.999.973 2.999 2.957v1.01c0 1.323-.424 2.167-1.324 2.59v.037c1.01.422 1.342 1.377 1.342 2.717v1.984c0 .625.018 1.084.221 1.562h-2.06zM70.896 20.925h2.777v1.837h-2.777v3.765h3.495v1.837h-5.519V15.507h5.519v1.837h-3.495zM77.665 17.344v3.948h.79c.755 0 1.214-.33 1.214-1.358v-1.268c0-.918-.312-1.322-1.03-1.322h-.974zm2.207 11.02c-.11-.331-.184-.533-.184-1.58v-2.02c0-1.194-.405-1.635-1.325-1.635h-.698v5.235H75.64V15.507h3.053c2.098 0 2.999.973 2.999 2.957v1.01c0 1.323-.424 2.167-1.324 2.59v.037c1.011.422 1.342 1.377 1.342 2.717v1.984c0 .625.019 1.084.221 1.562h-2.06zM84.966 24.286h1.951l-.957-6.502h-.037l-.957 6.502zm4.618 4.078h-2.042l-.35-2.333H84.71l-.35 2.333h-1.858l2.061-12.857h2.962l2.06 12.857zM102.09 23.57v1.708c0 2.056-1.029 3.232-3.016 3.232s-3.017-1.176-3.017-3.232v-6.685c0-2.058 1.03-3.233 3.017-3.233 1.987 0 3.017 1.175 3.017 3.233v1.249h-1.914v-1.378c0-.918-.404-1.267-1.048-1.267-.643 0-1.048.349-1.048 1.267v6.943c0 .917.405 1.249 1.048 1.249.644 0 1.048-.332 1.048-1.25V23.57h1.914zM105.18 25.407c0 .917.405 1.266 1.049 1.266.644 0 1.048-.349 1.048-1.266v-6.943c0-.918-.404-1.267-1.048-1.267s-1.049.349-1.049 1.267v6.943zm-2.023-6.814c0-2.057 1.084-3.233 3.072-3.233 1.987 0 3.071 1.176 3.071 3.233v6.685c0 2.056-1.084 3.232-3.071 3.232-1.988 0-3.072-1.176-3.072-3.232v-6.685zM114.874 24.635h.036l1.362-9.128h2.814v12.856h-1.913v-9.22h-.037l-1.36 9.22h-1.914l-1.472-9.091h-.036v9.091h-1.767V15.507h2.815zM122.58 17.344v4.352h.957c.643 0 .993-.294.993-1.212v-1.929c0-.917-.35-1.211-.993-1.211h-.957zm3.973 1.34v1.672c0 2.056-.993 3.177-3.016 3.177h-.957v4.83h-2.024V15.508h2.98c2.024 0 3.017 1.12 3.017 3.177zM129.514 20.925h2.777v1.837h-2.777v3.765h3.495v1.837h-5.519V15.507h5.519v1.837h-3.495zM133.67 15.507h6.254v1.837h-2.115v11.02h-2.024v-11.02h-2.116zM140.807 28.363h2.023V15.507h-2.023zM143.712 15.507h6.255v1.837h-2.116v11.02h-2.023v-11.02h-2.116zM150.848 28.363h2.024V15.507h-2.024zM157.378 25.994h.037l1.527-10.487h1.858l-1.987 12.856h-3.017l-1.987-12.856h2.042zM163.208 24.286h1.951l-.957-6.502h-.037l-.957 6.502zm4.618 4.078h-2.042l-.35-2.333h-2.483l-.35 2.333h-1.858l2.061-12.857h2.962l2.06 12.857z"/>
            <g fill="#7D888E">
                <path d="M44.687 45.39v1.708c0 2.056-1.03 3.231-3.016 3.231s-3.016-1.175-3.016-3.23v-6.685c0-2.056 1.03-3.231 3.016-3.231s3.016 1.175 3.016 3.231v1.25h-1.912v-1.378c0-.919-.405-1.267-1.049-1.267-.643 0-1.048.348-1.048 1.267v6.94c0 .918.405 1.249 1.048 1.249.644 0 1.049-.33 1.049-1.248V45.39h1.912zM47.851 46.107h1.95l-.957-6.5h-.037l-.956 6.5zm4.616 4.076h-2.041l-.35-2.333h-2.482l-.35 2.333h-1.857l2.06-12.853h2.96l2.06 12.853zM57.673 46.455h.036l1.362-9.125h2.813v12.852h-1.912v-9.217h-.037l-1.362 9.217h-1.912l-1.471-9.088h-.037v9.088h-1.765V37.33H56.2zM63.356 50.183h2.023V37.33h-2.023zM68.69 40.873h-.037v9.31h-1.821V37.33h2.538l2.041 7.693h.038V37.33h1.802v12.853h-2.079zM76.635 46.107h1.95l-.957-6.5h-.036l-.957 6.5zm4.616 4.076H79.21l-.35-2.333h-2.482l-.35 2.333h-1.857l2.06-12.853h2.96l2.06 12.853zM80.902 37.33h6.253v1.836h-2.114v11.017h-2.023V39.166h-2.116zM89.271 46.107h1.95l-.957-6.5h-.037l-.956 6.5zm4.615 4.076h-2.04l-.35-2.333h-2.483l-.35 2.333h-1.856l2.06-12.853h2.96l2.06 12.853zM97.677 37.33h2.022v11.017h3.33v1.836h-5.352zM105.843 46.107h1.95l-.957-6.5h-.037l-.956 6.5zm4.616 4.076h-2.041l-.35-2.333h-2.482l-.35 2.333h-1.857l2.06-12.853h2.96l2.06 12.853zM117.283 47.814h.037l1.527-10.484h1.857l-1.986 12.853H115.7l-1.986-12.853h2.041zM123.574 37.33v9.915c0 .918.404 1.248 1.048 1.248s1.048-.33 1.048-1.248V37.33h1.912v9.786c0 2.057-1.03 3.232-3.015 3.232-1.986 0-3.017-1.175-3.017-3.232V37.33h2.024zM130.986 42.746h2.777v1.836h-2.777v3.765h3.495v1.836h-5.518V37.33h5.518v1.836h-3.495zM135.73 37.33h2.024v11.017h3.329v1.836h-5.352zM140.459 37.33h6.252v1.836h-2.114v11.017h-2.023V39.166h-2.115zM148.827 46.107h1.95l-.957-6.5h-.037l-.956 6.5zm4.615 4.076h-2.04l-.35-2.333h-2.483l-.35 2.333h-1.856l2.06-12.853h2.96l2.06 12.853zM159.164 46.107h1.95l-.957-6.5h-.037l-.956 6.5zm4.616 4.076h-2.041l-.35-2.333h-2.482l-.35 2.333H156.7l2.06-12.853h2.96l2.06 12.853zM164.719 37.33h2.023v11.017h3.329v1.836h-5.352zM176.84 43.022h2.831v4.076c0 2.056-1.03 3.231-3.015 3.231-1.988 0-3.017-1.175-3.017-3.23v-6.684c0-2.057 1.03-3.232 3.017-3.232 1.985 0 3.015 1.175 3.015 3.232v1.248h-1.912v-1.378c0-.917-.405-1.266-1.048-1.266-.644 0-1.048.349-1.048 1.266v6.941c0 .919.404 1.249 1.048 1.249.643 0 1.048-.33 1.048-1.249v-2.368h-.92v-1.836zM182.835 47.226c0 .919.405 1.267 1.049 1.267.643 0 1.048-.348 1.048-1.267v-6.94c0-.918-.405-1.267-1.048-1.267-.644 0-1.049.349-1.049 1.267v6.94zm-2.022-6.812c0-2.056 1.084-3.231 3.071-3.231 1.986 0 3.07 1.175 3.07 3.231v6.684c0 2.056-1.084 3.231-3.07 3.231-1.987 0-3.071-1.175-3.071-3.231v-6.684zM188.261 37.33h2.023v11.017h3.33v1.836h-5.353zM196.52 43.04h2.61v1.836h-2.61v5.307h-2.024V37.33h5.352v1.836h-3.329z"/>
            </g>
            <path fill="#C23716" d="M21.02 26.653h7.026v-7.015H21.02z"/>
            <path fill="#7D888E" d="M21.606 47.112h7.026v-7.014h-7.026z"/>
            <path fill="#0FBDDF" d="M45.123 67.276h.036l1.362-9.126h2.814v12.853h-1.913v-9.217h-.037l-1.36 9.217H44.11l-1.47-9.089h-.038v9.089h-1.765V58.15h2.814zM50.807 71.003h2.023V58.15h-2.023zM56.14 61.693h-.036v9.31h-1.821V58.15h2.538l2.041 7.694h.037V58.15h1.803v12.853h-2.079zM62.155 71.003h2.023V58.15h-2.023zM74.367 66.21v1.708c0 2.056-1.03 3.232-3.016 3.232-1.987 0-3.016-1.176-3.016-3.232v-6.683c0-2.057 1.03-3.232 3.016-3.232s3.016 1.175 3.016 3.232v1.248h-1.913v-1.377c0-.918-.404-1.267-1.048-1.267s-1.048.35-1.048 1.267v6.941c0 .918.404 1.249 1.048 1.249s1.048-.331 1.048-1.249v-1.836h1.913zM77.53 66.927h1.95l-.956-6.5h-.037l-.956 6.5zm4.617 4.076h-2.042l-.349-2.332h-2.482l-.35 2.332h-1.858l2.06-12.853h2.961l2.06 12.853zM85.109 59.986v3.948h.79c.755 0 1.214-.33 1.214-1.359v-1.267c0-.918-.312-1.322-1.03-1.322h-.974zm2.207 11.017c-.11-.33-.185-.532-.185-1.579v-2.02c0-1.193-.404-1.634-1.323-1.634h-.7v5.233h-2.023V58.15h3.054c2.096 0 2.997.973 2.997 2.956v1.01c0 1.322-.423 2.167-1.324 2.59v.036c1.012.423 1.342 1.377 1.342 2.718v1.982c0 .625.018 1.083.221 1.561h-2.06zM92.502 59.986v3.948h.791c.754 0 1.214-.33 1.214-1.359v-1.267c0-.918-.313-1.322-1.03-1.322h-.975zm2.207 11.017c-.11-.33-.184-.532-.184-1.579v-2.02c0-1.193-.404-1.634-1.324-1.634h-.699v5.233H90.48V58.15h3.053c2.097 0 2.998.973 2.998 2.956v1.01c0 1.322-.423 2.167-1.324 2.59v.036c1.011.423 1.342 1.377 1.342 2.718v1.982c0 .625.018 1.083.22 1.561H94.71zM99.896 63.567h2.777v1.836h-2.777v3.764h3.495v1.836h-5.519V58.15h5.519v1.836h-3.495zM106.664 59.986v3.948h.791c.754 0 1.214-.33 1.214-1.359v-1.267c0-.918-.313-1.322-1.03-1.322h-.975zm2.208 11.017c-.111-.33-.184-.532-.184-1.579v-2.02c0-1.193-.405-1.634-1.325-1.634h-.699v5.233h-2.023V58.15h3.054c2.096 0 2.997.973 2.997 2.956v1.01c0 1.322-.423 2.167-1.324 2.59v.036c1.011.423 1.343 1.377 1.343 2.718v1.982c0 .625.018 1.083.22 1.561h-2.06zM113.967 66.927h1.95l-.957-6.5h-.037l-.956 6.5zm4.615 4.076h-2.04l-.35-2.332h-2.483l-.35 2.332h-1.856l2.06-12.853h2.96l2.06 12.853zM21.606 68.156h7.611v-7.015h-7.611z"/>
        </g>
        <path fill="#004B6B" d="M38.042 674.888l9.248-16.2 9.163 16.247z"/>
        <path fill="#004B6B" d="M34.885 684.221L47.28 662.51l12.28 21.774z"/>
        <path fill="#004B6B" d="M31.43 694.543l31.533.08L47.268 666.8z"/>
        <path fill="#004B6B" d="M50.122 703.826l-5.89-.016.051-19.536 5.89.015z"/>
        <path fill="#3F93AE" d="M23.265 644.214l5.926.014-2.95-5.228z"/>
        <path fill="#3F93AE" d="M21.264 649.455l4.972-8.712 4.929 8.737z"/>
        <path fill="#3F93AE" d="M19.811 654.596l6.42-11.243 6.36 11.276z"/>
        <path fill="#3F93AE" d="M17.741 661.62l8.48-14.853 8.402 14.897z"/>
        <path fill="#3F93AE" d="M14.426 670.538l11.787-20.645 11.678 20.705z"/>
        <path fill="#3F93AE" d="M10.403 682.434l15.797-27.67 15.653 27.75z"/>
        <path fill="#3F93AE" d="M6 695.589l40.188.104-20.002-35.462z"/>
        <path fill="#3F93AE" d="M22.316 704.852l7.507.02.066-24.901-7.509-.019z"/>
        <g>
            <path fill="#00568A" stroke="#BA473A" d="M158.76 124.795l-10.053-4.328-6.96.08-62.864-18.41-22.482 111.638 7.967 86.34 26.595 91.923.806 118.907-31.9.372-16.76 5.416-6.271 9.354 46.4-.541 84.12.76-.466-40.02 41.963 16.914 25.028 7.249s10.467 2.198 20.3-.237l-5.9 41.255 36.594 4.214-25.272-78.016s-54.042-8.072-93.807-35.452l-4.306-120.607s-6.953.66-9.408-10.912l-18.238-71.718 25.25-113.523a.58.58 0 0 0-.336-.658" opacity=".237"/>
            <path fill="#C23716" stroke="#D32400" d="M159.55 123.265a68695.49 68695.49 0 0 1-8.32-3.582c-.92-.396-1.763-.851-2.762-.934-1.596-.132-3.27.038-4.871.057-.605.007-1.245.078-1.847.021-.11-.01.627.101.192-.012-.444-.117-.883-.26-1.324-.388l-6.096-1.785c-14.337-4.2-28.675-8.398-43.013-12.597l-12.255-3.59c-.882-.257-1.878.448-2.052 1.312l-6.531 32.429a1303930.012 1303930.012 0 0 1-15.199 75.469c-.427 2.123-.823 3.842-.626 5.982l4.476 48.503c.803 8.693 1.604 17.387 2.406 26.08.317 3.43.284 7.126 1.027 10.5.903 4.1 2.36 8.154 3.526 12.185l7.381 25.516 14.335 49.546c.42 1.45.862 2.894 1.259 4.35.178.65-.021-.526-.01-.047.008.41.005.821.007 1.232l.102 15.071.382 56.332c.1 14.597.198 29.195.297 43.792l.016 2.328 1.629-1.81c-9.085.107-18.171.212-27.257.318-2.7.032-4.765.033-7.315.856-4.68 1.513-9.724 2.66-14.242 4.603-1.592.685-2.484 2.728-3.421 4.126l-4.136 6.17c-.775 1.153.447 2.522 1.62 2.508 15.704-.183 31.43-.639 47.134-.534 20.25.136 40.501.366 60.751.549l22.636.204c.957.01 1.64-.924 1.629-1.809l-.407-34.934-.06-5.086-2.508 1.62 33.817 13.63c3.138 1.266 6.266 2.77 9.523 3.712l19.736 5.717c8.354 2.42 16.974 2.977 25.548.971l-2.226-2.004-5.155 36.048c-.248 1.736-.497 3.471-.744 5.207-.121.847.333 1.939 1.311 2.051l36.594 4.215c1.272.146 2.44-.882 2.004-2.226l-8.5-26.243-13.643-42.112-3.13-9.661c-.174-.54-.685-1.051-1.263-1.138-6.898-1.035-13.743-2.622-20.501-4.323-15.51-3.903-30.768-8.983-45.334-15.608-9.587-4.36-18.858-9.415-27.552-15.37l.93 1.44-1.463-40.948-2.31-64.721-.533-14.938c-.033-.91-.892-1.704-1.81-1.628-.49.04-.903-.01-1.724-.319-2.044-.77-3.459-2.65-4.382-4.549-1.072-2.204-1.528-4.673-2.13-7.041l-5.112-20.1c-4.054-15.94-8.107-31.881-12.162-47.821-.083-.328-.144-1.264-.384-1.512.077.079-.234 1.202.095.464.51-1.15.604-2.719.876-3.94l4.12-18.52 12.413-55.808 5.198-23.37c.827-3.72 2.012-7.53 2.516-11.312.136-1.022-.015-1.795-.814-2.544-1.621-1.517-3.923 1.044-2.304 2.56l.287.268-.567-1.19c.046.361-.313 1.73-.46 2.388l-1.475 6.632-5.006 22.506-12.522 56.298-4.463 20.063c-.492 2.21-1.581 4.829-1.035 7.089 3.668 15.186 7.703 30.292 11.554 45.433l5.67 22.293c1.491 5.867 2.966 13.29 9.638 15.175.742.21 1.579.359 2.353.295l-1.809-1.63.912 25.548 1.837 51.448 1.412 39.557c.043 1.192.013 2.414.13 3.602.013.147-.014.308.015.453.281 1.377 1.653 1.942 2.746 2.671a157.4 157.4 0 0 0 4.931 3.155c11.607 7.13 24.061 12.835 36.82 17.563a291.948 291.948 0 0 0 32.275 9.856c5.687 1.387 11.685 3.131 17.54 3.664.282.025.564.092.843.134l-1.263-1.138 8.501 26.243 13.642 42.113 3.13 9.66 2.004-2.225-36.595-4.214 1.312 2.052 5.155-36.048.745-5.207c.195-1.364-.907-2.312-2.226-2.004-14.66 3.43-28.5-2.45-42.35-6.463-.674-.195-1.353-.377-2.023-.585.808.251-.045-.03-.352-.155-2.02-.825-4.046-1.63-6.07-2.446l-20.719-8.352-14.443-5.82c-1.218-.491-2.525.236-2.509 1.619l.407 34.934.06 5.086 1.628-1.809-55.483-.5c-14.647-.133-29.27-.253-43.916-.082l-31.121.363 1.62 2.509c2.09-3.118 4.18-6.236 6.272-9.354l-.987.844 9.48-3.064a19585.1 19585.1 0 0 0 5.913-1.911c.408-.132.816-.294 1.232-.398.25-.062-.69.03.041.037 7.636.079 15.29-.178 22.926-.266 2.871-.034 5.742-.068 8.614-.1.961-.012 1.635-.91 1.63-1.81l-.219-32.14-.395-58.313-.145-21.407c-.016-2.462.345-5.26-.185-7.682-.936-4.277-2.461-8.508-3.678-12.711l-7.515-25.978-14.136-48.857c-.39-1.351-.818-2.697-1.174-4.058-.098-.379.077.719.016-.005-.054-.64-.118-1.279-.177-1.918l-1.797-19.466-5.1-55.268-.686-7.439c-.052-.565-.1-1.13-.156-1.695-.062-.617-.113.585-.02.031.656-3.889 1.562-7.753 2.34-11.618l10.818-53.717a1229779.81 1229779.81 0 0 1 9.286-46.106l-2.053 1.31c10.403 3.048 20.806 6.095 31.21 9.14 7.22 2.116 14.443 4.23 21.664 6.345 3.24.95 6.648 2.38 9.988 2.926 1.48.242 3.128.007 4.619-.01.704-.009 1.898.222 2.566-.03.457-.173-.541-.14-.553-.154.104.13.505.21.655.282 3.032 1.465 6.214 2.675 9.308 4.008 2.029.873 3.618-2.183 1.58-3.06"/>
            <path fill="#3A3A3A" d="M142.854 290.209l-75.306 8.998 24.794 86.723 24.36-.283-3.045 136.935 49.894.578-5.112-195.2c-.68-3.12-2.87-3.308-4.173-4.24-2.638-1.887-7.004-8.837-11.412-33.511" opacity=".467"/>
            <path fill="#4A4A4A" d="M89.678 93.808l-1.163 1.584 1.213.374-.05-1.958zm.078 3.789l-.022-.951L88 96.11l-.56.772-.994-.306 3.277-4.33.746.23.279 5.425-.993-.305zM92.883 98.56l-.712-.22-.107-5.372.986.304v3.48l1.959-2.876.993.306zM94.97 99.227a.624.624 0 0 1 .368-1.193.63.63 0 0 1 .418.782.63.63 0 0 1-.786.41M101.612 101.25l.875-2.842-1.5 1.562-.645-.198-.368-2.138-.876 2.842-.952-.293 1.503-4.877.938.29.461 3.029 2.08-2.247.938.29-1.502 4.876zM107.119 98.778a.83.83 0 0 0-.53-.449.843.843 0 0 0-.697.071c-.248.148-.365.36-.655 1.298-.289.938-.311 1.179-.189 1.441.088.2.276.37.536.45.26.081.505.044.69-.072.248-.148.373-.357.662-1.295.29-.939.303-1.182.183-1.444m-.317 3.532c-.448.237-.925.3-1.48.13-.554-.172-.92-.494-1.157-.943-.341-.645-.14-1.25.12-2.093.26-.842.434-1.455 1.079-1.796.448-.237.932-.299 1.487-.128.554.171.913.492 1.15.94.341.645.146 1.252-.114 2.095-.259.842-.44 1.454-1.085 1.795M110.99 104.14l-1.009-3.587-.921 2.993-.953-.294 1.503-4.876.849.262 1.012 3.58.92-2.985.951.293-1.503 4.876zM116.078 101.3l-1.24 4.026-.952-.293 1.24-4.026-1.274-.393.263-.85 3.499 1.078-.262.85zM116.884 105.957l1.502-4.876 3.213.99-.262.849-2.26-.696-.353 1.144 1.925.593-.262.849-1.924-.594-.365 1.185 2.26.696-.262.85zM123.722 104.3l-1.163 1.584 1.212.374-.05-1.958zm.078 3.789l-.022-.952-1.733-.534-.56.772-.993-.306 3.276-4.33.747.23.278 5.425-.993-.305zM128.478 108.96c-.46.256-.98.313-1.536.142a1.88 1.88 0 0 1-1.15-.94c-.342-.645-.139-1.25.12-2.092.26-.843.434-1.457 1.079-1.798a1.857 1.857 0 0 1 1.48-.128c.678.208.997.51 1.3 1.083l-.842.445c-.19-.358-.344-.563-.72-.68a.825.825 0 0 0-.69.073c-.248.149-.366.36-.655 1.298-.29.938-.313 1.186-.191 1.449.088.2.27.36.531.441a.875.875 0 0 0 .735-.073c.21-.123.343-.36.417-.6l.053-.171-.863-.266.245-.794 1.815.56-.215.697c-.218.707-.46 1.104-.913 1.355M131.392 110.474c-1-.308-1.585-1.232-1.267-2.266l.988-3.205.953.294-.978 3.17c-.172.562.052.999.566 1.158.514.158.953-.075 1.126-.636l.977-3.171.945.291-.988 3.205c-.318 1.035-1.321 1.468-2.322 1.16M137.79 108.32c-.103-.248-.29-.419-.619-.52l-.719-.222-.98 3.178.72.221c.328.102.58.067.804-.08.247-.165.382-.507.61-1.246.227-.74.295-1.057.185-1.33m-.34 3.465c-.422.222-.925.225-1.432.068l-1.76-.542 1.503-4.876 1.76.542c.507.156.921.442 1.144.863.379.716.118 1.37-.108 2.104-.226.732-.391 1.461-1.108 1.84M142.19 109.587a.827.827 0 0 0-.529-.448.843.843 0 0 0-.696.07c-.248.149-.366.36-.655 1.298-.29.938-.311 1.179-.19 1.441.089.2.277.37.536.451.26.08.505.043.69-.073.249-.148.373-.358.662-1.296.29-.938.304-1.181.183-1.443m-.316 3.532c-.449.237-.925.3-1.48.13-.555-.172-.92-.494-1.157-.942-.341-.646-.14-1.251.12-2.093.26-.843.433-1.457 1.079-1.798.448-.236.932-.298 1.486-.127.555.171.914.492 1.15.94.342.645.147 1.252-.113 2.095-.26.842-.44 1.454-1.085 1.795M147.57 143.047l-1.673-1.032-.275 1.238 1.947-.206zm-3.771.38l.947-.097.393-1.77-.814-.496.225-1.015 4.579 2.919-.17.762-5.385.713.225-1.015zM143.089 146.622l.162-.727 5.346-.538-.223 1.008-3.469.28 3.024 1.721-.225 1.014zM142.593 148.757a.624.624 0 0 1 1.218.27.63.63 0 0 1-.746.48.63.63 0 0 1-.472-.75M145.035 154.452l-1.672-1.032-.275 1.238 1.947-.206zm-3.77.38l.947-.098.394-1.77-.815-.496.225-1.015 4.579 2.919-.17.763-5.385.712.225-1.014zM140.903 156.46l4.982 1.107-.216.972-4.114-.913-.502 2.26-.867-.193zM143.697 163.32l.21-.952-1.147-.255-.21.952c-.093.413.087.695.43.772.343.075.625-.104.717-.517m-2.036-.387l.225-1.014-1.224-.272-.225 1.015c-.098.44.135.712.47.787.337.074.656-.075.754-.516m-2.114-.367l.463-2.084 4.981 1.106-.444 2.002c-.216.972-.887 1.418-1.742 1.228a1.18 1.18 0 0 1-.89-.844c-.208.27-.608.584-1.273.436-.93-.206-1.292-.955-1.095-1.844M138.988 165.083l4.981 1.107-.728 3.282-.868-.193.512-2.31-1.168-.259-.437 1.966-.866-.193.436-1.966-1.21-.268-.514 2.308-.867-.193zM141.742 172.117l.204-.917-1.315-.292-.204.917c-.095.427.115.767.5.853.385.085.72-.134.815-.56zm-4.281-.158l2.202-.53.156-.701-1.987-.441.216-.973 4.982 1.107-.434 1.952c-.226 1.015-1.052 1.462-1.884 1.277-.7-.155-1.039-.678-1.107-1.2l-2.395.636.25-1.127zM140.722 176.705l-4.113-.913.216-.973 4.114.914.289-1.301.867.192-.794 3.575-.867-.193zM139.556 180.9a.83.83 0 0 0 .405-.563.845.845 0 0 0-.127-.69c-.168-.234-.388-.335-1.346-.548-.959-.213-1.2-.215-1.452-.073a.844.844 0 0 0-.406.571.827.827 0 0 0 .128.682c.168.235.386.342 1.344.555.96.213 1.202.209 1.454.066m-3.547-.031c-.271-.428-.372-.899-.246-1.465.125-.567.418-.957.845-1.23.616-.39 1.236-.238 2.095-.047.861.191 1.487.315 1.879.93.272.428.372.906.246 1.472-.126.567-.417.95-.845 1.223-.615.391-1.236.246-2.096.055-.86-.191-1.485-.323-1.878-.938M138.08 187.148c.24-.123.395-.324.47-.66l.162-.734-3.245-.721-.164.734c-.074.336-.02.583.146.796.183.232.534.34 1.29.508.756.168 1.077.21 1.34.077m-3.48-.062c-.256-.402-.298-.903-.183-1.42l.399-1.798 4.98 1.106-.398 1.799c-.115.517-.366.953-.768 1.208-.684.436-1.357.228-2.106.062-.749-.166-1.489-.273-1.923-.957M133.79 188.477l4.982 1.106-.729 3.281-.867-.193.513-2.308-1.168-.26-.437 1.966-.867-.193.436-1.966-1.21-.268-.513 2.308-.868-.192zM132.851 192.707l4.982 1.107-.217.972-4.113-.914-.502 2.26-.868-.192zM131.185 200.007c.122-.546.417-.95.844-1.223.616-.392 1.236-.24 2.096-.048.86.191 1.486.316 1.878.931.273.428.37.92.248 1.465-.142.637-.453.979-.882 1.258l-.5-.787c.264-.169.436-.314.514-.664.06-.265.008-.497-.122-.673-.168-.235-.393-.344-1.352-.557-.959-.213-1.208-.21-1.46-.068a.807.807 0 0 0-.396.558c-.078.35.016.554.185.82l-.787.5c-.27-.434-.407-.875-.266-1.512M133.882 204.656l-1.672-1.034-.275 1.239 1.947-.205zm-3.77.38l.947-.098.393-1.77-.815-.497.226-1.014 4.578 2.918-.169.763-5.386.713.227-1.015zM128.964 210.205l2.903.644-1.677-1.37.146-.658 2.101-.54-2.903-.645.216-.972 4.982 1.107-.214.959-2.982.702 2.406 1.893-.213.959-4.982-1.107zM132.186 215.132l.202-.91-1.364-.303-.203.91c-.098.441.113.781.52.872.405.09.747-.128.845-.569m-2.25-.448l.214-.959-1.876-.417.217-.972 4.98 1.107-.429 1.93c-.228 1.03-1.07 1.488-1.918 1.3-.846-.189-1.416-.96-1.188-1.99M130.895 219.887a.832.832 0 0 0 .404-.564.846.846 0 0 0-.126-.689c-.168-.234-.388-.335-1.346-.548-.959-.213-1.2-.215-1.453-.073a.844.844 0 0 0-.406.57.828.828 0 0 0 .128.682c.169.235.386.343 1.345.556.959.213 1.202.208 1.454.066m-3.547-.032c-.271-.428-.372-.898-.247-1.464.126-.567.418-.957.845-1.23.617-.391 1.236-.239 2.096-.048.86.192 1.487.316 1.878.932.273.427.372.905.246 1.471-.125.566-.416.95-.844 1.222-.615.392-1.237.247-2.097.055-.86-.19-1.485-.322-1.877-.938M49.26 211.478l-1.908-.464.121 1.263 1.788-.799zm-3.467 1.529l.87-.386-.173-1.805-.928-.22-.1-1.035 5.257 1.36.075.777-4.901 2.343-.1-1.034zM46.107 216.264l-.072-.742 4.919-2.165.098 1.027-3.212 1.339 3.408.702.1 1.035zM46.295 218.447a.624.624 0 0 1 1.241-.119.63.63 0 0 1-.56.687.63.63 0 0 1-.681-.568M47.475 224.812c-.413-.328-.665-.785-.72-1.363a1.875 1.875 0 0 1 .424-1.424c.464-.563 1.1-.61 1.977-.694.878-.084 1.512-.16 2.075.305.39.322.633.746.688 1.316.068.706-.087 1.117-.5 1.617l-.735-.606c.258-.313.389-.534.35-.926a.826.826 0 0 0-.333-.61c-.231-.171-.471-.199-1.449-.105-.977.095-1.215.168-1.41.38-.15.16-.23.39-.203.661.028.3.156.504.35.65.194.148.464.18.714.155l.177-.017-.086-.898.828-.08.181 1.89-.727.07c-.734.07-1.196 0-1.601-.321M47.07 226.29l5.079-.49.322 3.347-.884.085-.227-2.355-1.191.115.192 2.004-.884.085-.192-2.004-1.235.118.226 2.355-.884.085zM47.774 233.606l2.924-2.311-3.118.3-.095-.992 5.08-.488.084.884-2.917 2.311 3.11-.299.095.992-5.078.488zM47.972 235.673l5.079-.488.322 3.346-.884.085-.227-2.354-1.191.114.192 2.005-.884.085-.192-2.005-1.235.119.226 2.354-.884.085zM52.767 241.51l-.09-.934-1.34.128.089.936c.042.434.347.692.74.655.392-.038.642-.35.6-.784zm-4.12 1.174l1.93-1.187-.069-.712-2.026.194-.095-.992 5.08-.488.19 1.99c.1 1.035-.547 1.716-1.396 1.798a1.374 1.374 0 0 1-1.423-.8l-2.082 1.345-.11-1.148zM52.58 246.012l-1.909-.465.122 1.263 1.787-.798zm-3.467 1.528l.87-.386-.173-1.804-.93-.221-.098-1.034 5.257 1.359.074.778-4.9 2.343-.1-1.035zM49.272 249.2l5.08-.488.095.992-4.195.403.221 2.305-.884.085zM54.205 256.47l-.09-.927-1.39.134.089.928c.043.449.348.707.762.668.414-.04.672-.353.629-.802m-2.279.269l-.093-.977-1.912.184-.095-.992 5.08-.488.188 1.969c.1 1.048-.56 1.745-1.422 1.829-.864.082-1.645-.476-1.746-1.525M50.256 259.434l5.079-.489.322 3.346-.884.085-.227-2.354-1.192.114.193 2.005-.884.085-.193-2.005-1.234.119.226 2.354-.884.085zM50.641 263.44l.799-.076 3.604 1.842-.2-2.076.885-.085.313 3.246-.786.076-3.619-1.848.21 2.175-.885.085zM51.046 267.656l5.08-.489.321 3.346-.884.085-.227-2.354-1.191.114.192 2.005-.884.085-.192-2.005-1.235.119.226 2.354-.884.085zM55.842 273.507l-4.195.403-.095-.992 4.195-.403-.128-1.327.885-.085.35 3.645-.884.086zM186.434 462.16l-1.298 1.475 1.175.479.123-1.954zm-.256 3.78l.062-.95-1.679-.684-.626.72-.962-.392 3.644-4.025.723.294-.2 5.43-.962-.393zM189.208 467.175l-.69-.281.366-5.361.956.39-.306 3.465 2.204-2.693.962.393zM191.23 468.022a.625.625 0 0 1 .47-1.155c.319.13.478.496.348.815a.63.63 0 0 1-.819.34M194.309 469.253l1.925-4.725 3.114 1.268-.336.823-2.19-.892-.452 1.109 1.865.76-.335.822-1.865-.76-.468 1.149 2.19.892-.335.823zM198.323 470.889l1.925-4.726.923.376-1.59 3.903 2.143.873-.335.823zM207.058 469.898l-.87-.354-.507 1.248.87.354c.404.164.775.014.923-.351.15-.365-.01-.732-.416-.897zm-.873 4.194l-.155-2.26-.663-.27-.768 1.884-.922-.376 1.925-4.725 1.852.754c.962.393 1.265 1.283.943 2.072-.27.664-.843.91-1.368.89l.225 2.467-1.069-.436zM211.696 472.035a.827.827 0 0 0-.489-.492.845.845 0 0 0-.7.008c-.26.126-.395.326-.766 1.236-.37.909-.413 1.147-.315 1.419.07.207.242.392.494.496a.83.83 0 0 0 .694-.012c.26-.125.403-.324.773-1.233s.407-1.15.309-1.422m-.626 3.49c-.466.198-.947.219-1.485 0-.537-.22-.873-.573-1.07-1.04-.283-.673-.029-1.258.304-2.074.332-.817.56-1.412 1.232-1.696.467-.197.955-.215 1.492.004.538.22.867.57 1.063 1.037.284.673.036 1.26-.297 2.077-.332.816-.566 1.41-1.239 1.693M213.572 477.15c-.717-.293-1.199-.667-1.471-1.328l.84-.354c.177.42.542.685.98.864.544.222.92.134 1.074-.244.068-.166.078-.324.017-.458-.059-.123-.146-.213-.351-.336l-.539-.312c-.38-.225-.628-.472-.756-.765-.134-.317-.122-.668.04-1.067.344-.843 1.209-1.18 2.23-.763.65.265 1.057.616 1.302 1.173l-.819.34c-.182-.408-.525-.593-.836-.721-.492-.2-.842-.025-.974.3a.493.493 0 0 0 .002.396c.058.123.18.26.362.364l.525.307c.407.236.63.466.754.733.155.342.126.732-.044 1.15-.373.916-1.347 1.123-2.336.72M219.152 475.492l-1.298 1.475 1.175.478.123-1.953zm-.256 3.78l.062-.949-1.679-.684-.626.719-.962-.392 3.644-4.025.724.295-.2 5.429-.963-.392zM223.823 476.73l-.87-.355-.508 1.248.87.354c.404.165.775.014.924-.351.149-.364-.011-.73-.416-.896zm-.874 4.194l-.154-2.26-.664-.27-.768 1.883-.922-.375 1.925-4.725 1.852.754c.963.392 1.266 1.282.944 2.072-.27.663-.844.91-1.369.889l.225 2.468-1.069-.436zM224.78 481.67l1.925-4.726.923.377-1.926 4.725zM230.483 479.691a.825.825 0 0 0-.488-.492.84.84 0 0 0-.7.008c-.26.126-.395.326-.766 1.236-.37.909-.414 1.147-.315 1.419.07.207.242.392.494.496a.828.828 0 0 0 .693-.012c.26-.126.403-.324.774-1.233.37-.91.407-1.15.308-1.422m-.625 3.49c-.467.198-.947.219-1.485 0-.538-.22-.873-.573-1.07-1.04-.283-.673-.029-1.258.303-2.075.333-.816.56-1.411 1.233-1.695.467-.197.954-.214 1.492.004.538.22.867.57 1.063 1.037.283.673.036 1.26-.297 2.077-.332.816-.566 1.41-1.239 1.693"/>
            <g fill="#4A4A4A">
                <path d="M263.986 457.479l-1.964-.063.377 1.211 1.587-1.148zm-3.08 2.206l.771-.556-.539-1.73-.953-.026-.31-.993 5.424.255.232.746-4.316 3.296-.31-.992zM261.879 462.81l-.222-.712 4.37-3.126.307.985-2.869 1.968 3.48-.01.308.992zM262.51 464.908a.625.625 0 0 1 1.19-.37.63.63 0 0 1-.407.786.63.63 0 0 1-.783-.416M263.696 468.785c-.164-.526-.14-.932.11-1.407l.817.435c-.107.206-.177.393-.079.708.145.465.512.681 1.073.507l3.23-1.007.297.951-3.27 1.02c-1.075.335-1.897-.303-2.178-1.207M269.11 472.622a.826.826 0 0 0 .07-.69.843.843 0 0 0-.452-.535c-.263-.121-.503-.099-1.441.194-.937.292-1.149.41-1.296.66a.841.841 0 0 0-.068.695c.081.26.25.44.45.529.262.12.506.105 1.443-.187s1.146-.418 1.294-.666m-3.093 1.736c-.448-.235-.77-.593-.942-1.147-.173-.554-.114-1.038.121-1.487.34-.647.953-.823 1.795-1.085.841-.262 1.446-.465 2.092-.126.45.235.773.6.945 1.154.173.555.112 1.032-.124 1.48-.34.646-.95.83-1.792 1.092-.841.262-1.448.458-2.095.12M270.577 476.561l-.279-.896-1.286.4.28.897c.13.417.481.608.858.49.376-.117.557-.473.427-.89zm-3.792 1.993l1.647-1.557-.213-.684-1.944.606-.296-.951 4.871-1.519.595 1.91c.309.992-.185 1.79-1 2.045a1.374 1.374 0 0 1-1.556-.49l-1.761 1.741-.343-1.101zM268.824 483.269c-.472-.236-.813-.633-.985-1.187a1.883 1.883 0 0 1 .124-1.48c.34-.647.953-.823 1.794-1.085.842-.262 1.446-.466 2.092-.126.45.235.773.6.944 1.147.21.677.143 1.111-.158 1.686l-.844-.443c.188-.359.27-.602.153-.979a.829.829 0 0 0-.45-.528c-.262-.12-.503-.098-1.441.194-.937.292-1.155.413-1.302.662-.116.186-.145.427-.064.688.09.287.256.46.476.564.22.104.49.08.73.005l.171-.054-.268-.862.793-.247.565 1.814-.697.217c-.705.22-1.17.244-1.633.014M268.73 484.797l4.871-1.518 1 3.209-.848.264-.703-2.257-1.144.356.6 1.922-.848.264-.6-1.922-1.183.37.703 2.256-.848.265zM273.165 491.828l-.309-.993-1.197.374.309.992c.134.431.472.55.8.448.329-.102.531-.39.397-.821m1.958-.678l-.29-.931-1.122.35.29.93c.126.404.422.56.757.455.336-.105.491-.4.365-.804m-3.974 1.411l-.635-2.04 4.871-1.517.61 1.957c.296.951-.065 1.671-.9 1.931-.54.169-1-.078-1.192-.288-.046.336-.236.81-.886 1.011-.91.285-1.597-.185-1.868-1.054M275.86 495.587l-1.964-.064.377 1.212 1.587-1.148zm-3.08 2.206l.772-.556-.54-1.731-.953-.025-.31-.993 5.425.254.232.746-4.317 3.297-.31-.992zM273.653 500.74c-.23-.74-.248-1.35.089-1.98l.807.423c-.212.405-.184.855-.044 1.306.175.56.48.796.871.674.17-.053.3-.146.364-.278.058-.124.072-.248.036-.485l-.101-.613c-.068-.437-.034-.785.11-1.07.16-.306.438-.52.85-.648.868-.271 1.677.182 2.006 1.236.208.67.196 1.208-.078 1.75l-.783-.415c.199-.4.124-.782.024-1.104-.157-.506-.515-.665-.85-.56a.492.492 0 0 0-.305.252.883.883 0 0 0-.05.51l.096.602c.078.463.042.782-.086 1.047-.165.337-.485.564-.916.698-.945.294-1.723-.326-2.04-1.345M278.48 503.993l-1.965-.064.378 1.211 1.587-1.147zm-3.081 2.206l.772-.556-.54-1.731-.953-.026-.309-.992 5.424.254.232.746-4.317 3.296-.31-.991zM280.36 509.012c.146-.225.18-.477.078-.806l-.224-.718-3.174.99.224.718c.102.329.273.516.522.618.275.11.633.028 1.371-.202.74-.23 1.039-.354 1.202-.6m-3.05 1.679c-.422-.221-.708-.635-.866-1.141l-.548-1.759 4.871-1.518.548 1.758c.158.506.157 1.01-.064 1.432-.377.718-1.064.872-1.796 1.1-.733.228-1.427.505-2.145.128M281.898 512.892l-.28-.896-1.285.4.28.897c.13.417.48.608.858.49.376-.117.557-.473.427-.89zm-3.793 1.993l1.648-1.557-.214-.684-1.943.606-.296-.951 4.87-1.519.596 1.91c.309.992-.185 1.791-1 2.045a1.375 1.375 0 0 1-1.556-.49l-1.761 1.741-.344-1.101zM278.693 516.771l4.872-1.518 1 3.209-.85.265-.702-2.258-1.143.356.599 1.922-.848.265-.6-1.923-1.183.37.704 2.257-.848.265z"/>
            </g>
            <path fill="#4A4A4A" d="M230.438 556.174l-.851 1.772 1.26.143-.409-1.915zm.774 3.71l-.197-.932-1.801-.205-.409.862-1.032-.118 2.423-4.86.776.09 1.273 5.28-1.033-.117zM234.463 560.254l-.74-.084-1.095-5.26 1.025.116.642 3.42 1.395-3.188 1.033.119zM236.638 560.524a.624.624 0 0 1 .141-1.24.63.63 0 0 1 .556.692.63.63 0 0 1-.697.548M241.626 561.115a1.878 1.878 0 0 1-1.305-.712c-.454-.571-.367-1.203-.267-2.079.1-.876.158-1.511.73-1.965a1.88 1.88 0 0 1 1.43-.4c.648.075 1.02.347 1.343.746l-.73.579c-.195-.246-.358-.401-.714-.442a.813.813 0 0 0-.657.192c-.217.192-.301.428-.412 1.403-.111.976-.082 1.224.085 1.46.124.18.327.304.597.335.357.04.55-.075.796-.27l.58.73c-.404.314-.829.497-1.476.423M245.965 557.946l-.852 1.771 1.26.143-.408-1.914zm.774 3.71l-.197-.932-1.801-.206-.408.862-1.033-.117 2.423-4.86.776.089 1.273 5.28-1.033-.117zM252 562.255l.337-2.955-1.188 1.812-.67-.076-.755-2.034-.338 2.955-.99-.113.58-5.07.975.112 1.01 2.892 1.631-2.59.976.11-.578 5.07zM254.17 562.503l.577-5.07.99.113-.578 5.07zM259.337 563.092l-1.652-3.34-.356 3.111-.99-.113.58-5.07.882.101 1.654 3.334.354-3.105.99.113-.579 5.07zM264.188 559.635a.827.827 0 0 0-.603-.343.844.844 0 0 0-.672.198c-.217.192-.293.42-.405 1.396-.11.975-.088 1.217.08 1.452.124.18.34.313.61.344.27.03.504-.05.665-.199.216-.19.3-.42.411-1.395.112-.976.082-1.217-.086-1.453m.34 3.53c-.397.316-.854.466-1.43.4-.577-.066-.996-.316-1.311-.713-.455-.57-.368-1.203-.268-2.079.1-.876.158-1.511.729-1.965.397-.316.861-.465 1.438-.398.576.065.988.314 1.303.71.455.571.375 1.204.275 2.08-.1.876-.165 1.51-.736 1.965M270.036 560.071l-.933-.106-.153 1.339.933.105c.434.05.75-.194.796-.586.044-.391-.209-.702-.643-.752zm.29 4.275l-.758-2.135-.712-.081-.23 2.023-.99-.114.578-5.07 1.987.227c1.032.118 1.564.893 1.467 1.74a1.374 1.374 0 0 1-1.078 1.226l.883 2.315-1.146-.13zM272.29 564.57l.579-5.07 3.34.381-.101.883-2.35-.268-.136 1.19 2.001.228-.1.883-2.002-.229-.14 1.232 2.35.268-.101.883zM278.706 561.681l-.851 1.771 1.26.144-.41-1.915zm.774 3.71l-.196-.932-1.802-.205-.409.862-1.032-.117 2.423-4.86.776.088 1.273 5.281-1.033-.117z"/>
            <path fill="#000" fill-opacity=".85" d="M281.138 565.58l.578-5.07.99.112-.478 4.187 2.3.263-.1.883z"/>
            <path fill="#4A4A4A" d="M82.54 532.18l-.656 1.853 1.268.007-.613-1.86zm1.168 3.604l-.296-.904-1.813-.01-.313.9-1.04-.005 1.885-5.092.782.004 1.834 5.113-1.039-.006zM86.98 535.803l-.745-.004-1.656-5.112 1.033.005 1.006 3.332 1.043-3.32 1.04.006zM89.172 535.837a.624.624 0 0 1 .007-1.247.63.63 0 0 1 .627.627.63.63 0 0 1-.634.62M94.194 535.886a1.875 1.875 0 0 1-1.373-.567c-.513-.518-.495-1.156-.49-2.038.005-.88-.006-1.519.513-2.032a1.88 1.88 0 0 1 1.379-.551c.652.003 1.053.235 1.416.595l-.664.656c-.22-.223-.4-.36-.757-.363-.272-.001-.488.098-.632.263-.195.213-.254.456-.259 1.438-.005.982.05 1.225.243 1.442a.805.805 0 0 0 .628.269c.36.002.54-.133.763-.354l.656.663c-.369.355-.77.583-1.423.58M98.168 532.268l-.656 1.853 1.268.006-.612-1.859zm1.168 3.604l-.295-.904-1.814-.01-.312.9-1.04-.005 1.885-5.092.78.004 1.835 5.114-1.039-.007zM104.63 535.903l.017-2.975-.986 1.93-.673-.005-.971-1.94-.017 2.974-.996-.006.029-5.102.982.005 1.316 2.767 1.342-2.751.982.005-.028 5.103zM106.813 535.914l.03-5.102.995.005-.028 5.103zM112.017 535.944l-2.005-3.144-.017 3.132-.996-.005.028-5.103.89.005 2.003 3.136.018-3.124.995.005-.028 5.103zM116.465 531.983a.826.826 0 0 0-.636-.275.844.844 0 0 0-.647.268c-.194.214-.246.45-.251 1.433-.006.982.043 1.218.235 1.434a.848.848 0 0 0 .644.277.829.829 0 0 0 .64-.27c.194-.213.252-.45.258-1.431.005-.983-.05-1.22-.243-1.436m.719 3.474c-.36.357-.799.555-1.379.55-.58-.003-1.024-.205-1.38-.566-.513-.518-.495-1.157-.49-2.038.005-.881-.006-1.52.512-2.033.361-.356.806-.555 1.387-.55.58.003 1.016.206 1.373.566.513.52.502 1.157.497 2.039-.004.88-.001 1.519-.52 2.032M122.326 531.787l-.938-.005-.008 1.348.939.005c.437.002.726-.275.728-.67.002-.394-.284-.675-.72-.678zm.75 4.22l-.984-2.042-.717-.004-.011 2.035-.996-.005.028-5.103 2 .011c1.04.006 1.652.72 1.647 1.572-.004.717-.443 1.158-.94 1.334l1.128 2.207-1.154-.006zM125.053 536.017l.028-5.103 3.362.019-.006.889-2.365-.013-.006 1.196 2.014.012-.005.889-2.014-.012-.007 1.24 2.365.013-.005.888zM131.12 532.453l-.656 1.853 1.27.007-.613-1.86zm1.169 3.605l-.296-.905-1.813-.01-.313.901-1.039-.006 1.885-5.092.78.004 1.836 5.114-1.04-.006zM133.957 536.067l.03-5.103.995.006-.024 4.214 2.315.014-.005.888zM83.622 423.843l-1.862-.628.011 1.27 1.85-.642zm-3.587 1.222l.9-.309-.017-1.813-.905-.3-.01-1.04 5.12 1.811.007.782-5.086 1.909-.01-1.04zM80.065 428.338l-.007-.746 5.087-1.73.01 1.032-3.317 1.055 3.335.995.01 1.039zM80.062 430.529a.624.624 0 0 1 1.248-.011.63.63 0 0 1-.618.636.63.63 0 0 1-.63-.625M80.087 435.551a1.88 1.88 0 0 1 .546-1.38c.512-.521 1.15-.513 2.03-.521.883-.008 1.52-.028 2.041.484.361.354.566.812.572 1.37.005.653-.22 1.056-.575 1.425l-.666-.654c.22-.224.355-.404.352-.762-.003-.273-.105-.487-.271-.629-.217-.191-.461-.247-1.443-.238-.982.01-1.225.068-1.438.264-.164.145-.262.36-.26.633.003.359.142.537.365.757l-.653.665c-.362-.362-.594-.761-.6-1.414M80.15 437.871l5.103-.046.03 3.361-.889.008-.02-2.365-1.198.01.018 2.015-.888.008-.018-2.014-1.24.011.022 2.365-.89.008zM84.42 444.102l-.007-.938-1.348.011.01.94c.003.436.284.72.679.717.394-.004.67-.293.667-.73zm-4.206.812l2.026-1.014-.006-.717-2.035.019-.01-.997 5.103-.046.018 1.999c.01 1.04-.695 1.663-1.547 1.67-.717.007-1.165-.427-1.348-.92l-2.19 1.16-.011-1.154zM80.249 448.746l-.007-.745 5.088-1.73.009 1.032-3.316 1.055 3.334.995.01 1.038zM83.88 452.48l-1.862-.628.011 1.27 1.851-.642zm-3.587 1.223l.9-.31-.016-1.812-.906-.301-.009-1.039 5.12 1.81.007.782-5.087 1.909-.009-1.04zM80.336 458.387l3.113-2.048-3.132.028-.008-.996 5.102-.046.008.888-3.106 2.049 3.124-.028.01.996-5.103.046zM84.586 462.375l-4.214.038-.01-.996 4.214-.038-.011-1.332.89-.008.032 3.66-.89.009zM80.391 464.554l5.103-.046.03 3.362-.889.008-.021-2.366-1.197.011.018 2.014-.888.008-.018-2.014-1.24.011.022 2.365-.89.008zM80.4 470.293c-.007-.774.153-1.363.657-1.869l.651.64c-.32.325-.423.763-.42 1.235.006.588.231.901.64.898.179-.002.33-.054.429-.162.091-.1.14-.215.175-.453l.08-.617c.06-.438.194-.762.414-.993.242-.246.57-.37 1-.374.91-.009 1.554.66 1.564 1.763.006.702-.161 1.213-.58 1.653l-.63-.624c.306-.325.345-.713.343-1.05-.006-.53-.301-.785-.652-.783a.497.497 0 0 0-.365.154.884.884 0 0 0-.197.475l-.08.603c-.06.466-.187.762-.385.978-.256.275-.627.4-1.079.404-.99.01-1.555-.81-1.565-1.878M63.7 515.71l-.616 1.866 1.268-.02-.651-1.846zm1.245 3.578l-.315-.897-1.813.028-.294.907-1.04.016 1.778-5.13.782-.013 1.941 5.074-1.039.015zM67.072 519.277a.623.623 0 0 1-.02-1.246.63.63 0 0 1 .641.614.63.63 0 0 1-.621.632M72.187 519.22c-1.046.016-1.888-.68-1.905-1.762l-.051-3.354.995-.015.052 3.318c.008.588.358.933.895.925.538-.008.884-.365.875-.952l-.05-3.318.988-.016.051 3.355c.017 1.082-.804 1.804-1.85 1.82M75.173 519.132l-.078-5.103.995-.014.065 4.213 2.314-.036.014.888zM79.291 519.068l-.078-5.102.996-.015.065 4.213 2.314-.035.014.888zM85.513 514.987a.832.832 0 0 0-.642-.262.845.845 0 0 0-.641.282c-.19.219-.237.456-.222 1.438.016.981.069 1.217.266 1.429a.845.845 0 0 0 .65.263.83.83 0 0 0 .633-.283c.19-.218.243-.455.228-1.437-.015-.982-.076-1.217-.272-1.43m.791 3.458c-.352.364-.787.57-1.367.58-.581.009-1.028-.185-1.392-.537-.524-.509-.519-1.147-.532-2.029-.014-.881-.039-1.518.47-2.042.352-.364.794-.572 1.374-.58.58-.009 1.021.185 1.385.538.523.508.526 1.146.54 2.027.013.881.03 1.519-.478 2.043M89.423 515.315l-.617 1.865 1.268-.019-.651-1.846zm1.244 3.579l-.316-.898-1.812.027-.294.908-1.04.016 1.778-5.131.781-.012 1.942 5.074-1.04.016z"/>
            <g fill="#4A4A4A">
                <path d="M36.469 512.8l-.796-2.864-.421 2.125-.65.18-1.464-1.602.796 2.865-.96.266-1.365-4.916.946-.263 2.023 2.303.54-3.014.945-.263 1.365 4.917zM39.02 512.115a.623.623 0 0 1-.334-1.201.63.63 0 0 1 .775.431.63.63 0 0 1-.44.77M43.57 506.783c-.221-.154-.47-.196-.801-.104l-.726.2.889 3.205.726-.201c.331-.092.523-.257.633-.504.119-.27.049-.63-.158-1.376-.208-.746-.321-1.049-.563-1.22m1.583 3.101c-.235.415-.657.688-1.168.83l-1.775.493-1.365-4.917 1.775-.493c.51-.142 1.014-.125 1.428.11.706.399.84 1.09 1.045 1.83.204.738.459 1.44.06 2.147M47.379 506.038L47.253 508l1.223-.34-1.097-1.62zm2.107 3.148l-.53-.788-1.747.484-.057.953-1 .277.422-5.413.754-.209 3.16 4.419-1.002.277zM52.459 508.406c-.746.207-1.356.206-1.975-.15l.449-.795c.396.225.846.212 1.302.085.567-.157.81-.455.702-.85-.048-.172-.137-.303-.267-.372-.122-.062-.246-.08-.483-.051l-.617.082c-.439.055-.785.01-1.066-.143-.3-.17-.506-.455-.621-.869-.243-.878.235-1.672 1.299-1.967.677-.188 1.213-.158 1.747.132l-.44.77c-.394-.21-.778-.15-1.103-.059-.51.142-.68.494-.587.833a.487.487 0 0 0 .243.311.869.869 0 0 0 .51.067l.603-.078c.466-.062.784-.017 1.044.12.332.175.549.501.669.937.265.953-.38 1.712-1.409 1.997M56.496 507.286c-.746.206-1.355.205-1.975-.151l.45-.794c.396.224.845.211 1.302.084.566-.157.81-.455.701-.85-.048-.171-.136-.303-.267-.371-.121-.063-.245-.08-.482-.052l-.617.082c-.44.055-.786.01-1.067-.143-.3-.17-.505-.454-.62-.869-.244-.877.235-1.672 1.299-1.967.676-.188 1.213-.158 1.747.132l-.44.77c-.395-.21-.779-.149-1.103-.059-.511.142-.681.494-.588.833a.492.492 0 0 0 .244.311c.12.064.3.096.509.067l.603-.077c.466-.063.784-.018 1.044.118.332.176.55.502.67.937.265.953-.381 1.713-1.41 1.999M60.41 502.019a.828.828 0 0 0-.686-.092.845.845 0 0 0-.55.435c-.128.26-.114.5.149 1.446.263.947.374 1.16.618 1.316.183.12.432.163.695.09a.826.826 0 0 0 .541-.433c.129-.258.121-.502-.142-1.448-.262-.946-.38-1.158-.624-1.314m1.638 3.144c-.248.441-.616.752-1.176.907-.56.156-1.04.082-1.482-.168-.635-.36-.791-.978-1.028-1.827-.236-.85-.42-1.46-.061-2.095.25-.442.624-.754 1.183-.909.56-.155 1.035-.08 1.476.17.635.36.799.976 1.034 1.825.237.85.414 1.462.054 2.097"/>
            </g>
            <path fill="#4A4A4A" d="M249.122 517.154l-1.752-.883-.165 1.272 1.917-.39zm-3.337.672l.868-.177.212-1.633-.794-.393.086-.668 3.941 2.054-.065.506-4.335.98.087-.67zM245.499 520.029l.063-.482 3.087-.699-.082.628-2.165.428 1.985.961-.082.628zM245.363 521.918a.415.415 0 0 1-.086-.316.41.41 0 0 1 .164-.283.412.412 0 0 1 .315-.086c.117.015.21.07.28.163.07.095.099.2.083.315a.416.416 0 0 1-.16.284.402.402 0 0 1-.313.086.409.409 0 0 1-.283-.163M248.094 526.854a.755.755 0 0 0 .214-.467l.121-.93-1.186-.155-.12.93a.757.757 0 0 0 .087.507c.085.137.224.219.418.244.194.025.35-.018.466-.129m-1.783-.155c.132-.101.212-.262.24-.482l.129-.988-1.262-.164-.128.988c-.029.22.009.397.112.528a.63.63 0 0 0 .433.234.617.617 0 0 0 .476-.116m-1.077.582a1.033 1.033 0 0 1-.505-.73c-.03-.16-.034-.331-.01-.512l.217-1.674 4.138.537-.209 1.61c-.05.387-.19.679-.42.875-.23.197-.523.272-.875.227a.928.928 0 0 1-.304-.09 1.044 1.044 0 0 1-.24-.161.882.882 0 0 1-.169-.203.79.79 0 0 1-.092-.218 1.005 1.005 0 0 1-.387.387.947.947 0 0 1-.291.103c-.11.022-.23.024-.362.007a1.281 1.281 0 0 1-.49-.158M246.15 530.145a.728.728 0 0 0 .192-.037.595.595 0 0 0 .299-.186.64.64 0 0 0 .148-.347.65.65 0 0 0-.054-.377.599.599 0 0 0-.241-.258.64.64 0 0 0-.176-.082 2.277 2.277 0 0 0-.216-.046l-.172 1.325c.09.008.163.01.22.008zm-.46-1.387c-.256-.033-.466.005-.63.115-.164.107-.261.284-.293.528a.95.95 0 0 0 .02.413c.035.11.098.223.19.341l-.404.332a2.096 2.096 0 0 1-.17-.256 1.277 1.277 0 0 1-.162-.558 1.921 1.921 0 0 1 .162-.86 1.05 1.05 0 0 1 .31-.387 1.24 1.24 0 0 1 .505-.224c.203-.045.444-.05.723-.014.48.062.836.225 1.068.488.232.262.323.583.274.963-.025.198-.083.37-.173.516-.09.145-.204.264-.342.354-.137.09-.297.153-.478.186a1.885 1.885 0 0 1-.587.01l-.262-.034.249-1.913zM243.936 532.071a.892.892 0 0 1 .113-.352.758.758 0 0 1 .21-.23.685.685 0 0 1 .278-.114c.103-.018.209-.02.317-.007l3.325.432-.077.594-3.29-.428c-.112-.015-.2-.003-.264.037-.065.038-.105.119-.12.238l-.034.262-.506-.066.048-.366zM244.901 534.832l.09-.69c.022-.176.003-.312-.06-.411a.384.384 0 0 0-.296-.174c-.135-.018-.244.013-.328.09-.083.078-.136.21-.16.396a1.612 1.612 0 0 0-.014.305c.007.092.043.18.11.269.075.096.214.158.42.184l.238.031zm-1.304-.157l.268.035a1.03 1.03 0 0 1-.189-.368 1.225 1.225 0 0 1-.011-.456c.024-.186.067-.34.127-.46a.872.872 0 0 1 .243-.297.89.89 0 0 1 .663-.15c.248.033.44.143.578.333.137.188.183.454.139.796l-.1.778.208.027c.186.024.331-.007.435-.094.103-.088.17-.247.2-.48a.935.935 0 0 0-.014-.391.724.724 0 0 0-.186-.29l.417-.342c.144.16.236.324.275.494.04.168.043.374.011.618-.104.81-.494 1.172-1.168 1.084l-1.97-.256.074-.58zM243.173 537.947l.296.038a.95.95 0 0 1-.203-.39 1.176 1.176 0 0 1-.026-.437c.02-.15.06-.285.123-.4a.91.91 0 0 1 .644-.475c.143-.026.298-.027.464-.006l1.883.245-.076.593-1.797-.233c-.228-.03-.402.005-.522.107-.119.1-.19.233-.211.4a.74.74 0 0 0 .007.24.499.499 0 0 0 .094.211c.047.06.11.114.19.157a.814.814 0 0 0 .286.088l1.796.233-.077.593-2.947-.383.076-.58zM242.742 541.266l1.796.233c.229.03.402-.006.522-.106a.606.606 0 0 0 .212-.401.635.635 0 0 0-.104-.452c-.091-.133-.25-.215-.474-.244l-1.796-.233.077-.593 2.947.383-.075.58-.297-.038a.944.944 0 0 1 .203.39c.037.145.046.29.026.437-.02.152-.06.286-.122.401a.913.913 0 0 1-.644.474 1.535 1.535 0 0 1-.464.006l-1.884-.245.077-.592zM244.182 544.67a.979.979 0 0 0 .322-.044.512.512 0 0 0 .237-.158.583.583 0 0 0 .12-.31.585.585 0 0 0-.037-.332.54.54 0 0 0-.188-.213.91.91 0 0 0-.3-.128 3.288 3.288 0 0 0-.75-.098.946.946 0 0 0-.324.047.533.533 0 0 0-.24.158.584.584 0 0 0-.12.312.587.587 0 0 0 .037.33c.042.088.105.16.19.214.086.054.187.096.304.125a3.286 3.286 0 0 0 .75.097zm-1.855-.208l.314.04a.913.913 0 0 1-.23-.387 1.15 1.15 0 0 1-.017-.436c.019-.148.06-.281.122-.401a.852.852 0 0 1 .233-.286.888.888 0 0 1 .278-.144 1.48 1.48 0 0 1 .325-.062c.113-.009.228-.008.345 0a7.128 7.128 0 0 1 .686.09c.115.021.226.05.332.087.105.037.203.085.294.142a.907.907 0 0 1 .233.21c.07.092.122.204.152.334.03.13.036.268.017.415a1.22 1.22 0 0 1-.125.416.869.869 0 0 1-.307.314l1.488.194-.077.592-4.138-.537.075-.58zM243.836 547.982a.745.745 0 0 0 .19-.037.597.597 0 0 0 .3-.185.642.642 0 0 0 .148-.348.653.653 0 0 0-.054-.377.597.597 0 0 0-.242-.258.638.638 0 0 0-.176-.082 2.301 2.301 0 0 0-.215-.046l-.172 1.325c.09.007.163.01.22.008zm-.462-1.387c-.255-.033-.465.005-.63.114-.163.108-.26.285-.292.529a.966.966 0 0 0 .02.414c.035.109.098.222.189.34l-.403.332a1.992 1.992 0 0 1-.171-.256 1.272 1.272 0 0 1-.161-.558 1.91 1.91 0 0 1 .162-.86c.073-.155.176-.283.31-.387.133-.104.302-.179.505-.224.202-.046.443-.05.722-.014.481.063.837.225 1.07.488.23.262.322.583.273.963-.026.198-.084.37-.173.516-.09.145-.204.264-.342.354-.137.09-.297.153-.479.186a1.895 1.895 0 0 1-.586.01l-.262-.034.248-1.913zM178.045 495.804l-1.217 1.542 1.2.415.017-1.957zm-.052 3.789l.01-.952-1.712-.593-.587.752-.982-.34 3.423-4.215.738.256.092 5.431-.982-.34zM181.085 500.663l-.705-.244.079-5.373.975.338-.12 3.478 2.057-2.808.982.34zM183.149 501.4a.624.624 0 0 1 .407-1.178.63.63 0 0 1 .392.795.63.63 0 0 1-.8.383M188.468 504.413c-.723-.278-1.212-.643-1.498-1.298l.833-.37c.186.416.556.674.997.844.549.21.923.116 1.07-.265.064-.167.07-.326.007-.458-.061-.123-.15-.211-.358-.33l-.544-.301c-.385-.217-.637-.46-.772-.75-.14-.314-.135-.665.02-1.067.326-.85 1.184-1.203 2.214-.807.655.252 1.069.595 1.325 1.146l-.813.357c-.19-.404-.536-.583-.85-.704-.495-.19-.841-.009-.967.319a.49.49 0 0 0 .009.395c.06.123.186.256.37.357l.53.297c.412.227.64.453.769.717.161.339.141.73-.021 1.152-.355.923-1.324 1.15-2.321.766M194.456 502.154l-1.513 3.934-.93-.358 1.513-3.934-1.244-.478.319-.83 3.418 1.316-.32.829zM198.432 503.929a.825.825 0 0 0-.497-.483.842.842 0 0 0-.7.023c-.258.13-.39.333-.742 1.25-.352.915-.39 1.155-.287 1.425.075.205.25.389.505.486.253.098.5.077.692-.026.258-.13.397-.331.749-1.247.352-.917.384-1.158.28-1.428m-.556 3.502c-.462.207-.943.237-1.485.028-.541-.208-.884-.554-1.09-1.018-.297-.667-.054-1.258.262-2.08.317-.822.531-1.423 1.2-1.72.462-.205.949-.233 1.49-.025.542.209.879.553 1.085 1.015.296.668.06 1.26-.256 2.083-.317.822-.54 1.421-1.206 1.717M199.535 508.645a.624.624 0 0 1 .447-1.164.629.629 0 0 1 .365.808.63.63 0 0 1-.812.356M205.97 506.581l-1.512 3.934-.93-.358 1.512-3.934-1.244-.478.319-.83 3.418 1.316-.319.829zM209.946 508.355a.828.828 0 0 0-.497-.483.845.845 0 0 0-.7.023c-.257.132-.389.334-.742 1.25-.352.916-.39 1.156-.286 1.426.074.205.25.389.504.486.254.098.5.077.693-.026.257-.13.396-.331.748-1.247.353-.917.384-1.158.28-1.429m-.555 3.503c-.463.207-.943.237-1.485.029-.542-.21-.885-.555-1.09-1.02-.297-.665-.055-1.256.262-2.078.316-.824.532-1.424 1.198-1.721.463-.205.95-.233 1.492-.025.542.209.878.553 1.084 1.015.296.668.06 1.26-.256 2.083-.316.823-.538 1.421-1.205 1.717M213.947 509.648l-.876-.337-.484 1.258.876.337c.409.157.776-.001.918-.37.141-.367-.026-.731-.434-.888zm-.79 4.211l-.2-2.258-.668-.256-.73 1.9-.93-.358 1.831-4.763 1.866.718c.97.373 1.29 1.256.985 2.052-.257.669-.825.927-1.351.917l.275 2.463-1.078-.415zM215.002 514.569l1.831-4.763.93.357-1.832 4.763zM219.71 514.083l-.97-.373-.45 1.17.97.373c.422.162.725-.027.849-.35.123-.32.022-.658-.4-.82m.684-1.957l-.91-.35-.421 1.098.91.35c.394.151.7.015.825-.312.127-.328-.01-.634-.404-.786m-1.359 3.993l-1.993-.766 1.831-4.763 1.914.736c.93.357 1.27 1.087.957 1.903a1.18 1.18 0 0 1-.967.757c.236.244.489.687.244 1.322-.342.89-1.136 1.138-1.986.811M221.441 517.044l1.831-4.762.93.357-1.831 4.763zM227.104 514.953a.828.828 0 0 0-.497-.484.845.845 0 0 0-.7.023c-.257.131-.39.334-.742 1.251-.352.916-.39 1.155-.287 1.425.075.205.25.388.505.486.254.098.5.077.693-.026.257-.13.396-.332.748-1.247.353-.917.384-1.158.28-1.428m-.555 3.502c-.463.206-.943.236-1.485.028-.542-.208-.885-.554-1.09-1.018-.297-.667-.055-1.257.261-2.08.317-.823.532-1.423 1.2-1.72.463-.205.95-.233 1.49-.025.543.209.879.553 1.085 1.015.296.668.06 1.26-.256 2.084-.316.822-.539 1.42-1.205 1.716"/>
            <path fill="#BA473A" d="M219.872 286.085l-.002 3.617h.794c.535 0 .825-.243.825-1.007v-1.602c0-.763-.29-1.007-.823-1.008h-.794zm3.296 1.116v1.388c-.001 1.71-.826 2.64-2.504 2.64h-.794l-.001 4.013h-1.68l.004-10.683h2.473c1.679.001 2.502.932 2.502 2.642zM225.35 291.856h1.617l-.791-5.402h-.031l-.795 5.402zm3.829 3.39l-1.694-.001-.29-1.939h-2.06l-.29 1.938-1.542-.001 1.714-10.682h2.456l1.706 10.684zM231.64 286.09l-.001 3.28.656.001c.626 0 1.008-.274 1.008-1.13v-1.052c0-.764-.26-1.1-.854-1.1h-.81zm1.828 9.157c-.092-.275-.153-.443-.152-1.313v-1.679c0-.992-.335-1.358-1.098-1.358h-.58l-.001 4.35-1.68-.001.005-10.683h2.533c1.74 0 2.487.81 2.487 2.458v.84c-.001 1.098-.353 1.8-1.1 2.151v.03c.839.352 1.114 1.146 1.113 2.26v1.648c0 .519.014.9.182 1.297h-1.709zM235.61 284.564l5.188.002v1.526h-1.755l-.003 9.156h-1.68l.004-9.157h-1.755zM241.53 284.567h1.68l-.004 10.683h-1.679zM246.109 286.094l-.003 7.63.946.001c.534 0 .854-.274.855-1.037l.002-5.556c0-.763-.32-1.037-.854-1.037h-.946zm-1.679-1.526h2.656c1.678 0 2.502.932 2.502 2.642l-.002 5.402c0 1.71-.825 2.64-2.504 2.64l-2.655-.001.003-10.683zM252.242 291.865h1.618l-.792-5.402h-.03l-.796 5.402zm3.83 3.39l-1.694-.001-.29-1.938-2.06-.001-.29 1.938h-1.542l1.713-10.683 2.457.001 1.706 10.683z"/>
            <path fill="#00568A" d="M217.25 300.911h1.678l-.003 9.158h2.763l-.001 1.527-4.441-.002zM222.423 300.913h1.68l-.004 9.158h2.762v1.527l-4.441-.002zM229.275 305.418h2.304v1.526h-2.305v3.128l2.899.001v1.526l-4.579-.001.004-10.683 4.579.001-.001 1.526h-2.9zM235.731 305.649h2.35v3.389c-.001 1.709-.856 2.685-2.505 2.685-1.648-.001-2.502-.978-2.501-2.687l.001-5.556c.001-1.708.856-2.685 2.504-2.684 1.648 0 2.502.977 2.502 2.686v1.038h-1.587v-1.145c0-.763-.335-1.053-.87-1.053-.534 0-.87.29-.87 1.052l-.001 5.77c0 .763.335 1.037.869 1.037s.87-.274.87-1.037v-1.97h-.762v-1.525zM240.752 308.215h1.618l-.792-5.403h-.03l-.796 5.403zm3.83 3.389h-1.694l-.29-1.94h-2.06l-.291 1.938h-1.541l1.713-10.683 2.457.001 1.706 10.684zM247.042 302.448l-.002 7.63h.946c.534 0 .854-.274.855-1.036l.002-5.556c0-.763-.32-1.038-.854-1.038h-.947zm-1.678-1.527h2.656c1.678.001 2.502.933 2.501 2.642l-.001 5.402c0 1.71-.825 2.64-2.504 2.64h-2.656l.004-10.684zM253.176 308.219h1.618l-.792-5.403h-.03l-.796 5.403zm3.83 3.389h-1.694l-.29-1.939h-2.06l-.291 1.937h-1.54l1.712-10.682h2.457l1.706 10.684z"/>
            <path stroke="#BA473A" stroke-width="3.283" d="M205.134 283.832l.94 17.933"/>
            <path stroke="#00568A" stroke-width="3.283" d="M205.949 298.476l.765 14.604"/>
            <path fill="#BA473A" d="M210.823 290.96l4.603 2.514-4.407 2.602-4.443 2.666-.179-5.147-.178-5.147z"/>
            <path fill="#00568A" d="M211.381 301.613l4.603 2.513-4.407 2.602-4.443 2.666-.178-5.147-.179-5.147z"/>
            <path stroke="#0FBDDF" stroke-width="4.055" d="M170.04 322.769l3.976 117.564"/>
            <path fill="#00568A" d="M183.633 321.574a7.792 7.792 0 1 1-.45-15.576 7.792 7.792 0 0 1 .45 15.576m-.623-21.585c-7.62.22-13.619 6.576-13.4 14.195.399 13.797 14.674 29.956 14.674 29.956s13.32-16.955 12.921-30.752c-.22-7.62-6.574-13.618-14.195-13.399"/>
            <path stroke="#F1F1F1" stroke-width="1.094" d="M183.633 321.574a7.792 7.792 0 1 1-.45-15.576 7.792 7.792 0 0 1 .45 15.576zm-.623-21.585c-7.62.22-13.619 6.576-13.4 14.195.399 13.797 14.674 29.956 14.674 29.956s13.32-16.955 12.921-30.752c-.22-7.62-6.574-13.618-14.195-13.399z"/>
            <path fill="#00568A" d="M182.662 308.294a5.349 5.349 0 1 0 .31 10.693 5.349 5.349 0 0 0-.31-10.693"/>
            <path stroke="#FFF" stroke-width="1.094" d="M188.367 313.19a5.349 5.349 0 1 0-10.662.869 5.349 5.349 0 0 0 10.662-.87z"/>
            <path fill="#FFF" d="M95.223 354.409a7.216 7.216 0 1 1 1.738-14.328 7.217 7.217 0 0 1-1.738 14.328M164.863 183.384a7.217 7.217 0 1 1 1.737-14.328 7.217 7.217 0 0 1-1.737 14.328M80.726 191.6a7.216 7.216 0 1 1 1.738-14.328 7.217 7.217 0 1 1-1.738 14.328M83.777 500.24a7.217 7.217 0 1 1-2.83-14.154 7.217 7.217 0 0 1 2.83 14.154M175.804 542.138a7.217 7.217 0 1 1 9.308-11.032 7.217 7.217 0 0 1-9.308 11.032M214.033 453.898a7.217 7.217 0 1 1 1.738-14.329 7.217 7.217 0 0 1-1.738 14.329M266.475 548.745a7.217 7.217 0 1 1 1.738-14.328 7.217 7.217 0 0 1-1.738 14.328"/>
            <path fill="#00568A" d="M90.014 346.502a6.406 6.406 0 1 1 12.72 1.543 6.406 6.406 0 0 1-12.72-1.543m14.74 1.788a8.058 8.058 0 0 0-7.03-8.97c-7.998-.97-18.567 5.866-18.567 5.866s8.629 9.163 16.628 10.133a8.058 8.058 0 0 0 8.969-7.03"/>
            <path stroke="#FFF" stroke-width="1.094" d="M90.014 346.502a6.406 6.406 0 1 1 12.72 1.543 6.406 6.406 0 0 1-12.72-1.543zm14.74 1.788a8.058 8.058 0 0 0-7.03-8.97c-7.998-.97-18.567 5.866-18.567 5.866s8.629 9.163 16.628 10.133a8.058 8.058 0 0 0 8.969-7.03z"/>
            <path fill="#000" d="M94.86 346.558l-.717-.087c-.553-.067-.781.152-.828.538-.047.387.122.654.675.721l1.702.206c.552.068.791-.15.838-.536.047-.387-.133-.656-.686-.723l-.231-.028.139-1.149 4.459.765-.39 3.204-1.104-.134.257-2.121-1.832-.323-.003.021c.337.266.494.632.436 1.119-.109.894-.793 1.27-1.932 1.133l-1.723-.209c-1.237-.15-1.87-.854-1.725-2.048.145-1.193.927-1.726 2.165-1.576l.64.078-.14 1.149z"/>
            <path fill="#00568A" d="M80.026 499.073a6.406 6.406 0 1 1 4.86-11.855 6.406 6.406 0 0 1-4.86 11.855m5.631-13.738a8.058 8.058 0 0 0-10.511 4.4c-3.057 7.455.732 19.458.732 19.458s11.123-5.89 14.179-13.346a8.057 8.057 0 0 0-4.4-10.512"/>
            <path stroke="#FFF" stroke-width="1.094" d="M80.026 499.073a6.406 6.406 0 1 1 4.86-11.855 6.406 6.406 0 0 1-4.86 11.855zm5.631-13.738a8.058 8.058 0 0 0-10.511 4.4c-3.057 7.455.732 19.458.732 19.458s11.123-5.89 14.179-13.346a8.057 8.057 0 0 0-4.4-10.512z"/>
            <path fill="#000" d="M81.793 492.682l2.862.347.003-.022-2.719-1.53-.146 1.205zm.281-2.32l4.959 2.843-.16 1.326-5.228-.633-.069.574-1.105-.135.07-.574-1.403-.17.147-1.215 1.403.17.282-2.32 1.104.133z"/>
            <path fill="#00568A" d="M176.067 532.575a6.407 6.407 0 1 1 9.792 8.263 6.407 6.407 0 0 1-9.792-8.263m11.348 9.574a8.058 8.058 0 0 0-.963-11.354c-6.158-5.196-18.745-5.273-18.745-5.273s2.195 12.394 8.353 17.59a8.057 8.057 0 0 0 11.355-.963"/>
            <path stroke="#FFF" stroke-width="1.094" d="M176.067 532.575a6.407 6.407 0 1 1 9.792 8.263 6.407 6.407 0 0 1-9.792-8.263zm11.348 9.574a8.058 8.058 0 0 0-.963-11.354c-6.158-5.196-18.745-5.273-18.745-5.273s2.195 12.394 8.353 17.59a8.057 8.057 0 0 0 11.355-.963z"/>
            <path fill="#000" d="M182.974 537.297c.701-.005.888-.252.885-.64-.003-.39-.216-.634-.773-.63l-.5.004-.01-1.157.424-.003c1.245-.01 1.963.608 1.972 1.81.01 1.201-.698 1.83-1.944 1.84l-.2.002c-.836.006-1.35-.257-1.599-.845h-.021c-.263.614-.828.863-1.62.87l-.611.005c-1.246.01-1.964-.608-1.973-1.81-.01-1.202.698-1.83 1.945-1.84l.645-.006.009 1.158-.723.005c-.557.005-.766.251-.763.641.003.39.194.633.884.628l.612-.005c.723-.006.988-.253.984-.81l-.003-.412 1.113-.008.003.479c.004.456.207.733.83.728l.434-.004z"/>
            <path fill="#00568A" d="M210.873 451.56a6.406 6.406 0 1 1 7.884-10.1 6.406 6.406 0 0 1-7.884 10.1m9.135-11.705a8.058 8.058 0 0 0-11.31 1.394c-4.957 6.352-4.554 18.932-4.554 18.932s12.3-2.664 17.259-9.016a8.058 8.058 0 0 0-1.395-11.31"/>
            <path stroke="#FFF" stroke-width="1.094" d="M210.873 451.56a6.406 6.406 0 1 1 7.884-10.1 6.406 6.406 0 0 1-7.884 10.1zm9.135-11.705a8.058 8.058 0 0 0-11.31 1.394c-4.957 6.352-4.554 18.932-4.554 18.932s12.3-2.664 17.259-9.016a8.058 8.058 0 0 0-1.395-11.31z"/>
            <path fill="#000" d="M218.064 445.039c-.168.931.243 1.22.725 1.5l-.147.81-7.666-1.388.218-1.204 5.847 1.059.17-.932.853.155z"/>
            <path fill="#00568A" d="M261.342 540.492a6.406 6.406 0 1 1 12.72 1.543 6.406 6.406 0 0 1-12.72-1.543m14.739 1.787a8.058 8.058 0 0 0-7.029-8.969c-7.999-.97-18.567 5.865-18.567 5.865s8.628 9.163 16.627 10.134a8.058 8.058 0 0 0 8.969-7.03"/>
            <path stroke="#FFF" stroke-width="1.094" d="M261.342 540.492a6.406 6.406 0 1 1 12.72 1.543 6.406 6.406 0 0 1-12.72-1.543zm14.739 1.787a8.058 8.058 0 0 0-7.029-8.969c-7.999-.97-18.567 5.865-18.567 5.865s8.628 9.163 16.627 10.134a8.058 8.058 0 0 0 8.969-7.03z"/>
            <path fill="#000" d="M270.874 541.811c.047-.386-.133-.655-.686-.722l-.828-.1.14-1.15.75.091c1.238.15 1.87.855 1.725 2.049-.145 1.193-.927 1.725-2.164 1.575-1.028-.124-1.81-.6-2.878-1.874-.687-.812-1.027-1.055-1.436-1.104a.807.807 0 0 0-.167-.01l-.279 2.3-1.105-.135.427-3.514.95.115c.861.105 1.476.494 2.316 1.515.87 1.047 1.446 1.386 2.275 1.486.696.085.913-.135.96-.522"/>
            <path fill="#00568A" d="M160.141 175.811a6.406 6.406 0 1 1 12.719 1.543 6.406 6.406 0 1 1-12.719-1.542m14.74 1.787a8.058 8.058 0 0 0-7.03-8.97c-7.998-.97-18.567 5.866-18.567 5.866s8.628 9.163 16.627 10.133a8.058 8.058 0 0 0 8.97-7.03"/>
            <path stroke="#FFF" stroke-width="1.094" d="M160.141 175.811a6.406 6.406 0 1 1 12.719 1.543 6.406 6.406 0 1 1-12.719-1.542zm14.74 1.788a8.058 8.058 0 0 0-7.03-8.97c-7.998-.97-18.567 5.866-18.567 5.866s8.628 9.163 16.627 10.133a8.058 8.058 0 0 0 8.97-7.03z"/>
            <path fill="#FFF" d="M146.041 313.619a7.216 7.216 0 1 1-3.648 13.964 7.216 7.216 0 0 1 3.648-13.964"/>
            <path fill="#00568A" d="M149.703 321.758a6.405 6.405 0 0 1-7.818 4.578 6.406 6.406 0 1 1 3.238-12.396 6.406 6.406 0 0 1 4.58 7.818m-14.366-3.753a8.058 8.058 0 0 0 5.76 9.833c7.796 2.036 19.187-3.316 19.187-3.316s-7.318-10.24-15.115-12.277a8.057 8.057 0 0 0-9.832 5.76"/>
            <path stroke="#FFF" stroke-width="1.094" d="M149.703 321.758a6.405 6.405 0 0 1-7.818 4.578 6.406 6.406 0 1 1 3.238-12.396 6.406 6.406 0 0 1 4.58 7.818zm-14.366-3.753a8.058 8.058 0 0 0 5.76 9.833c7.796 2.036 19.187-3.316 19.187-3.316s-7.318-10.24-15.115-12.277a8.057 8.057 0 0 0-9.832 5.76z"/>
            <path fill="#000" d="M169.925 178.977l-1.061-.129-6.457-2.599.148-1.215 6.413 2.583.293-2.42 1.106.134z"/>
            <path fill="#00568A" d="M74.614 183.846a6.406 6.406 0 1 1 12.72 1.543 6.406 6.406 0 0 1-12.72-1.543m14.74 1.787a8.058 8.058 0 0 0-7.029-8.969c-8-.97-18.568 5.865-18.568 5.865s8.629 9.164 16.628 10.134a8.058 8.058 0 0 0 8.969-7.03"/>
            <path stroke="#FFF" stroke-width="1.094" d="M74.614 183.846a6.406 6.406 0 1 1 12.72 1.543 6.406 6.406 0 0 1-12.72-1.543zm14.74 1.787a8.058 8.058 0 0 0-7.029-8.969c-8-.97-18.568 5.865-18.568 5.865s8.629 9.164 16.628 10.134a8.058 8.058 0 0 0 8.969-7.03z"/>
            <path fill="#000" d="M80.13 184.028l-1.392-.169c-.553-.068-.781.152-.828.538-.047.387.122.654.675.721l1.392.169c.553.067.792-.15.838-.537.047-.387-.133-.655-.685-.722zm2.788-.896c1.303.159 1.938.84 1.786 2.1-.145 1.193-.928 1.726-2.165 1.576l-.199-.024.14-1.149.276.034c.552.067.792-.15.839-.537.052-.432-.128-.7-.868-.79l-1.404-.17-.003.022c.417.264.606.646.54 1.187-.108.895-.793 1.271-1.93 1.134l-1.415-.172c-1.238-.15-1.865-.888-1.72-2.081.144-1.193.93-1.76 2.168-1.61l3.955.48z"/>
            <path fill="#FFF" d="M155.293 343.702l-1.88-.577.047 1.269 1.833-.692zm-3.552 1.32l.89-.333-.065-1.812-.914-.275-.038-1.038 5.167 1.667.029.78-5.031 2.05-.038-1.038zM151.86 348.292l-.027-.744 5.038-1.87.037 1.03-3.284 1.147 3.36.902.038 1.039zM151.92 350.483a.625.625 0 0 1 1.246-.046.63.63 0 0 1-.6.653.63.63 0 0 1-.647-.607M155.721 355.377l-1.879-.577.047 1.268 1.832-.691zm-3.552 1.32l.891-.334-.066-1.812-.914-.274-.037-1.039 5.167 1.668.028.781-5.03 2.049-.04-1.038zM152.253 360.164c-.038-1.046.64-1.903 1.722-1.942l3.351-.123.037.995-3.316.122c-.587.021-.926.378-.906.914.02.538.384.876.971.854l3.316-.12.036.987-3.351.123c-1.082.04-1.821-.765-1.86-1.81M156.688 364.926l-.035-.938-1.346.05.034.937c.016.438.306.714.7.7.394-.015.662-.312.647-.749zm-4.183.928l1.997-1.07-.026-.717-2.034.075-.036-.995 5.099-.187.073 1.998c.038 1.038-.648 1.68-1.5 1.712-.717.026-1.177-.395-1.374-.883l-2.157 1.22-.042-1.153zM152.578 367.829l5.099-.187.123 3.358-.888.034-.087-2.364-1.196.044.074 2.012-.888.033-.074-2.013-1.24.046.087 2.363-.888.033zM152.736 372.16l5.099-.187.036.995-4.21.155.085 2.313-.888.033zM152.887 376.277l5.099-.188.037.996-5.1.187zM157.035 380.662a.827.827 0 0 0 .25-.646.848.848 0 0 0-.297-.635c-.222-.185-.46-.227-1.441-.191-.98.036-1.216.095-1.423.296a.845.845 0 0 0-.25.655c.01.271.127.49.297.627.221.186.46.234 1.442.198.98-.036 1.214-.101 1.422-.304m-3.44.865c-.37-.344-.586-.774-.608-1.354-.021-.58.163-1.031.508-1.402.497-.535 1.134-.544 2.015-.576.882-.032 1.518-.07 2.053.427.371.345.588.781.61 1.36.02.581-.164 1.025-.509 1.397-.497.534-1.134.55-2.015.583-.882.032-1.518.063-2.054-.435M153.33 388.355l2.973-.109-1.97-.902-.025-.674 1.898-1.052-2.972.109-.037-.996 5.1-.187.035.982-2.708 1.433 2.805 1.223.037.982-5.099.186zM153.41 390.537l5.1-.186.035.995-5.098.186zM157.772 394.5l-.034-.938-1.347.05.035.938c.016.436.305.713.7.698.393-.015.662-.31.646-.748zm-4.183.928l1.998-1.07-.027-.716-2.033.074-.037-.996 5.099-.186.074 1.998c.037 1.038-.649 1.68-1.5 1.712a1.376 1.376 0 0 1-1.375-.882l-2.156 1.22-.043-1.154zM157.73 399.606a.827.827 0 0 0 .249-.648.845.845 0 0 0-.297-.635c-.221-.184-.459-.226-1.44-.19-.981.036-1.216.095-1.424.296a.845.845 0 0 0-.249.654c.01.272.126.49.297.628.221.186.46.234 1.441.199.981-.036 1.215-.103 1.423-.304m-3.44.865c-.371-.345-.587-.774-.609-1.355-.02-.58.163-1.031.508-1.403.498-.534 1.135-.543 2.016-.575.882-.033 1.518-.07 2.053.427.371.344.588.781.609 1.36.021.581-.164 1.026-.508 1.397-.497.534-1.134.55-2.016.583-.88.032-1.517.063-2.053-.434M157.899 404.216a.826.826 0 0 0 .25-.647.847.847 0 0 0-.297-.634c-.222-.186-.46-.228-1.441-.191-.981.035-1.216.094-1.423.296a.842.842 0 0 0-.25.654.57.57 0 0 0 .106.326l.42-.46.543.51-.365.395c.224.07.518.074 1.034.055.981-.036 1.215-.102 1.423-.304zm-4.165 1l.433-.469c-.195-.279-.302-.62-.316-1.02-.022-.58.162-1.032.507-1.403.497-.535 1.135-.544 2.016-.576.881-.032 1.518-.07 2.053.427.37.345.587.782.61 1.361.02.58-.164 1.025-.51 1.396-.496.535-1.133.55-2.015.583-.766.028-1.332.056-1.816-.25l-.421.454-.541-.503zM154.023 408.416c-.04-1.045.64-1.903 1.721-1.942l3.352-.123.036.995-3.315.122c-.588.022-.926.378-.906.915.02.537.383.876.97.854l3.316-.121.037.988-3.352.122c-1.082.04-1.821-.765-1.86-1.81M154.175 411.399l5.099-.187.123 3.359-.888.032-.086-2.363-1.196.044.073 2.013-.887.032-.074-2.013-1.24.045.087 2.364-.887.032zM154.342 417.136c-.028-.774.115-1.367.605-1.887l.669.62c-.311.335-.402.775-.386 1.248.022.588.256.894.664.879.18-.006.328-.062.425-.172.088-.104.134-.22.161-.459l.064-.618c.049-.44.173-.767.386-1.004.235-.253.56-.387.99-.402.91-.034 1.572.616 1.612 1.719.026.701-.128 1.216-.534 1.669l-.647-.607c.296-.334.325-.723.313-1.059-.02-.53-.322-.777-.673-.764a.491.491 0 0 0-.36.164.878.878 0 0 0-.183.48l-.064.605c-.047.468-.166.766-.358.988-.249.282-.616.417-1.068.433-.988.036-1.577-.767-1.616-1.833M158.147 421.541l-1.878-.576.046 1.267 1.832-.69zm-3.552 1.32l.891-.333-.066-1.812-.914-.275-.038-1.038 5.167 1.668.029.78-5.03 2.05-.039-1.04zM158.644 426.878c.201-.18.3-.413.288-.757l-.028-.751-3.323.122.028.752c.012.343.128.569.342.733.236.178.603.193 1.376.165.774-.029 1.095-.07 1.317-.264m-3.384.82c-.349-.324-.516-.799-.536-1.328l-.067-1.84 5.098-.188.068 1.84c.02.53-.114 1.016-.437 1.365-.552.593-1.257.562-2.023.59-.766.028-1.51.113-2.103-.44M158.485 430.755l-1.879-.577.047 1.268 1.832-.691zm-3.552 1.32l.891-.333-.066-1.812-.913-.275-.039-1.039 5.167 1.668.03.781-5.032 2.05-.038-1.04zM133.034 403.005l6.357-.036.007 1.24-5.25.031.018 2.884-1.107.006zM133.063 408.048l4.652-.027.007 1.162-4.652.026-.007-1.16zm5.236.55a.736.736 0 0 1 .728-.736.728.728 0 0 1 .727.728.72.72 0 0 1-.719.728.729.729 0 0 1-.736-.72zM133.11 415.914l2.811-.016c.634-.004.846-.406.844-.773-.002-.357-.219-.775-.825-.772l-2.84.016-.006-1.16 2.812-.017c.633-.003.846-.406.843-.772-.001-.366-.218-.776-.852-.773l-2.812.017-.007-1.161 4.651-.027.007 1.134-.429.003c.315.301.486.73.49 1.157.002.518-.182.94-.583 1.237.413.39.594.809.598 1.389.002.465-.147.884-.405 1.145-.372.378-.809.514-1.318.517l-2.973.017-.007-1.161zM135.101 420.667l-.005-.919c-.002-.42-.2-.65-.531-.649-.321.002-.535.218-.532.673.002.322.03.526.228.73.117.125.305.168.59.167l.25-.002zm-1.964.038l.402-.002c-.315-.31-.45-.604-.453-1.14-.004-.526.128-.912.404-1.19.257-.251.63-.387 1.041-.39.742-.004 1.353.502 1.358 1.582l.007 1.098.232-.002c.509-.003.73-.254.727-.87-.003-.446-.111-.65-.39-.89l.72-.745c.502.452.648.897.652 1.674.008 1.304-.542 1.985-1.63 1.992l-3.064.017-.006-1.134zM133.865 429.146c-.476-.453-.739-1.049-.743-1.772-.004-.697.242-1.27.686-1.718.64-.647 1.434-.634 2.533-.64 1.097-.007 1.892-.03 2.538.61.45.444.703.996.707 1.71.005.884-.233 1.377-.801 1.952l-.845-.835c.356-.36.542-.619.539-1.11a1.03 1.03 0 0 0-.344-.793c-.269-.24-.564-.3-1.786-.293-1.224.007-1.528.071-1.794.314-.205.18-.328.457-.326.797.003.375.138.642.362.845.225.205.555.274.868.272l.223-.001-.007-1.125 1.036-.006.014 2.366-.91.005c-.92.006-1.484-.134-1.95-.578M136.664 433.137a.737.737 0 0 0 .203-.545.718.718 0 0 0-.209-.536c-.242-.239-.644-.264-1.126-.26-.482.002-.893.031-1.133.274a.712.712 0 0 0-.201.537c0 .232.073.41.207.544.243.239.654.264 1.136.26.482-.002.884-.032 1.123-.274m-2.932.92c-.305-.285-.575-.757-.58-1.445-.004-.687.261-1.153.564-1.44.435-.423.96-.533 1.809-.537.839-.005 1.366.098 1.806.516.306.284.576.747.58 1.434.004.687-.26 1.162-.563 1.45-.435.423-.96.533-1.8.538-.849.004-1.376-.1-1.816-.517M133.231 437.003c-.005-.954.662-1.36 1.323-1.364l5.026-.03.007 1.161-4.955.029c-.277.002-.419.118-.417.413l.002.447-.982.005-.004-.66zM136.882 439.875l-3.634.02-.007-1.16 3.634-.02-.003-.484.884-.005.003.483.58-.004c.66-.003 1.333.403 1.339 1.35l.004.66-.982.006-.003-.455c-.002-.277-.155-.4-.422-.4l-.51.004.006.857-.884.005-.005-.857zM133.23 445.93c-.004-.697.242-1.27.686-1.718.64-.647 1.434-.634 2.532-.64 1.098-.007 1.893-.03 2.54.61.448.444.702 1.014.706 1.71.004.813-.279 1.315-.722 1.773l-.827-.817c.275-.279.444-.503.441-.949-.002-.339-.128-.607-.335-.784-.269-.24-.572-.31-1.795-.302-1.224.007-1.527.08-1.794.323-.204.18-.327.449-.325.788.002.446.173.669.452.944l-.817.826c-.45-.453-.738-.952-.742-1.764M133.307 450.044c-.005-.955.662-1.36 1.323-1.364l5.026-.03.006 1.16-4.954.03c-.277.001-.42.118-.417.413l.002.446-.982.006-.004-.661zM133.332 454.31l.428-.002a1.592 1.592 0 0 1-.488-1.157c-.003-.465.146-.84.404-1.1.372-.378.81-.478 1.318-.482l2.973-.016.007 1.16-2.812.016c-.634.004-.846.407-.844.773.002.366.219.775.853.771l2.812-.016.007 1.16-4.652.027-.006-1.134zM137.017 458.672c-.004-.696-.575-.782-1.334-.778-.76.004-1.339.097-1.334.794.003.696.584.782 1.343.778.759-.005 1.33-.098 1.325-.794m-3.285 1.492c-.26-.257-.424-.676-.426-1.131-.003-.491.129-.84.484-1.164l-.438.003-.007-1.126 6.357-.037.007 1.161-2.115.013c.34.302.467.65.47 1.122.003.456-.156.876-.413 1.136-.461.468-1.256.481-1.952.485-.697.004-1.5 0-1.967-.462"/>
            <path fill="#000" d="M145.393 320.454c.051-.419-.243-.818-.775-.882-.297-.037-.645.098-.692.487-.05.419.243.818.775.882.297.036.645-.098.692-.487m-2.814-.922c.056-.46-.276-.895-.839-.963-.317-.039-.717.1-.772.55-.056.46.276.894.838.962.317.039.718-.1.773-.549m.395 1.79c-.185.156-.587.47-1.333.38-1.381-.168-2.298-1.255-2.103-2.86.144-1.187.895-2.072 2.266-1.906.767.093 1.424.578 1.763 1.377.25-.188.643-.42 1.328-.338 1.197.146 2.114 1.222 1.93 2.736-.148 1.228-1.051 2-2.279 1.851-.747-.09-1.331-.66-1.572-1.24"/>
            <g>
                <path fill="#636363" d="M198.141 262.5l-.02-2.644-2.139.017.02 2.644-1.233.01-.049-6.318 1.234-.01.02 2.583 2.138-.017-.02-2.583 1.234-.009.049 6.318zM203.028 259.029c-.134-.133-.312-.203-.543-.2a.708.708 0 0 0-.53.208c-.239.242-.262.64-.258 1.12.004.48.033.887.275 1.125a.704.704 0 0 0 .533.2.727.727 0 0 0 .54-.208c.238-.242.262-.65.258-1.13-.004-.48-.034-.877-.275-1.115m.919 2.912c-.281.303-.75.574-1.433.579-.684.005-1.147-.258-1.433-.557-.421-.431-.531-.954-.537-1.796-.007-.835.095-1.36.508-1.797.283-.305.742-.575 1.425-.58.684-.005 1.156.257 1.442.557.42.432.532.954.538 1.789.006.842-.097 1.367-.51 1.805M207.02 262.432c-.941.007-1.346-.655-1.351-1.312l-.018-2.289-.487.004-.008-.879.489-.004-.011-1.367 1.154-.009.01 1.368.816-.007.007.878-.816.007.017 2.218c.002.266.128.416.402.414l.418-.003.008.976-.63.005zM211.197 259.16c-.127-.274-.385-.476-.776-.473-.39.003-.645.21-.768.484-.07.17-.095.295-.103.5l1.758-.015a1.272 1.272 0 0 0-.111-.496zm-1.64 1.3c.004.595.371 1.026 1.019 1.021.506-.004.753-.148 1.044-.443l.706.678c-.466.474-.917.735-1.751.742-1.091.008-2.143-.481-2.157-2.353-.012-1.509.798-2.366 1.996-2.376 1.287-.01 2.021.925 2.031 2.194l.005.514-2.893.023zM214.832 262.371c-.95.008-1.354-.655-1.36-1.312l-.038-4.995 1.154-.01.038 4.925c.002.276.118.417.41.414l.444-.003.008.976-.656.005zM182.088 273.323c-.692.005-1.262-.24-1.709-.68-.644-.633-.632-1.423-.64-2.515-.009-1.091-.033-1.88.601-2.525a2.33 2.33 0 0 1 1.699-.705c.807-.005 1.306.274 1.762.714l-.81.823c-.277-.273-.5-.44-.944-.436-.337.003-.603.129-.778.334-.237.268-.307.57-.297 1.786.01 1.215.083 1.516.325 1.78.179.203.446.326.783.323.443-.003.664-.175.937-.45l.823.81c-.45.447-.944.734-1.752.74M187.144 269.796c-.134-.132-.312-.202-.543-.2a.705.705 0 0 0-.53.208c-.239.242-.262.64-.258 1.12.003.479.033.887.275 1.125a.71.71 0 0 0 .533.2c.231-.002.408-.074.54-.208.238-.241.262-.65.258-1.129-.004-.48-.033-.879-.275-1.116m.92 2.912c-.283.304-.751.574-1.435.58-.683.005-1.146-.259-1.432-.558-.421-.431-.532-.954-.538-1.797-.006-.834.096-1.358.51-1.796.281-.304.74-.573 1.424-.579.683-.005 1.156.258 1.442.556.42.432.531.955.537 1.789.007.843-.096 1.367-.509 1.805M192.35 273.19l-.002-.427a1.58 1.58 0 0 1-1.15.489c-.462.003-.836-.145-1.095-.4-.376-.37-.477-.804-.48-1.31l-.024-2.954 1.154-.01.022 2.795c.005.63.406.84.77.838.363-.003.77-.219.765-.85l-.022-2.794 1.154-.009.036 4.623-1.127.009zM197.46 273.15l-.022-2.796c-.005-.63-.406-.84-.77-.836-.363.003-.77.218-.765.848l.022 2.796-1.154.009-.036-4.623 1.127-.01.004.427c.299-.321.724-.485 1.15-.487.46-.004.835.144 1.094.399.375.37.477.803.48 1.308l.023 2.955-1.153.01zM201.3 273.12c-.94.007-1.345-.655-1.35-1.311l-.018-2.29-.488.004-.007-.878.488-.004-.01-1.367 1.153-.009.01 1.368.817-.007.007.878-.816.006.017 2.219c.002.266.127.416.402.413l.417-.003.008.976-.63.005zM205.46 269.724c-.178-.175-.33-.272-.614-.27-.355.003-.744.273-.739.858l.022 2.787-1.154.009-.035-4.623 1.127-.01.003.444c.22-.267.662-.5 1.159-.505.452-.004.772.11 1.094.426l-.863.884zM208.739 273.808c-.096.258-.2.454-.342.597-.264.268-.61.36-.99.363l-.453.004-.009-1.038.267-.003c.327-.003.46-.083.573-.421l.191-.57-1.613-4.282 1.216-.01.98 2.85.901-2.864 1.216-.01-1.937 5.384zM215.651 273.063a2.325 2.325 0 0 1-1.708-.68c-.644-.633-.632-1.424-.641-2.515-.009-1.092-.033-1.88.602-2.524.44-.448 1.006-.7 1.698-.706.807-.006 1.307.274 1.763.715l-.81.822c-.277-.273-.5-.44-.944-.436-.338.003-.603.129-.779.334-.238.268-.306.57-.297 1.785.01 1.216.083 1.517.325 1.782.179.202.446.324.783.322.444-.003.665-.174.937-.45l.823.81c-.45.446-.944.734-1.752.74M219.74 272.978c-.95.007-1.354-.656-1.36-1.312l-.037-4.995 1.153-.01.038 4.925c.002.275.119.416.411.414l.443-.004.008.976-.656.006zM223.98 272.944l-.003-.426a1.577 1.577 0 0 1-1.15.489c-.461.003-.835-.145-1.095-.4-.375-.37-.476-.804-.48-1.31l-.023-2.954 1.154-.01.021 2.795c.006.63.406.84.77.838.364-.003.77-.219.765-.85l-.021-2.794 1.153-.009.036 4.623-1.126.008zM228.307 269.273c-.692.005-.777.574-.77 1.328.005.754.099 1.33.79 1.326.693-.007.777-.584.771-1.338-.006-.754-.099-1.322-.791-1.316m1.49 3.263c-.256.26-.672.422-1.124.426-.488.003-.835-.127-1.158-.48l.004.435-1.118.01-.049-6.319 1.153-.009.017 2.103c.299-.34.644-.466 1.114-.47.453-.003.871.153 1.13.408.466.458.48 1.248.486 1.94.005.692.003 1.49-.456 1.956"/>
                <path stroke="#9B9B9B" stroke-width="5.279" d="M171.474 265.144a9.041 9.041 0 1 1-17.926 2.38 9.041 9.041 0 0 1 17.926-2.38z"/>
            </g>
        </g>
        <g>
            <g transform="translate(78 31.836)">
                <path fill="#00568A" d="M94.704 50.292c1.81 0 2.755.633 2.826 2.06h-1.72c-.065-.427-.394-.64-1.106-.64-.996 0-1.164.42-1.164.898 0 .484.175.91 1.164.91.712 0 1.041-.22 1.106-.652h1.72c-.07 1.433-1.008 2.073-2.826 2.073-1.992 0-2.845-.756-2.845-2.331 0-1.57.853-2.318 2.845-2.318M101.246 52.9l-.524-1.381-.523 1.381h1.047zm.44 1.162H99.76l-.31.814h-1.85l1.875-4.52h2.496l1.876 4.52h-1.85l-.31-.814zM111.19 54.876h-1.682v-2.15l-1.235 2.15h-1.1l-1.235-2.15v2.15h-1.681v-4.52h2.07l1.396 2.583 1.397-2.583h2.07z"/>
                <mask id="b" fill="#fff">
                    <use xlink:href="#a"/>
                </mask>
                <path fill="#00568A" d="M111.856 54.876h1.681v-4.52h-1.681zM120.016 50.356v4.52h-2.199l-1.953-2.667v2.667h-1.681v-4.52h2.198l1.954 2.667v-2.667zM124.074 52.9l-.523-1.381-.524 1.381h1.047zm.44 1.162h-1.927l-.31.814h-1.85l1.875-4.52h2.496l1.876 4.52h-1.85l-.31-.814zM131.98 51.777h-1.94v3.099h-1.681v-3.1h-1.94v-1.42h5.561zM135.372 52.9l-.524-1.381-.524 1.381h1.048zm.44 1.162h-1.927l-.311.814h-1.85l1.876-4.52h2.496l1.876 4.52h-1.85l-.31-.814zM144.909 52.94v-1.163l-1.384 1.162h1.384zm2.328 1.42h-.647v.516h-1.681v-.516h-2.936v-1.42l2.936-2.584h1.681v2.583h.647v1.421zM151.343 52.487l2.606 2.39h-2.328l-1.449-1.435-.698.575v.86h-1.682v-4.521h1.682v1.77l2.082-1.77h2.393zM1.195 8.796V.471h1.628v6.876h3.783v1.45zM12.748 2.927l-1.053 3.028h2.072l-1.019-3.028zm1.945 5.87L14.2 7.322h-2.963l-.504 1.473H9.036L12.069.471h1.277l3.045 8.325h-1.698zM26.45 8.796h-1.217L22.48.471h1.686l1.675 5.426L27.517.471h1.698zM34.944 8.867c-1.71 0-3.068-1.158-3.068-2.923V.471h1.628v5.414c0 .959.562 1.532 1.44 1.532.879 0 1.452-.573 1.452-1.532V.471h1.616v5.473c0 1.765-1.358 2.923-3.068 2.923M41.345 8.796V.471h5.492v1.45h-3.864v1.953h3.29v1.45h-3.29v2.023h3.864v1.45zM49.924 8.796V.471h1.627v6.876h3.783v1.45zM60.573 1.921v6.875h-1.628V1.921h-2.179V.471h5.985v1.45zM67.756 2.927L66.7 5.955h2.073l-1.018-3.028zm1.944 5.87l-.492-1.474h-2.963l-.504 1.473h-1.698L67.076.471h1.277l3.045 8.325H69.7zM81.224 2.927L80.17 5.955h2.073l-1.02-3.028zm1.944 5.87l-.492-1.474h-2.963l-.504 1.473h-1.698L80.545.471h1.276l3.045 8.325h-1.698z" mask="url(#b)"/>
                <path fill="#D64536" d="M5.604 22.758c0 .694.654 1.162 4.026 1.162 3.147 0 3.617-.204 3.617-.734 0-.612-.47-.694-3.822-.796-6.457-.204-8.93-1.265-8.93-4.59 0-3.142 3.086-4.489 8.726-4.489 5.579 0 8.726 1.347 8.726 4.999h-5.313c0-.755-1.226-.918-3.822-.918-2.493 0-3.004.123-3.004.674 0 .55.511.53 3.617.652 5.64.225 9.135.612 9.135 4.346C18.56 27 15.29 28 9.425 28c-5.864 0-9.134-1-9.134-5.243h5.313zM30.406 21.554l-1.655-4.366-1.656 4.366h3.31zm1.39 3.672h-6.09l-.981 2.57H18.88l5.927-14.28h7.887l5.926 14.28h-5.844l-.98-2.57zM58.185 13.515v14.282h-6.948l-6.171-8.426v8.426h-5.313V13.515H46.7l6.17 8.427v-8.427zM0 43.71h5.313V29.43H0zM12.118 38.671c0 .694.654 1.163 4.025 1.163 3.148 0 3.618-.204 3.618-.735 0-.612-.47-.693-3.822-.795-6.457-.204-8.93-1.265-8.93-4.59 0-3.142 3.086-4.49 8.726-4.49 5.578 0 8.725 1.348 8.725 5h-5.313c0-.756-1.226-.918-3.821-.918-2.493 0-3.004.122-3.004.673 0 .55.511.53 3.617.652 5.64.225 9.135.613 9.135 4.346 0 3.938-3.27 4.937-9.135 4.937s-9.134-1-9.134-5.243h5.313zM26.581 43.71h5.313V29.43h-5.313zM45.82 36.57c0-2.652-1.88-2.652-3.024-2.652h-3.678v5.304h3.678c1.145 0 3.025 0 3.025-2.652m5.313 0c0 4.855-3.25 7.14-6.703 7.14H33.805V29.43H44.43c3.453 0 6.703 2.284 6.703 7.14M57.926 35.876h4.904c.532 0 1.186 0 1.186-.98 0-.978-.654-.978-1.186-.978h-4.904v1.958zm8.869 3.734l2.534 4.1h-6.294l-1.982-3.346h-3.127v3.346h-5.313V29.43h11.24c3.248 0 5.476 2.285 5.476 5.468 0 2.08-.96 3.795-2.534 4.713zM83.014 36.55c0-1.49-.531-2.837-3.678-2.837s-3.678 1.327-3.678 2.836c0 1.53.551 2.877 3.678 2.877 3.126 0 3.678-1.367 3.678-2.877m-12.67 0c0-4.957 2.698-7.324 8.992-7.324 6.273 0 8.991 2.387 8.991 7.324 0 4.958-2.718 7.365-8.991 7.365-6.294 0-8.991-2.387-8.991-7.365" mask="url(#b)"/>
                <path fill="#D64536" d="M72.969 40.069h11.897v-8.352H72.969z" mask="url(#b)"/>
                <path fill="#005F8F" d="M81.214 32.754l-3.54 1.08c-.429.123-.776.569-.776.997v3.728s-.256-.172-.827-.091c-.84.118-1.52.76-1.52 1.435 0 .674.68 1.088 1.52.97.838-.12 1.454-.742 1.454-1.418v-3.182c0-.3.36-.427.36-.427l3.13-.98s.346-.115.346.205v2.556s-.319-.183-.891-.115c-.839.103-1.518.732-1.518 1.406 0 .674.68 1.101 1.518 1 .84-.102 1.52-.731 1.52-1.405v-5.205c0-.429-.347-.677-.776-.554" mask="url(#b)"/>
                <path fill="#00568A" d="M104.654 9.365c-2.274 0-4.07 1.899-4.07 4.303 0 2.405 1.796 4.304 4.07 4.304 2.276 0 4.072-1.9 4.072-4.304 0-2.404-1.796-4.303-4.072-4.303m0 17.592c-2.454 0-4.49 2.152-4.49 4.746 0 2.595 2.036 4.746 4.49 4.746 2.455 0 4.49-2.151 4.49-4.746 0-2.594-2.035-4.746-4.49-4.746m0 18.857c-7.843 0-14.308-4.492-14.308-13.858 0-5.632 3.173-8.29 4.789-9.681-1.497-1.33-4.37-4.05-4.37-8.923C90.765 4.81 97.35 0 104.655 0c7.304 0 13.89 4.81 13.89 13.352 0 4.872-2.874 7.594-4.371 8.923 1.616 1.392 4.79 4.05 4.79 9.68 0 9.367-6.467 13.859-14.31 13.859M145.567 46.973l-10.534-20.016-3.592 4.366v14.491h-10.358V.38h10.358v15.946L143.774.38h12.813l-14.55 18.224 12.805 22.92c.43.767.098 1.76-.693 2.07l-8.582 3.38z" mask="url(#b)"/>
            </g>
            <g transform="translate(158.185 13)">
                <path fill="#1E1210" d="M46.273 13.113V8.939c0-.941-.597-1.26-1.141-1.26-.531 0-1.155.319-1.155 1.22v4.214H42.25V8.939c0-.941-.596-1.26-1.141-1.26-.544 0-1.155.319-1.155 1.26v4.174h-1.726V6.209h1.686v.636a2.42 2.42 0 0 1 1.726-.715c.77 0 1.394.278 1.831.874.584-.61 1.208-.874 2.07-.874.69 0 1.315.225 1.7.609.558.557.756 1.206.756 1.961v4.413h-1.725zM52.538 5.11h-1.154l.85-2.254h1.818L52.538 5.11zm.77 8.003v-.636c-.451.477-1.088.715-1.725.715-.69 0-1.248-.225-1.633-.609-.557-.557-.704-1.206-.704-1.961V6.209h1.726v4.174c0 .941.598 1.26 1.142 1.26.544 0 1.154-.319 1.154-1.26V6.21h1.726v6.904h-1.686z"/>
                <g transform="translate(55.556 6.053)">
                    <mask id="d" fill="#fff">
                        <use xlink:href="#c"/>
                    </mask>
                    <path fill="#1E1210" d="M3.115 7.14c-1.088 0-2.07-.12-2.946-.994l1.128-1.127c.57.57 1.314.65 1.845.65.597 0 1.221-.2 1.221-.716 0-.345-.186-.583-.73-.636L2.544 4.21C1.297 4.09.527 3.548.527 2.276c0-1.432 1.26-2.2 2.668-2.2 1.075 0 1.978.185 2.641.809L4.774 1.958c-.398-.358-1.008-.464-1.606-.464-.69 0-.982.318-.982.663 0 .251.106.543.717.596l1.088.106C5.36 2.99 6.05 3.72 6.05 4.887c0 1.523-1.301 2.252-2.934 2.252" mask="url(#d)"/>
                </g>
                <mask id="f" fill="#fff">
                    <use xlink:href="#e"/>
                </mask>
                <path fill="#1E1210" d="M62.52 13.113h1.726V6.21H62.52v6.904zm.863-7.766c-.597 0-1.089-.49-1.089-1.086 0-.596.492-1.074 1.09-1.074a1.07 1.07 0 0 1 1.074 1.074 1.08 1.08 0 0 1-1.075 1.086zM68.387 13.193c-1.38 0-3.092-.743-3.092-3.539 0-2.795 1.711-3.524 3.092-3.524.956 0 1.673.291 2.283.927l-1.168 1.166c-.358-.384-.664-.543-1.115-.543-.411 0-.73.146-.982.45-.266.332-.385.795-.385 1.524 0 .73.12 1.206.385 1.537.252.305.57.451.982.451.451 0 .757-.159 1.115-.543l1.168 1.153c-.61.636-1.327.94-2.283.94M74.929 10.198h-1.367c-.624 0-.97.291-.97.782 0 .477.32.795.996.795.478 0 .783-.04 1.089-.331.185-.173.252-.451.252-.875v-.371zm.04 2.915v-.596c-.464.463-.903.662-1.7.662-.782 0-1.353-.199-1.764-.609-.372-.384-.571-.941-.571-1.55 0-1.1.756-2.002 2.362-2.002h1.633v-.344c0-.756-.372-1.087-1.287-1.087-.664 0-.97.159-1.328.57l-1.102-1.074c.678-.741 1.34-.953 2.496-.953 1.938 0 2.947.821 2.947 2.438v4.545h-1.686z" mask="url(#f)"/>
                <path fill="#DF060E" d="M31.152 6.141l4.179-4.176-1.1-1.098-4.177 4.176zM26.676 4.477h1.547V0h-1.547zM31.918 9.42h4.577V7.871h-4.577zM29.803 6.94a3.51 3.51 0 0 0-2.562-1.066 3.41 3.41 0 0 0-2.53 1.066c-.716.717-1.065 1.58-1.065 2.579 0 .998.349 1.863 1.065 2.562.698.716 1.548 1.081 2.53 1.081.982 0 1.847-.365 2.562-1.081.7-.7 1.05-1.564 1.05-2.562 0-.999-.35-1.862-1.05-2.579m-1.214 3.927c-.366.384-.816.565-1.348.565-.516 0-.966-.181-1.33-.565-.368-.383-.568-.833-.568-1.348 0-.549.2-.999.567-1.365a1.7 1.7 0 0 1 1.33-.548c.533-.018.983.167 1.365.548.35.366.532.816.55 1.365-.018.515-.2.965-.566 1.348M4.458 4.095c-1.247-.017-2.28.416-3.145 1.314C.431 6.291 0 7.339 0 8.587c0 1.23.431 2.314 1.313 3.195.865.864 1.898 1.298 3.145 1.298 1 0 1.915-.3 2.713-.916a4.522 4.522 0 0 0 1.565-2.38H6.922a3.117 3.117 0 0 1-.982 1.148 2.778 2.778 0 0 1-1.482.434c-.765 0-1.413-.283-1.947-.816-.548-.55-.815-1.197-.798-1.963-.017-.765.25-1.415.798-1.962.534-.533 1.182-.816 1.947-.816.533 0 1.016.15 1.482.45.416.282.749.681.982 1.147h1.814c-.267-.965-.783-1.764-1.565-2.378a4.162 4.162 0 0 0-2.713-.933M15.442 5.858c-1.165-.017-1.98.3-2.446.915-.299.383-.449.884-.5 1.515h1.732c.033-.299.133-.5.25-.631.182-.235.481-.352.915-.334.365-.018.649.05.847.166.2.1.284.3.3.583 0 .231-.133.416-.4.532l-1.331.216c-.616.084-1.114.232-1.498.45-.648.382-.964.997-.947 1.88-.017.614.183 1.114.581 1.48.35.3.833.466 1.416.483.948-.017 1.696-.25 2.229-.716v.716h1.732V8.02c0-.832-.302-1.414-.867-1.713-.599-.316-1.264-.467-2.013-.45zm.732 3.91l.333-.182v.699c0 .597-.167 1.013-.482 1.246a1.83 1.83 0 0 1-1.082.35.947.947 0 0 1-.616-.2c-.166-.15-.25-.365-.25-.681 0-.349.134-.6.417-.783.166-.1.449-.183.815-.233l.865-.217zM9.617 13.113h1.731V4.095h-1.73zM22.364 6.109c-.464.182-.88.499-1.231.98v-.882l-1.647-.015v6.921H21.2v-3.31c0-.567.067-.966.217-1.216.115-.265.332-.482.6-.665.298-.2.614-.3.948-.3l.531.034-.015-1.765-.45.034-.667.184z" mask="url(#f)"/>
            </g>
        </g>
    </g>
</svg>
