<svg xmlns="http://www.w3.org/2000/svg" xmlns:xlink="http://www.w3.org/1999/xlink" width="199" height="60" viewBox="0 0 199 60">
    <defs>
        <path id="a" d="M0 1.024h7.773v9.531H0z"/>
        <path id="c" d="M0 10.892h89.653V.949H0z"/>
        <linearGradient id="e" x1="60.944%" x2="26.693%" y1="4.948%" y2="71.907%">
            <stop offset="0%" stop-color="#00A0FF"/>
            <stop offset="1%" stop-color="#00A1FF"/>
            <stop offset="26%" stop-color="#00BEFF"/>
            <stop offset="51%" stop-color="#00D2FF"/>
            <stop offset="76%" stop-color="#00DFFF"/>
            <stop offset="100%" stop-color="#00E3FF"/>
        </linearGradient>
        <linearGradient id="f" x1="107.685%" x2="-130.64%" y1="50%" y2="50%">
            <stop offset="0%" stop-color="#FFE000"/>
            <stop offset="41%" stop-color="#FFBD00"/>
            <stop offset="78%" stop-color="#FFA500"/>
            <stop offset="100%" stop-color="#FF9C00"/>
        </linearGradient>
        <linearGradient id="g" x1="86.219%" x2="-50.15%" y1="30.755%" y2="136.691%">
            <stop offset="0%" stop-color="#FF3A44"/>
            <stop offset="100%" stop-color="#C31162"/>
        </linearGradient>
        <linearGradient id="h" x1="-18.754%" x2="42.121%" y1="-12.337%" y2="34.973%">
            <stop offset="0%" stop-color="#32A071"/>
            <stop offset="7%" stop-color="#2DA771"/>
            <stop offset="48%" stop-color="#15CF74"/>
            <stop offset="80%" stop-color="#06E775"/>
            <stop offset="100%" stop-color="#00F076"/>
        </linearGradient>
    </defs>
    <g fill="none" fill-rule="evenodd">
        <path d="M-14-14h227v88.23H-14z"/>
        <path fill="#000" fill-rule="nonzero" d="M8.645.705h181.71a8 8 0 0 1 8 8v42.82a8 8 0 0 1-8 8H8.645a8 8 0 0 1-8-8V8.705a8 8 0 0 1 8-8z"/>
        <g transform="translate(62.253 11.325)">
            <g transform="translate(0 .13)">
                <mask id="b" fill="#fff">
                    <use xlink:href="#a"/>
                </mask>
                <path fill="#FFF" d="M6.26 5.79c0 1.051-.297 1.877-.883 2.453-.588.578-1.401.872-2.415.872H1.486v-6.65h1.476c1.014 0 1.825.295 2.413.877.588.581.885 1.405.885 2.448M2.962 1.024H0v9.531h2.962c1.447 0 2.625-.446 3.497-1.328.871-.88 1.314-2.035 1.314-3.437 0-1.402-.443-2.558-1.314-3.438-.872-.882-2.05-1.328-3.497-1.328" mask="url(#b)"/>
            </g>
            <mask id="d" fill="#fff">
                <use xlink:href="#c"/>
            </mask>
            <path fill="#FFF" d="M9.123 10.686h1.487V1.155H9.123zM17.364 5.918a5.348 5.348 0 0 0-.95-.563 11.17 11.17 0 0 0-1.15-.431c-.55-.182-.973-.386-1.255-.61-.26-.21-.385-.454-.385-.751 0-.332.137-.601.422-.825.291-.231.65-.348 1.066-.348.44 0 .805.114 1.078.338.277.226.451.474.52.732l.046.17 1.367-.571-.043-.134c-.153-.492-.49-.947-1-1.357-.512-.41-1.183-.62-1.993-.62-.874 0-1.595.261-2.145.776-.55.518-.831 1.136-.831 1.839 0 .675.226 1.238.675 1.676.435.422 1.078.771 1.91 1.034.768.235 1.331.49 1.679.755.324.25.482.6.482 1.068 0 .419-.158.738-.482.98-.334.249-.746.375-1.223.375-.461 0-.867-.159-1.242-.484a2.337 2.337 0 0 1-.74-1.204l-.042-.17-1.365.554.033.13c.203.823.646 1.474 1.313 1.932.66.453 1.347.682 2.043.682a3.796 3.796 0 0 0 2.145-.656c.324-.222.587-.523.78-.893.195-.372.294-.8.294-1.27 0-.467-.085-.886-.252-1.244a2.353 2.353 0 0 0-.755-.91M24.556 4.053c0 .367-.133.696-.408 1.005-.271.303-.625.45-1.08.45h-1.823V2.597h1.823c.455 0 .809.147 1.08.452.275.309.408.638.408 1.005m-1.514-2.898h-3.284v9.531h1.487V6.951h1.797c.815 0 1.53-.277 2.124-.82.6-.547.903-1.246.903-2.078 0-.833-.303-1.533-.903-2.078a3.052 3.052 0 0 0-2.124-.82M34.91 5.92c0 1.026-.327 1.88-.977 2.54-.646.658-1.448.99-2.386.99-.937 0-1.74-.332-2.386-.99-.647-.66-.977-1.514-.977-2.54 0-1.025.33-1.88.977-2.54.646-.657 1.449-.99 2.386-.99.938 0 1.74.333 2.386.99.65.66.977 1.515.977 2.54M31.547.95c-1.38 0-2.55.486-3.477 1.445-.927.956-1.397 2.141-1.397 3.526 0 1.386.47 2.57 1.397 3.527.927.958 2.097 1.445 3.477 1.445s2.55-.487 3.478-1.445c.926-.958 1.396-2.145 1.396-3.527 0-1.375-.471-2.56-1.402-3.521-.934-.963-2.102-1.45-3.472-1.45M43.674 6.71l.035 1.297-4.262-6.852h-1.675v9.531h1.487V4.783l-.039-1.296 4.425 7.127.046.072h1.47v-9.53h-1.487zM46.958 10.686h1.485V1.155h-1.485zM54.938 8.819c-.255.287-.578.426-.989.426h-2.223v-2.72h2.17c.432 0 .767.138 1.03.421.267.286.397.592.397.932 0 .343-.126.652-.385.94m-.263-4.102c-.239.264-.553.393-.958.393h-1.99V2.596h2.042c.386 0 .686.127.918.387.238.265.352.547.352.864 0 .315-.119.6-.364.869m.763 1.034c.292-.173.532-.403.722-.684.244-.358.366-.778.366-1.245 0-.764-.282-1.407-.839-1.912a2.86 2.86 0 0 0-1.97-.754h-3.474v9.531h3.653c.788 0 1.482-.265 2.059-.787.585-.527.879-1.197.879-1.995a2.26 2.26 0 0 0-.467-1.408 2.488 2.488 0 0 0-.93-.746M59.605 1.155H58.12v9.53h5.462v-1.44h-3.977zM64.766 10.686h5.668v-1.44H66.25V6.628h3.772V5.212h-3.772V2.595h4.183v-1.44h-5.668zM75.056 10.686h5.667v-1.44h-4.182V6.628h3.772V5.212h-3.772V2.595h4.182v-1.44h-5.667zM88.166 1.155V6.71l.036 1.298-4.263-6.853h-1.673v9.53h1.483V4.784l-.035-1.296 4.423 7.127.046.072h1.47V1.155z" mask="url(#d)"/>
        </g>
        <path fill="#A6A6A6" fill-rule="nonzero" d="M191.032 1.881c3.397 0 6.151 2.765 6.151 6.176v44.115c0 3.411-2.754 6.176-6.15 6.176H7.967c-3.397 0-6.151-2.765-6.151-6.176V8.057c0-3.41 2.754-6.176 6.15-6.176h183.065zm0-1.176H7.968C3.924.705.645 3.997.645 8.057v44.115c0 4.061 3.279 7.353 7.323 7.353h183.064c4.044 0 7.323-3.292 7.323-7.353V8.057c0-4.06-3.279-7.352-7.323-7.352z"/>
        <path fill="#FFF" fill-rule="nonzero" d="M100.437 32.688c-3.433.016-6.205 2.822-6.195 6.27.011 3.447 2.8 6.235 6.234 6.23 3.434-.006 6.215-2.802 6.215-6.25a6.174 6.174 0 0 0-1.807-4.456 6.123 6.123 0 0 0-4.447-1.794zm0 10.044a3.776 3.776 0 0 1-3.673-2.15 3.806 3.806 0 0 1 .643-4.219 3.768 3.768 0 0 1 4.145-.948 3.794 3.794 0 0 1 2.4 3.523 3.626 3.626 0 0 1-.96 2.641 3.596 3.596 0 0 1-2.555 1.153zM86.803 32.688c-3.436.008-6.215 2.81-6.21 6.26.005 3.45 2.794 6.242 6.23 6.24 3.435-.003 6.218-2.8 6.218-6.25a6.174 6.174 0 0 0-1.806-4.456 6.123 6.123 0 0 0-4.447-1.794h.015zm0 10.044a3.776 3.776 0 0 1-3.683-2.138 3.806 3.806 0 0 1 .633-4.224 3.768 3.768 0 0 1 4.146-.956 3.794 3.794 0 0 1 2.404 3.524 3.626 3.626 0 0 1-.96 2.641 3.596 3.596 0 0 1-2.555 1.153h.015zM70.56 34.615v2.646h6.327a5.555 5.555 0 0 1-1.465 3.339 6.46 6.46 0 0 1-4.876 1.94c-3.883 0-7.03-3.16-7.03-7.058 0-3.898 3.147-7.058 7.03-7.058a6.722 6.722 0 0 1 4.788 1.897l1.86-1.868a9.193 9.193 0 0 0-6.634-2.75 9.671 9.671 0 0 0-8.696 4.744 9.754 9.754 0 0 0 0 9.938 9.671 9.671 0 0 0 8.696 4.744 8.769 8.769 0 0 0 6.752-2.72 8.844 8.844 0 0 0 2.284-6.206 8.666 8.666 0 0 0-.146-1.662l-8.89.074zm66.357 2.058a5.861 5.861 0 0 0-5.33-3.985 5.847 5.847 0 0 0-4.278 1.85 5.896 5.896 0 0 0-1.58 4.4 6.13 6.13 0 0 0 1.767 4.443 6.08 6.08 0 0 0 4.413 1.806 6.188 6.188 0 0 0 5.184-2.764l-2.123-1.47a3.556 3.556 0 0 1-3.061 1.735 3.162 3.162 0 0 1-3.017-1.897l8.333-3.456-.308-.662zm-8.494 2.088c-.06-.918.251-1.823.863-2.509a3.407 3.407 0 0 1 2.388-1.137 2.415 2.415 0 0 1 2.314 1.323l-5.565 2.323zm-6.766 6.059h2.739V26.439h-2.739v18.38zm-4.481-10.735h-.103a4.386 4.386 0 0 0-3.28-1.47c-3.325.162-5.937 2.915-5.937 6.257 0 3.341 2.612 6.095 5.937 6.257a4.24 4.24 0 0 0 3.28-1.47h.088v.896c0 2.397-1.274 3.676-3.324 3.676a3.442 3.442 0 0 1-3.134-2.22l-2.388 1a5.931 5.931 0 0 0 5.522 3.69c3.207 0 5.858-1.896 5.858-6.513V33.056h-2.52v1.03zm-3.134 8.647a3.803 3.803 0 0 1-3.46-3.794 3.803 3.803 0 0 1 3.46-3.794 3.51 3.51 0 0 1 2.458 1.193c.626.715.938 1.652.866 2.6.08.954-.23 1.898-.861 2.615a3.48 3.48 0 0 1-2.478 1.18h.015zm35.705-16.293H143.2v18.38h2.739v-6.97h3.822a5.69 5.69 0 0 0 5.273-2.727 5.74 5.74 0 0 0 0-5.956 5.69 5.69 0 0 0-5.273-2.727h-.014zm0 8.823h-3.823v-6.265h3.881a3.148 3.148 0 0 1 3.142 3.155 3.148 3.148 0 0 1-3.142 3.154l-.058-.044zm16.885-2.647a5.122 5.122 0 0 0-4.876 2.808l2.43 1.015a2.59 2.59 0 0 1 2.49-1.353 2.629 2.629 0 0 1 1.96.567c.55.446.9 1.094.97 1.8v.192a6.029 6.029 0 0 0-2.856-.706c-2.622 0-5.273 1.47-5.273 4.132a4.257 4.257 0 0 0 1.42 2.985 4.222 4.222 0 0 0 3.12 1.059 3.847 3.847 0 0 0 3.515-1.765h.088v1.47h2.636v-7.072c0-3.22-2.43-5.088-5.55-5.088l-.074-.044zm-.336 10.073c-.894 0-2.139-.456-2.139-1.56 0-1.47 1.553-1.955 2.93-1.955.87-.021 1.73.192 2.49.618a3.315 3.315 0 0 1-3.208 2.94l-.073-.043zm15.567-9.632l-3.134 7.97h-.088l-3.25-7.97h-2.93l4.877 11.146-2.783 6.191h2.856l7.499-17.337h-3.047zM157.246 44.82h2.739V26.439h-2.74v18.38z"/>
        <path fill="url(#e)" fill-rule="nonzero" d="M29.935 25.792a2.949 2.949 0 0 0-.674 2.06v32.527a2.949 2.949 0 0 0 .674 2.058l.102.103 18.146-18.205v-.426l-18.146-18.22-.102.103z" transform="translate(-14 -14)"/>
        <path fill="url(#f)" fill-rule="nonzero" d="M54.187 50.409l-6.004-6.074v-.426l6.004-6.088.132.074 7.19 4.102c2.051 1.162 2.051 3.074 0 4.25l-7.16 4.088-.162.074z" transform="translate(-14 -14)"/>
        <path fill="url(#g)" fill-rule="nonzero" d="M54.363 50.32l-6.18-6.205-18.248 18.322a2.38 2.38 0 0 0 3.046.088L54.377 50.32" transform="translate(-14 -14)"/>
        <path fill="url(#h)" fill-rule="nonzero" d="M54.363 37.91L32.966 25.703a2.38 2.38 0 0 0-3.046.088l18.263 18.323 6.18-6.206z" transform="translate(-14 -14)"/>
        <path fill="#000" fill-rule="nonzero" d="M40.187 36.188L18.967 48.32a2.438 2.438 0 0 1-2.93 0l-.102.103.102.102a2.423 2.423 0 0 0 2.93 0L40.362 36.32l-.176-.132z" opacity=".2"/>
        <path fill="#000" fill-rule="nonzero" d="M15.935 48.231a2.949 2.949 0 0 1-.674-2.058v.22a2.949 2.949 0 0 0 .674 2.059l.102-.103-.102-.118zM47.51 32.027l-7.323 4.161.132.132 7.19-4.088a2.573 2.573 0 0 0 1.465-2.117 2.734 2.734 0 0 1-1.464 1.912z" opacity=".12"/>
        <path fill="#FFF" fill-rule="nonzero" d="M18.966 11.91L47.51 28.203a2.734 2.734 0 0 1 1.464 1.912 2.573 2.573 0 0 0-1.464-2.118L18.966 11.704c-2.05-1.161-3.72-.19-3.72 2.162v.22c.044-2.367 1.685-3.338 3.72-2.176z" opacity=".25"/>
    </g>
</svg>
