<svg xmlns="http://www.w3.org/2000/svg" width="174" height="58" viewBox="0 0 174 58">
    <g fill="none" fill-rule="nonzero">
        <path fill="#A6A6A6" d="M159.695 0H13.825c-.531 0-1.057 0-1.587.003-.444.003-.884.011-1.333.018C9.932.033 8.96.118 8 .278c-.96.162-1.889.469-2.756.909a9.335 9.335 0 0 0-2.348 1.709 9.075 9.075 0 0 0-1.708 2.35c-.44.869-.746 1.8-.906 2.76a18.84 18.84 0 0 0-.26 2.903c-.013.445-.015.89-.022 1.335V45.76c.007.45.009.886.022 1.337.011.973.098 1.943.26 2.902.16.962.465 1.893.906 2.762a9.001 9.001 0 0 0 1.708 2.34 9.098 9.098 0 0 0 2.348 1.71c.867.44 1.796.75 2.756.914.96.158 1.932.244 2.905.257.449.01.889.015 1.333.015.53.003 1.056.003 1.587.003h145.87c.522 0 1.051 0 1.572-.003.442 0 .895-.006 1.337-.015a19.255 19.255 0 0 0 2.9-.257 9.866 9.866 0 0 0 2.767-.914 9.102 9.102 0 0 0 2.345-1.71 9.272 9.272 0 0 0 1.713-2.34c.438-.87.74-1.8.898-2.762.162-.96.251-1.93.269-2.902.006-.45.006-.887.006-1.337.01-.527.01-1.05.01-1.586V13.827c0-.53 0-1.057-.01-1.583 0-.444 0-.89-.006-1.335a19.585 19.585 0 0 0-.27-2.903 9.596 9.596 0 0 0-.897-2.76 9.376 9.376 0 0 0-4.058-4.06 9.813 9.813 0 0 0-2.767-.909 18.914 18.914 0 0 0-2.9-.256c-.442-.007-.895-.015-1.337-.018-.52-.003-1.05-.003-1.572-.003z"/>
        <path fill="#000" d="M12.245 56.731c-.442 0-.873-.005-1.311-.015a18.396 18.396 0 0 1-2.71-.237 8.532 8.532 0 0 1-2.403-.794 7.838 7.838 0 0 1-2.025-1.474c-.6-.59-1.1-1.274-1.48-2.025a8.297 8.297 0 0 1-.787-2.403 18 18 0 0 1-.242-2.719c-.01-.306-.021-1.324-.021-1.324V12.244s.013-1.002.021-1.297c.011-.91.091-1.817.24-2.714a8.345 8.345 0 0 1 .788-2.41 7.792 7.792 0 0 1 1.472-2.027 8.07 8.07 0 0 1 2.034-1.483 8.443 8.443 0 0 1 2.397-.789 18.25 18.25 0 0 1 2.72-.238l1.308-.017H161.26l1.324.018c.903.01 1.804.09 2.695.236a8.61 8.61 0 0 1 2.423.794 8.11 8.11 0 0 1 3.501 3.51c.378.752.64 1.559.776 2.39.15.905.235 1.82.252 2.737.005.41.005.851.005 1.29.011.544.011 1.062.011 1.583v30.347c0 .527 0 1.04-.011 1.559 0 .472 0 .903-.006 1.348-.017.9-.1 1.799-.248 2.688-.135.842-.4 1.659-.783 2.421a7.946 7.946 0 0 1-1.472 2.01c-.593.6-1.278 1.1-2.03 1.482a8.5 8.5 0 0 1-2.418.797c-.896.147-1.802.226-2.71.237-.425.01-.87.015-1.302.015l-1.572.003-147.45-.003z"/>
        <g fill="#FFF">
            <path d="M35.915 29.436a7.176 7.176 0 0 1 3.417-6.02 7.345 7.345 0 0 0-5.787-3.13c-2.435-.255-4.796 1.458-6.036 1.458-1.265 0-3.176-1.432-5.233-1.39a7.707 7.707 0 0 0-6.486 3.956c-2.804 4.855-.712 11.99 1.974 15.915 1.344 1.922 2.915 4.069 4.97 3.993 2.011-.084 2.763-1.283 5.19-1.283 2.406 0 3.11 1.283 5.207 1.234 2.158-.035 3.518-1.93 4.815-3.87a15.895 15.895 0 0 0 2.202-4.484 6.934 6.934 0 0 1-4.233-6.379zM31.954 17.706a7.065 7.065 0 0 0 1.616-5.062 7.188 7.188 0 0 0-4.65 2.407 6.723 6.723 0 0 0-1.66 4.874 5.944 5.944 0 0 0 4.694-2.22z"/>
            <g>
                <path d="M61.338 39.352h-6.863l-1.648 4.867H49.92l6.5-18.006h3.02l6.502 18.006h-2.957l-1.647-4.867zm-6.152-2.245h5.44l-2.682-7.899h-.075l-2.683 7.899zM79.982 37.656c0 4.08-2.184 6.7-5.479 6.7a4.45 4.45 0 0 1-4.13-2.296h-.063v6.502h-2.695v-17.47h2.609v2.183h.05a4.657 4.657 0 0 1 4.18-2.32c3.331 0 5.528 2.633 5.528 6.701zm-2.77 0c0-2.658-1.374-4.405-3.47-4.405-2.058 0-3.443 1.784-3.443 4.405 0 2.645 1.385 4.417 3.444 4.417 2.095 0 3.469-1.735 3.469-4.417zM94.43 37.656c0 4.08-2.183 6.7-5.478 6.7a4.45 4.45 0 0 1-4.13-2.296h-.063v6.502h-2.695v-17.47h2.609v2.183h.05a4.657 4.657 0 0 1 4.18-2.32c3.331 0 5.528 2.633 5.528 6.701zm-2.77 0c0-2.658-1.373-4.405-3.468-4.405-2.06 0-3.444 1.784-3.444 4.405 0 2.645 1.385 4.417 3.444 4.417 2.095 0 3.469-1.735 3.469-4.417zM103.98 39.202c.2 1.786 1.934 2.958 4.305 2.958 2.271 0 3.905-1.172 3.905-2.782 0-1.398-.985-2.235-3.319-2.808l-2.333-.562c-3.307-.799-4.842-2.345-4.842-4.854 0-3.107 2.708-5.241 6.552-5.241 3.805 0 6.413 2.134 6.501 5.24h-2.72c-.163-1.796-1.648-2.88-3.82-2.88-2.17 0-3.655 1.097-3.655 2.694 0 1.273.948 2.022 3.27 2.595l1.983.487c3.694.874 5.23 2.358 5.23 4.992 0 3.369-2.684 5.478-6.952 5.478-3.993 0-6.69-2.06-6.863-5.317h2.758zM120.852 27.985v3.106h2.496v2.134h-2.496v7.238c0 1.124.5 1.648 1.597 1.648a8.42 8.42 0 0 0 .887-.062v2.12a7.4 7.4 0 0 1-1.497.125c-2.658 0-3.694-.998-3.694-3.544v-7.525h-1.91v-2.134h1.91v-3.106h2.707zM124.794 37.656c0-4.13 2.433-6.726 6.226-6.726 3.807 0 6.228 2.596 6.228 6.726 0 4.142-2.409 6.726-6.228 6.726-3.817 0-6.226-2.584-6.226-6.726zm9.708 0c0-2.833-1.298-4.506-3.482-4.506-2.183 0-3.48 1.685-3.48 4.506 0 2.845 1.297 4.504 3.48 4.504 2.184 0 3.482-1.66 3.482-4.504zM139.47 31.091h2.57v2.235h.062a3.131 3.131 0 0 1 3.158-2.372c.31-.001.62.033.923.1v2.521a3.767 3.767 0 0 0-1.21-.163 2.715 2.715 0 0 0-2.809 3.02v7.787h-2.694V31.091zM158.607 40.364c-.362 2.383-2.683 4.018-5.653 4.018-3.818 0-6.189-2.559-6.189-6.664 0-4.117 2.383-6.788 6.076-6.788 3.632 0 5.916 2.495 5.916 6.475v.924h-9.272v.163a3.42 3.42 0 0 0 3.532 3.718 2.97 2.97 0 0 0 3.032-1.846h2.558zm-9.109-3.919h6.563a3.157 3.157 0 0 0-3.22-3.331 3.323 3.323 0 0 0-3.343 3.331z"/>
            </g>
        </g>
        <g fill="#FFF">
            <path d="M51.444 16.793c0-2.829 1.49-4.576 3.89-4.576 1.792-.09 3.354 1.225 3.59 3.023H57.59a2.225 2.225 0 0 0-2.256-1.76c-1.55 0-2.52 1.276-2.52 3.313 0 2.03.97 3.305 2.526 3.305a2.166 2.166 0 0 0 2.25-1.607h1.335c-.27 1.756-1.832 3.006-3.585 2.87-2.4 0-3.895-1.746-3.895-4.568zM60.391 17.857a3.128 3.128 0 0 1 1.446-2.946 3.061 3.061 0 0 1 3.255 0 3.128 3.128 0 0 1 1.445 2.946 3.129 3.129 0 0 1-1.443 2.95 3.062 3.062 0 0 1-3.26 0 3.129 3.129 0 0 1-1.443-2.95zm4.824 0c0-1.427-.635-2.261-1.749-2.261-1.117 0-1.746.834-1.746 2.26 0 1.439.629 2.267 1.746 2.267 1.114 0 1.749-.834 1.749-2.266zM68.263 14.569h1.238v1.045h.096a1.949 1.949 0 0 1 1.945-1.172c.642-.049 1.272.2 1.71.676.44.476.64 1.128.545 1.772v4.26h-1.286v-3.934c0-1.058-.455-1.584-1.406-1.584a1.487 1.487 0 0 0-1.157.473c-.3.32-.445.757-.399 1.195v3.85h-1.286V14.57zM78.169 14.442c1.465 0 2.423.689 2.55 1.849h-1.235c-.118-.483-.586-.792-1.315-.792-.718 0-1.264.344-1.264.858 0 .394.33.641 1.036.805l1.083.253c1.24.29 1.82.829 1.82 1.796 0 1.239-1.143 2.066-2.7 2.066-1.55 0-2.56-.707-2.675-1.873h1.288c.228.571.814.91 1.417.821.802 0 1.371-.362 1.371-.888 0-.393-.305-.647-.958-.804l-1.136-.266c-1.24-.296-1.813-.858-1.813-1.837 0-1.167 1.058-1.988 2.53-1.988zM82.468 13.468l1.502-2.079h1.508l-1.682 2.08h-1.328zm.133 1.1h1.28v6.582h-1.28V14.57zM85.884 21.81h1.315c.11.477.653.785 1.521.785 1.071 0 1.706-.514 1.706-1.384v-1.263h-.096a2.187 2.187 0 0 1-2.011 1.105c-1.664 0-2.693-1.299-2.693-3.269 0-2.007 1.04-3.324 2.705-3.324a2.254 2.254 0 0 1 2.047 1.16h.102V14.57h1.232v6.636c0 1.505-1.167 2.46-3.01 2.46-1.628 0-2.681-.737-2.818-1.856zm4.566-4.032c0-1.312-.671-2.151-1.767-2.151-1.106 0-1.728.84-1.728 2.15 0 1.312.622 2.152 1.728 2.152 1.103 0 1.767-.833 1.767-2.151zM99.255 21.15h-1.24v-1.045h-.1a1.952 1.952 0 0 1-1.97 1.172 2.106 2.106 0 0 1-1.699-.675 2.152 2.152 0 0 1-.546-1.76v-4.273h1.289v3.934c0 1.064.424 1.572 1.37 1.572.443.042.882-.12 1.195-.441.312-.321.464-.768.414-1.216v-3.85h1.287v6.582zM106.815 19.373a2.646 2.646 0 0 1-2.824 1.904 2.946 2.946 0 0 1-2.284-.994 3.01 3.01 0 0 1-.726-2.403 3.056 3.056 0 0 1 .725-2.411 2.993 2.993 0 0 1 2.28-1.027c1.813 0 2.907 1.25 2.907 3.318v.453h-4.602v.073c-.04.488.124.971.455 1.33.33.36.795.56 1.28.555a1.558 1.558 0 0 0 1.55-.798h1.239zm-4.524-2.12h3.291a1.597 1.597 0 0 0-.428-1.212 1.565 1.565 0 0 0-1.176-.494 1.658 1.658 0 0 0-1.2.493 1.692 1.692 0 0 0-.487 1.212zM108.679 12h1.286v9.15h-1.286zM111.753 17.857a3.128 3.128 0 0 1 1.445-2.946 3.061 3.061 0 0 1 3.256 0 3.128 3.128 0 0 1 1.445 2.946 3.129 3.129 0 0 1-1.444 2.95 3.062 3.062 0 0 1-3.259 0 3.129 3.129 0 0 1-1.443-2.95zm4.823 0c0-1.427-.634-2.261-1.748-2.261-1.118 0-1.747.834-1.747 2.26 0 1.439.63 2.267 1.747 2.267 1.114 0 1.748-.834 1.748-2.266zM128.67 19.373a2.646 2.646 0 0 1-2.823 1.904 2.946 2.946 0 0 1-2.283-.994 3.01 3.01 0 0 1-.727-2.403 3.056 3.056 0 0 1 .725-2.411 2.993 2.993 0 0 1 2.28-1.027c1.813 0 2.907 1.25 2.907 3.318v.453h-4.602v.073c-.04.488.125.971.455 1.33.33.36.795.56 1.28.555a1.558 1.558 0 0 0 1.55-.798h1.239zm-4.523-2.12h3.292a1.597 1.597 0 0 0-.429-1.212 1.565 1.565 0 0 0-1.175-.494 1.658 1.658 0 0 0-1.2.493 1.692 1.692 0 0 0-.488 1.212zM130.476 14.569h1.238v1.045h.096a1.949 1.949 0 0 1 1.944-1.172c.643-.049 1.272.2 1.71.676.44.476.64 1.128.546 1.772v4.26h-1.286v-3.934c0-1.058-.455-1.584-1.406-1.584a1.487 1.487 0 0 0-1.158.473c-.299.32-.444.757-.398 1.195v3.85h-1.286V14.57zM147.045 19.373a2.646 2.646 0 0 1-2.824 1.904 2.946 2.946 0 0 1-2.284-.994 3.01 3.01 0 0 1-.726-2.403 3.056 3.056 0 0 1 .725-2.411 2.993 2.993 0 0 1 2.28-1.027c1.813 0 2.907 1.25 2.907 3.318v.453h-4.602v.073c-.04.488.124.971.455 1.33.33.36.795.56 1.28.555a1.558 1.558 0 0 0 1.55-.798h1.239zm-4.524-2.12h3.291a1.597 1.597 0 0 0-.428-1.212 1.565 1.565 0 0 0-1.176-.494 1.658 1.658 0 0 0-1.2.493 1.692 1.692 0 0 0-.487 1.212zM148.909 12h1.286v9.15h-1.286z"/>
        </g>
    </g>
</svg>
