<svg xmlns="http://www.w3.org/2000/svg" width="38" height="38" viewBox="0 0 38 38">
    <g fill="none" fill-rule="nonzero">
        <path fill="#1877F2" d="M37.204 18.601C37.204 8.331 28.874 0 18.601 0 8.331 0 0 8.329 0 18.601c0 9.286 6.802 16.981 15.695 18.377v-13h-4.724V18.6h4.724v-4.098c0-4.662 2.777-7.239 7.026-7.239 2.036 0 4.166.365 4.166.365v4.577h-2.348c-2.312 0-3.033 1.436-3.033 2.905v3.49h5.16l-.826 5.377h-4.334v13C30.4 35.58 37.203 27.885 37.203 18.6"/>
        <path fill="#FFF" d="M25.843 23.979l.825-5.378h-5.16v-3.49c0-1.47.72-2.904 3.032-2.904h2.345V7.63s-2.128-.364-4.164-.364c-4.249 0-7.026 2.574-7.026 7.239V18.6h-4.724v5.378h4.724v13c1.926.302 3.887.302 5.813 0V23.976h4.335v.002z"/>
    </g>
</svg>
