<svg xmlns="http://www.w3.org/2000/svg" width="59" height="65" viewBox="0 0 59 65">
    <g fill="none" fill-rule="evenodd" stroke="#FFF">
        <path fill="#006896" d="M18.698 11.122c0 .604-.237 1.148-.704 1.615-.467.467-1.01.704-1.615.704s-1.148-.237-1.615-.704c-.467-.467-.704-1.01-.704-1.615V6.484c0-.605.237-1.148.704-1.615.467-.467 1.01-.704 1.615-.704.625 0 1.223.257 1.601.689l.014.015c.467.467.704 1.01.704 1.615v4.638zm-6.136 3.816c1.003 1.002 2.358 1.554 3.817 1.554s2.814-.552 3.816-1.554c1.002-1.002 1.554-2.357 1.554-3.816v-.793h15.562v.793c0 1.459.552 2.814 1.554 3.816 1.002 1.002 2.358 1.554 3.817 1.554 1.458 0 2.814-.552 3.816-1.554 1.002-1.002 1.554-2.357 1.554-3.816v-.793h2.014a4.98 4.98 0 0 1 3.446 1.436 4.98 4.98 0 0 1 1.436 3.446v6.346H4.112v-6.346a4.98 4.98 0 0 1 1.437-3.446 4.98 4.98 0 0 1 3.446-1.436h2.013v.793c0 1.459.552 2.814 1.554 3.816zm32.377-3.816c0 .604-.237 1.148-.704 1.615-.467.467-1.01.704-1.615.704-.604 0-1.147-.237-1.615-.704-.467-.467-.704-1.01-.704-1.615V6.484c0-.605.237-1.148.704-1.615.468-.467 1.01-.704 1.615-.704s1.148.237 1.615.704c.467.467.704 1.01.704 1.615v4.638zm9.948 13.487V56.22a4.98 4.98 0 0 1-1.436 3.445 4.98 4.98 0 0 1-3.446 1.437H8.995a4.979 4.979 0 0 1-3.446-1.437 4.979 4.979 0 0 1-1.437-3.445V24.609h50.775zm.765-14.985a7.939 7.939 0 0 0-5.647-2.347H47.99v-.793c0-1.46-.552-2.815-1.554-3.817-1.002-1.002-2.358-1.554-3.817-1.554s-2.814.552-3.816 1.554C37.802 3.67 37.25 5.025 37.25 6.484v.793h-15.5v-.793c0-1.46-.553-2.815-1.555-3.817-1.002-1.002-2.357-1.554-3.816-1.554-1.46 0-2.814.552-3.817 1.554-1.002 1.002-1.554 2.358-1.554 3.817v.793H8.995c-2.1 0-4.105.81-5.648 2.286A7.938 7.938 0 0 0 1 15.211v41.07c0 2.129.834 4.134 2.347 5.648a7.939 7.939 0 0 0 5.648 2.347h41.01a7.939 7.939 0 0 0 5.647-2.347 7.938 7.938 0 0 0 2.347-5.647v-41.01a7.938 7.938 0 0 0-2.347-5.648z"/>
        <path fill="#DA272C" d="M13.31 53.259h6.316v-6.316H13.31v6.316zm0-8.703h6.316V38.24H13.31v6.316zm0-8.703h6.316v-6.316H13.31v6.316zm8.703 17.406h6.316v-6.316h-6.316v6.316zm0-8.703h6.316V38.24h-6.316v6.316zm0-8.703h6.316v-6.316h-6.316v6.316zm8.703 17.406h6.316v-6.316h-6.316v6.316zm0-8.703h6.316V38.24h-6.316v6.316zm0-8.703h6.316v-6.316h-6.316v6.316zm8.703 17.406h6.316v-6.316h-6.316v6.316zm0-8.703h6.316V38.24h-6.316v6.316zm0-8.703h6.316v-6.316h-6.316v6.316zM13.552 55.646h32.222a2.348 2.348 0 0 0 2.348-2.348v-24.2a1.948 1.948 0 0 0-1.948-1.948H13.652a2.729 2.729 0 0 0-2.73 2.728v23.138a2.63 2.63 0 0 0 2.63 2.63z"/>
    </g>
</svg>
