<svg xmlns="http://www.w3.org/2000/svg" width="484" height="60" viewBox="0 0 484 60">
    <g fill="none" fill-rule="evenodd" transform="translate(-2)">
        <path fill="#D54537" d="M21.848 0h457.95a6 6 0 0 1 5.765 7.666l-13.87 48A6 6 0 0 1 465.93 60H7.98a6 6 0 0 1-5.764-7.666l13.87-48A6 6 0 0 1 21.847 0z"/>
        <circle cx="168.889" cy="33.333" r="3.333" fill="#FFF"/>
        <circle cx="340" cy="33.333" r="3.333" fill="#FFF"/>
        <g fill="#FFF" fill-rule="nonzero">
            <path d="M46.698 25.431h-4.96v15.68H38.03v-15.68h-4.96v-3.307h13.627v3.307zm15.52 15.68H49.71V22.124h12.507v3.307h-8.8v4.453h7.493v3.307h-7.493v4.613h8.8v3.307zm18.16 0H77.07l-7.52-11.653V41.11h-3.707V22.124h3.307l7.52 11.627V22.124h3.707v18.987zm16.933 0H84.804V22.124h12.507v3.307h-8.8v4.453h7.493v3.307h-7.493v4.613h8.8v3.307zm20.827 0h-3.707V30.044l-3.627 7.2h-2.506l-3.654-7.2v11.067h-3.706V22.124h3.653l4.96 10.267 4.933-10.267h3.654v18.987zm17.813-9.493c0 3.28.027 5.653-1.893 7.573-1.334 1.333-2.96 2.08-5.12 2.08s-3.814-.747-5.147-2.08c-1.92-1.92-1.867-4.293-1.867-7.573 0-3.28-.053-5.654 1.867-7.574 1.333-1.333 2.987-2.08 5.147-2.08s3.786.747 5.12 2.08c1.92 1.92 1.893 4.294 1.893 7.574zm-3.707 0c0-3.654-.213-4.534-.933-5.334-.533-.613-1.36-1.013-2.373-1.013-1.014 0-1.867.4-2.4 1.013-.72.8-.907 1.68-.907 5.334 0 3.653.187 4.533.907 5.333.533.613 1.386 1.013 2.4 1.013 1.013 0 1.84-.4 2.373-1.013.72-.8.933-1.68.933-5.333zm19.76 3.893c0 3.68-3.066 5.76-7.04 5.76-2.88 0-5.066-.613-6.933-2.507l2.4-2.4c1.2 1.2 2.827 1.6 4.587 1.6 2.186 0 3.36-.826 3.36-2.346 0-.667-.187-1.227-.587-1.6-.373-.347-.8-.534-1.68-.667l-2.293-.32c-1.627-.24-2.827-.747-3.68-1.573-.907-.907-1.36-2.134-1.36-3.734 0-3.386 2.506-5.76 6.613-5.76 2.613 0 4.507.64 6.133 2.214l-2.346 2.32c-1.2-1.147-2.64-1.307-3.894-1.307-1.973 0-2.933 1.093-2.933 2.4 0 .48.16.987.56 1.36.373.347.987.64 1.76.747l2.24.32c1.733.24 2.827.72 3.627 1.466 1.013.96 1.466 2.347 1.466 4.027zM372.071 28.044c0 3.227-2.347 5.92-6.267 5.92h-3.653v7.147h-3.707V22.124h7.36c3.92 0 6.267 2.694 6.267 5.92zm-3.707 0c0-1.546-1.066-2.613-2.746-2.613h-3.467v5.2h3.467c1.68 0 2.746-1.04 2.746-2.587zm20.16 13.067h-3.866l-1.12-3.36h-6.747l-1.147 3.36h-3.866l6.906-18.987h2.907l6.933 18.987zm-5.973-6.48l-2.32-6.907-2.4 6.907h4.72zm22.693 6.48h-4.293l-3.707-7.573h-2.666v7.573h-3.707V22.124h7.44c3.867 0 6.16 2.64 6.16 5.814 0 2.666-1.627 4.32-3.467 4.986l4.24 8.187zm-4.48-13.173c0-1.467-1.066-2.507-2.693-2.507h-3.493v5.013h3.493c1.627 0 2.693-1.04 2.693-2.506zm22.214 13.173h-3.867l-1.12-3.36h-6.747l-1.146 3.36h-3.867l6.907-18.987h2.906l6.934 18.987zm-5.974-6.48l-2.32-6.907-2.4 6.907h4.72zm26.72-9.2h-4.96v15.68h-3.706v-15.68h-4.96v-3.307h13.626v3.307zm6.72 15.68h-3.706V22.124h3.706v18.987zM207.691 46.667h-20.206v-5.46l12.413-14.42c1.213-1.447 1.727-2.474 1.727-4.014 0-2.473-1.447-4.153-4.014-4.153-2.006 0-4.06 1.027-4.06 4.247h-6.066c0-6.067 4.433-9.707 10.126-9.707 5.88 0 10.08 3.687 10.08 9.66 0 3.22-1.26 4.947-3.546 7.607l-9.287 10.78h12.833v5.46zm25.154-9.614c0 6.347-4.667 9.894-10.08 9.894-5.414 0-10.127-3.547-10.127-9.894v-14c0-6.346 4.713-9.893 10.127-9.893 5.413 0 10.08 3.547 10.08 9.893v14zm-6.067-.046v-13.86c0-2.8-1.633-4.527-4.013-4.527s-4.06 1.727-4.06 4.527v13.86c0 2.8 1.68 4.48 4.06 4.48s4.013-1.68 4.013-4.48zm42.237 9.66h-7.56l-8.54-15.12-4.293 5.133v9.987h-6.487V13.44h6.487v14.467l11.713-14.467h7.887L257.21 26.647l11.806 20.02zm9.8-28.467h-6.206v-4.947h6.206V18.2zm-.046 28.467h-6.067V22.353h6.067v24.314zm17.686 0h-3.313c-4.947 0-7.047-3.5-7.047-6.954v-12.04h-2.566v-4.62h2.566v-7.186h6.067v7.186h4.293v4.62h-4.293V39.34c0 1.4.653 2.193 2.1 2.193h2.193v5.134zm23.8-7.654c0 5.367-4.573 7.934-10.313 7.934-3.827 0-7.28-.42-10.36-3.5l3.967-3.967c2.006 2.007 4.62 2.287 6.486 2.287 2.1 0 4.294-.7 4.294-2.52 0-1.214-.654-2.054-2.567-2.24l-3.827-.374c-4.386-.42-7.093-2.333-7.093-6.813 0-5.04 4.433-7.747 9.38-7.747 3.78 0 6.953.654 9.287 2.847l-3.734 3.78c-1.4-1.26-3.546-1.633-5.646-1.633-2.427 0-3.454 1.12-3.454 2.333 0 .887.374 1.913 2.52 2.1l3.827.373c4.807.467 7.233 3.034 7.233 7.14z"/>
        </g>
    </g>
</svg>
