<svg xmlns="http://www.w3.org/2000/svg" width="49" height="69" viewBox="0 0 49 69">
    <g fill="none" fill-rule="evenodd" stroke="#FFF">
        <path fill="#DA272C" d="M19.005 24.621a5.948 5.948 0 0 1 5.941-5.941 5.948 5.948 0 0 1 5.941 5.941 5.948 5.948 0 0 1-5.941 5.941 5.948 5.948 0 0 1-5.941-5.94m5.941 8.8c4.846 0 8.787-3.942 8.787-8.788 0-4.845-3.941-8.787-8.787-8.787-4.845 0-8.787 3.942-8.787 8.787 0 4.846 3.942 8.788 8.787 8.788"/>
        <path fill="#00568A" d="M24.723 3.977c5.567 0 10.81 2.17 14.76 6.107 7.354 7.354 8.246 21.22 1.91 29.673l-16.67 24.062L8.027 39.717c-6.318-8.424-5.413-22.271 1.936-29.633 3.938-3.938 9.18-6.107 14.76-6.107m16.77 4.097c-4.491-4.477-10.447-6.943-16.77-6.943S12.444 3.597 7.953 8.074c-8.288 8.289-9.332 23.854-2.239 33.303l19.009 27.448 18.965-27.403c7.122-9.473 6.096-25.056-2.195-33.348"/>
    </g>
</svg>
