<svg xmlns="http://www.w3.org/2000/svg" width="64" height="64" viewBox="0 0 64 64">
    <g fill="none" fill-rule="evenodd" stroke="#FFF">
        <path fill="#00568A" d="M51.513 12.461a27.533 27.533 0 0 0-19.538-8.077 27.527 27.527 0 0 0-19.538 8.077C7.458 17.465 4.36 24.375 4.36 32c0 7.625 3.097 14.535 8.077 19.54a27.533 27.533 0 0 0 19.538 8.077 27.533 27.533 0 0 0 19.538-8.077c5.003-5.004 8.102-11.914 8.102-19.54 0-7.624-3.097-14.534-8.102-19.538zM31.975 1.001c8.554 0 16.298 3.477 21.92 9.077 5.6 5.623 9.078 13.368 9.078 21.921 0 8.554-3.478 16.299-9.078 21.922-5.623 5.6-13.366 9.078-21.92 9.078-8.553 0-16.296-3.479-21.896-9.078C4.456 48.298 1 40.555 1 31.999c0-8.553 3.454-16.298 9.078-21.921C15.678 4.478 23.422 1 31.975 1z"/>
        <path fill="#DA272C" d="M46.774 33.307c.929 0 1.667.763 1.667 1.692 0 .93-.738 1.692-1.667 1.692H30.975c-.62 0-1.168-.357-1.453-.857l-.024-.024-.024-.048v-.024l-.024-.048-.024-.048v-.024l-.024-.048-.024-.024v-.048l-.024-.048v-.024l-.024-.048v-.096l-.024-.024v-20.44c0-.93.738-1.668 1.668-1.668.929 0 1.692.738 1.692 1.668v18.49h14.108z"/>
    </g>
</svg>
