<svg xmlns="http://www.w3.org/2000/svg" width="75" height="70" viewBox="0 0 75 70">
    <g fill="none" fill-rule="evenodd" stroke="#FFF">
        <path fill="#DA272C" stroke-width=".5" d="M28.603 56.898H6.82c-.668 0-1.21.517-1.21 1.153s.542 1.152 1.21 1.152h21.783c.668 0 1.21-.516 1.21-1.152 0-.636-.542-1.153-1.21-1.153M4.515 44.22h9.682c.668 0 1.21-.516 1.21-1.152 0-.636-.542-1.153-1.21-1.153H4.515c-.668 0-1.21.517-1.21 1.153s.542 1.152 1.21 1.152M22.898 50.56c0-.637-.545-1.153-1.216-1.153H2.217c-.672 0-1.217.516-1.217 1.152 0 .636.545 1.153 1.217 1.153h19.465c.671 0 1.216-.517 1.216-1.153"/>
        <path fill="#00568A" d="M53.074 44.797l-21.98-1.007-1.824-2.451 24.17 1.065zM53.05 35L22.4 33.88l-1.806-2.338 32.848 1.199z"/>
        <path fill="#00568A" d="M71.204 65.105c0 .689-.518 1.209-1.203 1.209H50.204c-1.313 0-2.213-.855-2.214-.855L10.342 27.625c-.62-.624-.666-1.758-.093-2.332l.794-.8 38.855 39.048c.225.227.532.354.851.354h20.455v1.21zM62.78 51.804h-7.22c-.663 0-1.202.541-1.202 1.209 0 .667.539 1.209 1.203 1.209h7.22c4.389 0 7.783 3.046 8.334 7.255H51.247L12.744 22.784 30.907 4.53c.997 3.183 3.29 9.374 6.959 13.062 4.111 4.133 11.246 4.976 14.086 5.147V45.76c0 .32.126.628.353.854l2.406 2.418c.47.473 1.231.473 1.702 0 .47-.472.47-1.236 0-1.71l-2.054-2.063V21.575c0-.668-.54-1.21-1.204-1.21-.09 0-9.178-.05-13.587-4.482-4.517-4.54-6.88-13.856-6.903-13.949a1.208 1.208 0 0 0-.846-.872 1.206 1.206 0 0 0-1.172.311L10.193 21.928l-.001.001-.001.001-1.644 1.653c-1.5 1.507-1.456 4.195.094 5.752L46.289 67.17c.158.16 1.622 1.563 3.915 1.563H70c2.023 0 3.61-1.593 3.61-3.627v-2.419c0-6.102-4.757-10.882-10.83-10.882z"/>
    </g>
</svg>
