<svg xmlns="http://www.w3.org/2000/svg" width="38" height="37" viewBox="0 0 38 37">
    <defs>
        <radialGradient id="a" cx="14.938%" cy="100.355%" r="127.779%" fx="14.938%" fy="100.355%">
            <stop offset="0%" stop-color="#FFB140"/>
            <stop offset="26%" stop-color="#FF5445"/>
            <stop offset="60%" stop-color="#FC2B82"/>
            <stop offset="100%" stop-color="#8E40B7"/>
        </radialGradient>
    </defs>
    <g fill="none" fill-rule="evenodd">
        <path fill="url(#a)" fill-rule="nonzero" d="M20.046 36.969a18.484 18.484 0 1 1 18.481-18.467c-.009 10.202-8.283 18.467-18.484 18.467h.003z" transform="translate(-1)"/>
        <path d="M8.625 8.065H29.46V28.9H8.625z"/>
        <path fill="#FFF" fill-rule="nonzero" d="M25.857 12.921a1.25 1.25 0 1 1-2.5 0 1.25 1.25 0 0 1 2.5 0zm-6.813 9.034a3.471 3.471 0 1 1 .02-6.942 3.471 3.471 0 0 1-.02 6.942zm0-8.821a5.35 5.35 0 1 0 0 10.701 5.35 5.35 0 0 0 0-10.701zm0-3.189c2.783 0 3.113 0 4.212.06.659.009 1.31.129 1.932.357a3.441 3.441 0 0 1 1.98 1.965c.229.62.349 1.273.355 1.933.05 1.098.06 1.427.06 4.212 0 2.781 0 3.11-.06 4.206a5.744 5.744 0 0 1-.356 1.936 3.297 3.297 0 0 1-.78 1.2c-.337.345-.748.61-1.2.776a5.713 5.713 0 0 1-1.932.359c-1.098.051-1.428.062-4.212.062-2.782 0-3.11 0-4.206-.062a5.713 5.713 0 0 1-1.936-.359 3.435 3.435 0 0 1-1.976-1.976 5.713 5.713 0 0 1-.36-1.935c-.05-1.096-.062-1.426-.062-4.209 0-2.783 0-3.112.063-4.212a5.684 5.684 0 0 1 .359-1.93c.167-.453.432-.865.78-1.2a3.254 3.254 0 0 1 1.196-.78 5.831 5.831 0 0 1 1.935-.356c1.096-.038 1.429-.047 4.208-.047zm0-1.88c-2.83 0-3.182 0-4.294.064a7.596 7.596 0 0 0-2.527.5 5.327 5.327 0 0 0-3.049 3.027 7.73 7.73 0 0 0-.483 2.53c-.052 1.108-.066 1.465-.066 4.295s0 3.183.064 4.295c.019.864.183 1.718.484 2.527a5.343 5.343 0 0 0 3.05 3.048c.809.303 1.663.466 2.527.484 1.112.05 1.465.064 4.294.064 2.83 0 3.186 0 4.295-.062a7.73 7.73 0 0 0 2.548-.482 5.327 5.327 0 0 0 3.024-3.049 7.561 7.561 0 0 0 .484-2.527c.05-1.112.064-1.466.064-4.295 0-2.83 0-3.185-.062-4.294a7.636 7.636 0 0 0-.486-2.535 5.307 5.307 0 0 0-3.024-3.025 7.636 7.636 0 0 0-2.53-.484c-1.127-.067-1.483-.08-4.313-.08z"/>
    </g>
</svg>
