<svg xmlns="http://www.w3.org/2000/svg" width="227" height="107" viewBox="0 0 227 107">
    <g fill="none" fill-rule="nonzero">
        <g stroke="#FFF">
            <path fill="#00568A" stroke-width="2" d="M74.519 38.612H32.526c-.967 0-1.75.782-1.75 1.746v29.688c0 .965.783 1.747 1.75 1.747h41.993c.966 0 1.75-.782 1.75-1.747V40.358c0-.964-.784-1.746-1.75-1.746zm-1.75 3.493v5.239H34.275v-5.24H72.77zM34.275 68.3V50.836H72.77V68.3H34.275z"/>
            <path fill="#BA473A" stroke-width="1.5" d="M43.694 52.716a1.752 1.752 0 0 0-1.907.378l-3.5 3.493a1.744 1.744 0 0 0 .022 2.448 1.752 1.752 0 0 0 2.453.022l.512-.512v6.262c0 .965.784 1.747 1.75 1.747s1.75-.782 1.75-1.747V54.33c0-.706-.426-1.343-1.08-1.613zM55.272 52.583h-3.5a3.496 3.496 0 0 0-3.499 3.493v1.746c0 .964.784 1.746 1.75 1.746s1.75-.782 1.75-1.746v-1.746h3.499v2.413l-6.03 3.009a1.746 1.746 0 0 0-.969 1.563v1.746c0 .965.784 1.747 1.75 1.747h6.999c.966 0 1.75-.782 1.75-1.747 0-.964-.784-1.746-1.75-1.746h-3.087l2.901-1.448a3.47 3.47 0 0 0 1.935-3.124v-2.413a3.496 3.496 0 0 0-3.499-3.493zM65.77 52.583h-3.5c-.965 0-1.749.782-1.749 1.746 0 .965.784 1.747 1.75 1.747h3.5v1.746h-3.5c-.966 0-1.75.782-1.75 1.746 0 .965.784 1.747 1.75 1.747h3.5v1.746h-3.5c-.966 0-1.75.782-1.75 1.746 0 .965.784 1.747 1.75 1.747h3.5c1.932 0 3.499-1.564 3.499-3.493v-1.746a3.455 3.455 0 0 0-.486-1.747 3.455 3.455 0 0 0 .486-1.746v-1.746a3.496 3.496 0 0 0-3.5-3.493z"/>
            <path fill="#00568A" stroke-width="1.5" d="M105.79 29.832L90.042 1.89c-.31-.55-.893-.89-1.525-.89H71.019c-.966 0-1.75.782-1.75 1.746 0 .107-.013.212-.015.318l-3.721.742a60.903 60.903 0 0 1-24.02 0l-3.723-.742c-.002-.106-.015-.211-.015-.318 0-.964-.784-1.746-1.75-1.746H18.528c-.632 0-1.216.34-1.526.89L1.255 29.832a1.744 1.744 0 0 0 .801 2.446l18.222 8.267v59.998c-.001.818.569 1.528 1.37 1.706l1.13.25a142.216 142.216 0 0 0 30.744 3.344c10.34.006 20.65-1.115 30.747-3.344l1.127-.25a1.748 1.748 0 0 0 1.37-1.706V40.545l18.222-8.267a1.744 1.744 0 0 0 .801-2.446zM40.827 7.231a64.5 64.5 0 0 0 25.39 0l2.528-.503C66.94 13.639 60.685 18.46 53.53 18.46c-7.156 0-13.409-4.822-15.215-11.733l2.513.503zm45.94 29.476l-3.5-4.272v66.71a139.482 139.482 0 0 1-59.49 0v-66.71c0 .253-1.166 1.677-3.5 4.272l-15.036-6.82 14.31-25.394h14.803c.9 9.895 9.212 17.474 19.168 17.474s18.269-7.579 19.169-17.474h14.802l14.311 25.394-15.037 6.82z"/>
        </g>
        <path fill="#BA473A" d="M203.093 33.278c0 .973-.79 1.76-1.764 1.76a1.762 1.762 0 0 1-1.764-1.76c0-.972.79-1.76 1.764-1.76s1.764.788 1.764 1.76zM203.093 75.535c0 .972-.79 1.76-1.764 1.76a1.762 1.762 0 0 1-1.764-1.76c0-.973.79-1.761 1.764-1.761s1.764.788 1.764 1.76zM160.755 33.278c0 .973-.79 1.76-1.764 1.76a1.762 1.762 0 0 1-1.764-1.76c0-.972.79-1.76 1.764-1.76.975 0 1.764.788 1.764 1.76zM160.755 75.535c0 .972-.79 1.76-1.764 1.76a1.762 1.762 0 0 1-1.764-1.76c0-.973.79-1.761 1.764-1.761.975 0 1.764.788 1.764 1.76z"/>
        <path fill="#00568A" stroke="#FFF" stroke-width="1.5" d="M223.556 35.039c.975 0 1.764-.788 1.764-1.76 0-.973-.79-1.762-1.764-1.762H210.15v-1.76c0-2.913-2.373-5.282-5.292-5.282h-1.764V11.093c0-.972-.79-1.76-1.764-1.76s-1.764.788-1.764 1.76v13.382h-7.056V11.093c0-.972-.79-1.76-1.764-1.76-.975 0-1.764.788-1.764 1.76v13.382h-7.057V11.093c0-.972-.79-1.76-1.764-1.76s-1.764.788-1.764 1.76v13.382h-7.056V11.093c0-.972-.79-1.76-1.764-1.76-.975 0-1.764.788-1.764 1.76v13.382h-7.057V11.093c0-.972-.79-1.76-1.764-1.76s-1.764.788-1.764 1.76v13.382h-1.764c-2.918 0-5.292 2.37-5.292 5.282v1.76h-13.407c-.974 0-1.764.789-1.764 1.761 0 .973.79 1.76 1.764 1.76h13.407v7.044h-13.407c-.974 0-1.764.788-1.764 1.76 0 .973.79 1.761 1.764 1.761h13.407v7.043h-13.407c-.974 0-1.764.788-1.764 1.76 0 .973.79 1.761 1.764 1.761h13.407v7.043h-13.407c-.974 0-1.764.788-1.764 1.76 0 .973.79 1.761 1.764 1.761h13.407v7.043h-13.407c-.974 0-1.764.788-1.764 1.76 0 .973.79 1.761 1.764 1.761h13.407v1.761c0 2.913 2.374 5.282 5.292 5.282h1.764V97.72c0 .973.79 1.761 1.764 1.761.975 0 1.764-.788 1.764-1.76V84.337h7.057V97.72c0 .973.79 1.761 1.764 1.761s1.764-.788 1.764-1.76V84.337h7.056V97.72c0 .973.79 1.761 1.764 1.761.975 0 1.764-.788 1.764-1.76V84.337h7.057V97.72c0 .973.79 1.761 1.764 1.761s1.764-.788 1.764-1.76V84.337h7.056V97.72c0 .973.79 1.761 1.764 1.761s1.764-.788 1.764-1.76V84.337h1.764c2.919 0 5.292-2.37 5.292-5.282v-1.76h13.407c.975 0 1.764-.789 1.764-1.761 0-.973-.79-1.761-1.764-1.761H210.15v-7.043h13.407c.975 0 1.764-.788 1.764-1.76 0-.973-.79-1.761-1.764-1.761H210.15v-7.043h13.407c.975 0 1.764-.788 1.764-1.76 0-.973-.79-1.761-1.764-1.761H210.15v-7.043h13.407c.975 0 1.764-.788 1.764-1.76 0-.973-.79-1.761-1.764-1.761H210.15v-7.043h13.407zm-16.935 44.017c0 .971-.79 1.76-1.764 1.76h-49.394c-.973 0-1.764-.789-1.764-1.76v-49.3c0-.97.791-1.76 1.764-1.76h49.394c.973 0 1.764.79 1.764 1.76v49.3z"/>
        <path fill="#BA473A" d="M181.924 66.731c0 .973-.79 1.761-1.764 1.761a1.762 1.762 0 0 1-1.764-1.76c0-.973.79-1.761 1.764-1.761.975 0 1.764.788 1.764 1.76z"/>
        <path fill="#BA473A" stroke="#FFF" stroke-width="2" d="M192.509 40.32h-24.697c-.975 0-1.764.79-1.764 1.762v24.65c0 .972.79 1.76 1.764 1.76h4.41c.974 0 1.764-.788 1.764-1.76 0-.973-.79-1.761-1.764-1.761h-2.646V43.842h21.169v21.129h-2.646c-.975 0-1.765.788-1.765 1.76 0 .973.79 1.761 1.765 1.761h4.41c.974 0 1.764-.788 1.764-1.76v-24.65c0-.973-.79-1.761-1.764-1.761z"/>
    </g>
</svg>
