<svg xmlns="http://www.w3.org/2000/svg" xmlns:xlink="http://www.w3.org/1999/xlink" width="125" height="165" viewBox="0 0 125 165">
    <defs>
        <path id="a" d="M0 0h162.325v172H0z"/>
    </defs>
    <g fill="none" fill-rule="evenodd" transform="translate(-20)">
        <mask id="b" fill="#fff">
            <use xlink:href="#a"/>
        </mask>
        <g mask="url(#b)">
            <path fill="#E20613" d="M42.805-212.85l58.186 367.354-33.13 5.247L9.674-207.603z"/>
            <g fill="#FFF">
                <path d="M48.553 12.402l.298 1.885 5.462-.865-.299-1.885zM55.48 7.648l-5.902-4.282-1.126 1.55 5.899 4.282zM59.33 6.082L58.447.507l-1.888.3.883 5.574zM56.714 9.136c-.734 1.01-.995 2.131-.806 3.327.19 1.196.782 2.163 1.788 2.875 1.012.734 2.133.992 3.351.799 1.218-.193 2.206-.784 2.92-1.792.74-.989 1.02-2.094.831-3.29-.19-1.195-.801-2.179-1.813-2.912-.988-.716-2.11-.975-3.328-.782-1.218.193-2.204.785-2.943 1.775m5.025.721c.538.371.846.884.949 1.533a2.18 2.18 0 0 1-.433 1.73c-.396.52-.906.85-1.535.95a2.295 2.295 0 0 1-1.774-.426 2.098 2.098 0 0 1-.926-1.515c-.123-.646.015-1.228.406-1.768.379-.497.893-.806 1.559-.933a2.45 2.45 0 0 1 1.754.43M58.133 40.554c.22 1.523.947 2.697 2.21 3.576 1.245.904 2.606 1.227 4.129.986 1.502-.238 2.74-.973 3.644-2.217.888-1.22 1.218-2.561.977-4.08a5.343 5.343 0 0 0-1.641-3.128 5.584 5.584 0 0 0-3.204-1.445l.35 2.208a3.854 3.854 0 0 1 1.59.975c.436.512.711 1.071.814 1.72.148.932-.073 1.777-.62 2.53-.564.773-1.302 1.222-2.24 1.351-.93.168-1.774-.032-2.548-.593-.753-.547-1.223-1.282-1.37-2.214a3.281 3.281 0 0 1 .262-1.89 3.696 3.696 0 0 1 1.21-1.419l-.35-2.209c-1.125.511-2 1.294-2.6 2.365-.618 1.094-.827 2.27-.613 3.484M58.165 26.836c.203 1.422.747 2.354 1.588 2.803.524.29 1.164.375 1.944.315l-.334-2.108c-.371.018-.635-.066-.819-.182-.32-.178-.522-.52-.584-1.05-.092-.443-.064-.8.04-1.065.083-.263.311-.403.653-.478.283-.045.534.082.727.384l.519 1.58c.221.733.498 1.312.838 1.737.592.716 1.403.982 2.477.79.752-.098 1.324-.438 1.694-.993.298-.485.406-1.104.315-1.818-.204-1.15-.632-2.018-1.303-2.576l.873-.138-.334-2.11-6.212.983c-1.015.161-1.666.641-1.922 1.387-.27.791-.326 1.63-.16 2.539zm4.627-1.647l-.285-.37.852-.135c.729-.115 1.269.007 1.613.346.349.361.559.764.636 1.25.048.305.005.561-.124.788-.152.232-.399.376-.784.437-.425.067-.757-.047-1.035-.356-.154-.184-.31-.512-.442-.948l-.431-1.012zM56.803 32.163l.334 2.108 11.001-1.743-.334-2.108zM57.135 18.358c.312.53.779.975 1.433 1.31l-1.075.17.299 2.009 8.443-1.338-.33-2.087-4.04.64c-.69.11-1.19.104-1.524-.03-.346-.09-.652-.31-.927-.601a2.062 2.062 0 0 1-.55-1.097l-.06-.654-2.15.36.128.54.353.778z"/>
            </g>
            <path fill="#E20613" d="M75.25 76.71l76.787-375.56 33.86 6.923-76.785 375.56z"/>
            <g fill="#FFF">
                <path d="M105.43 4.028l5.07 1.036c1.141.234 1.676-.411 1.81-1.07.132-.644-.1-1.48-1.194-1.703L106 1.245l.427-2.092 5.069 1.036c1.142.234 1.676-.41 1.81-1.07.136-.66-.099-1.48-1.241-1.713l-5.068-1.036.427-2.092 8.383 1.714-.418 2.044-.773-.158c.452.662.6 1.496.441 2.269-.19.933-.683 1.62-1.515 2.003.595.859.762 1.681.548 2.727-.17.836-.599 1.537-1.16 1.908-.815.539-1.652.618-2.57.43l-5.357-1.095.428-2.092zM113.596 13.61l.286-1.4 2.525 1.59-.451 2.204-2.36-2.394zm-9.909-1.054l.772.158c-.468-.665-.6-1.496-.441-2.269.17-.836.583-1.456 1.144-1.828.815-.537 1.64-.554 2.556-.366l5.358 1.095-.428 2.093-5.068-1.036c-1.142-.234-1.676.41-1.811 1.07-.135.66.1 1.48 1.242 1.712l5.068 1.037-.428 2.092-8.382-1.714.418-2.044zM102.261 19.037c.27-1.319.658-2.48 1.937-3.325l1.088 1.647c-.833.55-1.114 1.432-1.246 2.076-.148.724-.061 1.53.567 1.658.418.085.754-.081.953-.727l.399-1.294c.453-1.483 1.304-2.281 2.849-1.965 1.737.355 2.357 2.074 2.009 3.78-.267 1.303-.715 2.352-1.636 3.001l-1.04-1.553c.533-.394.813-1.108.96-1.832.172-.837-.142-1.27-.56-1.355-.306-.062-.686-.007-.902.72l-.398 1.294c-.5 1.625-1.555 2.28-2.972 1.99-1.85-.378-2.412-2.136-2.008-4.115M101.404 23.724l8.382 1.713-.427 2.092-8.383-1.714zM99.853 30.815c.343-1.673 1.668-3.564 5.063-2.87 3.394.694 3.855 2.95 3.512 4.623-.236 1.159-.768 1.956-1.691 2.538l-1.126-1.705c.555-.34.824-.67.936-1.217.101-.499.003-.921-.304-1.303-.337-.404-.87-.664-1.755-.845-.885-.18-1.494-.154-1.962.086-.432.23-.689.58-.79 1.078-.112.547.005.957.383 1.487l-1.69 1.13c-.62-.899-.813-1.843-.576-3.002M101.868 39.488l.339-1.656c.154-.757-.114-1.248-.71-1.37-.579-.118-1.044.19-1.211 1.01-.119.58-.146.96.132 1.401.163.268.485.418 1 .524l.45.091zm-3.55-.675l.724.148c-.447-.678-.58-1.258-.383-2.224.194-.949.577-1.592 1.177-1.988.559-.355 1.285-.459 2.025-.308 1.335.273 2.242 1.414 1.844 3.362l-.405 1.979.418.085c.918.187 1.412-.18 1.639-1.29.165-.806.047-1.215-.363-1.752l1.576-1.068c.733 1.004.826 1.862.54 3.26-.48 2.35-1.728 3.37-3.69 2.969l-5.52-1.129.419-2.044z"/>
            </g>
            <path fill="#A7A9AC" d="M144.362 103.037c0 34.19-27.717 61.908-61.908 61.908-34.19 0-61.908-27.717-61.908-61.908 0-34.19 27.717-61.907 61.908-61.907 34.19 0 61.908 27.716 61.908 61.907"/>
            <path fill="#1D1D1B" d="M86.93 76.452v-4.435c0-1-.634-1.337-1.211-1.337-.564 0-1.226.337-1.226 1.295v4.477h-1.83v-4.435c0-1-.633-1.337-1.21-1.337-.578 0-1.226.337-1.226 1.337v4.435h-1.83v-7.335h1.788v.676a2.564 2.564 0 0 1 1.83-.76c.817 0 1.48.294 1.944.928.619-.647 1.281-.929 2.196-.929.732 0 1.394.24 1.803.648.592.591.802 1.281.802 2.084v4.688h-1.83zM93.576 67.948h-1.225l.902-2.394h1.929l-1.606 2.394zm.817 8.504v-.675c-.479.507-1.154.76-1.83.76-.732 0-1.324-.24-1.732-.647-.592-.592-.747-1.282-.747-2.085v-4.688h1.83v4.435c0 1 .635 1.338 1.212 1.338s1.224-.338 1.224-1.338v-4.435h1.832v7.335h-1.79zM100.082 76.537c-1.155 0-2.196-.127-3.126-1.056l1.197-1.197c.605.606 1.394.69 1.957.69.634 0 1.296-.21 1.296-.76 0-.366-.198-.62-.775-.676l-1.155-.113c-1.323-.126-2.14-.704-2.14-2.056 0-1.52 1.338-2.337 2.83-2.337 1.141 0 2.099.197 2.803.859l-1.127 1.14c-.423-.38-1.07-.492-1.704-.492-.732 0-1.041.338-1.041.704 0 .268.112.577.76.633l1.154.113c1.45.14 2.183.915 2.183 2.155 0 1.619-1.38 2.393-3.112 2.393M104.166 76.452h1.83v-7.335h-1.83zM110.39 76.537c-1.465 0-3.28-.789-3.28-3.76 0-2.97 1.815-3.745 3.28-3.745 1.013 0 1.774.31 2.421.985l-1.238 1.24c-.38-.409-.705-.578-1.184-.578-.436 0-.774.156-1.041.48-.282.352-.409.844-.409 1.618 0 .775.127 1.282.409 1.634.267.323.605.479 1.041.479.48 0 .803-.17 1.184-.578l1.238 1.225c-.647.676-1.408 1-2.422 1M117.33 73.355h-1.45c-.663 0-1.03.31-1.03.83 0 .508.34.845 1.057.845.507 0 .831-.042 1.155-.351.197-.183.267-.48.267-.93v-.394zm.041 3.097v-.633c-.492.493-.957.704-1.802.704-.83 0-1.436-.211-1.872-.648-.394-.408-.606-1-.606-1.647 0-1.169.802-2.126 2.506-2.126h1.732v-.366c0-.803-.394-1.155-1.365-1.155-.705 0-1.028.169-1.409.605l-1.168-1.14c.718-.788 1.422-1.014 2.647-1.014 2.056 0 3.126.873 3.126 2.59v4.83h-1.789z"/>
            <path fill="#E20613" d="M66.14 67.277h1.641v-4.758H66.14zM70.889 69.044l4.433-4.438-1.166-1.165-4.433 4.436zM71.702 72.528h4.855v-1.645h-4.855zM69.458 69.894c-.76-.76-1.677-1.133-2.719-1.133a3.615 3.615 0 0 0-2.683 1.133c-.76.76-1.13 1.678-1.13 2.74 0 1.06.37 1.979 1.13 2.721.74.762 1.642 1.15 2.683 1.15 1.042 0 1.96-.388 2.719-1.15.742-.742 1.112-1.66 1.112-2.721 0-1.062-.37-1.98-1.112-2.74m-1.289 4.172c-.388.408-.865.6-1.43.6a1.875 1.875 0 0 1-1.411-.6c-.39-.407-.602-.885-.602-1.432 0-.584.212-1.062.602-1.45a1.804 1.804 0 0 1 1.411-.583c.565-.019 1.042.177 1.447.583.372.388.566.866.584 1.45a2.108 2.108 0 0 1-.6 1.432M42.57 66.87c-1.323-.017-2.418.442-3.336 1.397-.935.937-1.393 2.05-1.393 3.376 0 1.308.458 2.46 1.393 3.395.918.918 2.013 1.38 3.336 1.38a4.6 4.6 0 0 0 2.878-.974 4.802 4.802 0 0 0 1.66-2.528h-1.924c-.247.496-.6.9-1.042 1.22a2.943 2.943 0 0 1-1.572.46c-.811 0-1.5-.3-2.065-.867-.58-.583-.864-1.271-.847-2.086-.017-.812.266-1.503.847-2.085.566-.566 1.254-.866 2.065-.866a2.82 2.82 0 0 1 1.572.477c.442.3.795.725 1.042 1.22h1.924c-.283-1.025-.83-1.875-1.66-2.528-.846-.673-1.817-1.008-2.878-.99M54.223 68.744c-1.236-.018-2.101.318-2.595.972-.317.407-.476.939-.53 1.61h1.837c.034-.318.141-.53.265-.671.193-.25.51-.374.97-.355.388-.019.689.053.9.176.212.106.3.32.318.62 0 .246-.142.443-.424.566l-1.413.228c-.653.09-1.182.248-1.589.479-.687.407-1.022 1.06-1.004 1.998-.018.652.194 1.184.616 1.573.371.319.883.494 1.502.513 1.005-.019 1.8-.266 2.364-.761v.76h1.838v-5.41c0-.884-.32-1.502-.92-1.82-.635-.336-1.34-.496-2.135-.478zM55 72.898l.352-.192v.741c0 .635-.176 1.077-.51 1.325a1.936 1.936 0 0 1-1.15.371c-.264 0-.476-.07-.652-.211-.176-.16-.265-.389-.265-.725 0-.37.142-.637.441-.832.177-.105.477-.194.865-.247l.919-.23zM48.044 76.452h1.836v-9.581h-1.836zM61.566 69.01c-.493.194-.934.53-1.306 1.042v-.937l-1.748-.016v7.354h1.819v-3.518c0-.602.071-1.025.23-1.292.122-.282.352-.512.636-.706.317-.213.652-.32 1.006-.32l.564.037-.016-1.876-.477.037-.708.195z"/>
            <path fill="#5E5E5D" d="M100.206 84.927a2.514 2.514 0 0 0-2.535 2.535 2.514 2.514 0 0 0 2.535 2.534 2.514 2.514 0 0 0 2.534-2.534 2.514 2.514 0 0 0-2.534-2.535m0 10.362a2.816 2.816 0 0 0-2.796 2.795 2.816 2.816 0 0 0 2.796 2.796A2.816 2.816 0 0 0 103 98.084a2.816 2.816 0 0 0-2.795-2.795m0 11.107c-4.883 0-8.908-2.646-8.908-8.162 0-3.318 1.975-4.883 2.981-5.703-.931-.783-2.72-2.386-2.72-5.256 0-5.031 4.1-7.864 8.647-7.864 4.547 0 8.647 2.833 8.647 7.864 0 2.87-1.789 4.473-2.72 5.256 1.006.82 2.981 2.385 2.981 5.703 0 5.516-4.025 8.162-8.908 8.162M126.546 108.515l-7.428-13.226-2.236 2.572v12.864h-6.449v-31.09h6.449v9.392l7.678-9.392h7.976l-9.057 10.734 8.841 14.936a.843.843 0 0 1-.43 1.22l-5.344 1.99z"/>
            <path fill="#1D1D1B" d="M101.388 85.688a2.513 2.513 0 0 0-2.535 2.534 2.514 2.514 0 0 0 2.535 2.535 2.514 2.514 0 0 0 2.534-2.535 2.513 2.513 0 0 0-2.534-2.534m0 10.361a2.816 2.816 0 0 0-2.795 2.796 2.816 2.816 0 0 0 2.795 2.795 2.816 2.816 0 0 0 2.795-2.795 2.816 2.816 0 0 0-2.795-2.796m0 11.108c-4.883 0-8.908-2.647-8.908-8.163 0-3.317 1.975-4.883 2.982-5.703-.932-.782-2.721-2.385-2.721-5.255 0-5.032 4.1-7.865 8.647-7.865 4.547 0 8.647 2.833 8.647 7.865 0 2.87-1.789 4.473-2.72 5.255 1.006.82 2.981 2.386 2.981 5.703 0 5.516-4.025 8.163-8.908 8.163M127.728 109.275L120.3 96.05l-2.236 2.572v12.865h-6.448V80.395h6.448v9.393l7.678-9.393h7.976l-9.057 10.735 8.842 14.935a.844.844 0 0 1-.432 1.22l-5.343 1.99zM32.343 86.159v-5.284h1.032v4.364h2.397v.92zM39.664 82.434l-.668 1.922h1.314l-.646-1.922zm1.232 3.725l-.312-.935h-1.877l-.32.935h-1.075l1.922-5.284h.809l1.929 5.284h-1.076zM48.346 86.159h-.772l-1.743-5.284h1.068l1.061 3.444 1.062-3.444h1.076zM53.728 86.204c-1.084 0-1.944-.735-1.944-1.855v-3.473h1.031v3.435c0 .609.356.972.913.972.556 0 .92-.363.92-.972v-3.435h1.024v3.473c0 1.12-.86 1.855-1.944 1.855M57.784 86.159v-5.284h3.48v.92h-2.449v1.24H60.9v.92h-2.085v1.284h2.449v.92zM63.22 86.159v-5.284h1.03v4.364h2.398v.92zM69.967 81.796v4.363h-1.032v-4.363h-1.38v-.92h3.792v.92zM74.518 82.434l-.668 1.922h1.314l-.646-1.922zm1.232 3.725l-.312-.935h-1.877l-.32.935h-1.075l1.922-5.284h.809l1.929 5.284H75.75zM83.052 82.434l-.668 1.922h1.313l-.645-1.922zm1.232 3.725l-.312-.935h-1.877l-.32.935H80.7l1.922-5.284h.809l1.929 5.284h-1.076zM44.175 94.448c0 .43.404.72 2.49.72 1.946 0 2.236-.126 2.236-.454 0-.38-.29-.43-2.363-.493-3.993-.127-5.523-.784-5.523-2.844 0-1.946 1.909-2.78 5.397-2.78 3.45 0 5.396.834 5.396 3.096h-3.286c0-.467-.758-.569-2.363-.569-1.542 0-1.858.076-1.858.418 0 .34.316.328 2.237.404 3.488.14 5.65.38 5.65 2.692 0 2.439-2.023 3.058-5.65 3.058-3.627 0-5.65-.619-5.65-3.248h3.287zM59.513 93.703l-1.023-2.705-1.024 2.705h2.047zm.86 2.274h-3.766L56 97.57h-3.614l3.665-8.847h4.878l3.665 8.847H60.98l-.607-1.593zM76.694 88.723v8.847h-4.297l-3.817-5.22v5.22h-3.286v-8.847h4.297l3.817 5.22v-5.22zM31.604 107.428h3.286V98.58h-3.286zM39.099 104.306c0 .43.404.72 2.49.72 1.946 0 2.236-.126 2.236-.455 0-.379-.29-.43-2.363-.492-3.994-.127-5.523-.784-5.523-2.844 0-1.946 1.908-2.78 5.397-2.78 3.45 0 5.396.834 5.396 3.096h-3.286c0-.468-.758-.569-2.363-.569-1.542 0-1.858.076-1.858.417 0 .341.316.329 2.237.405 3.488.139 5.65.379 5.65 2.692 0 2.439-2.023 3.058-5.65 3.058-3.627 0-5.65-.62-5.65-3.248H39.1zM48.044 107.428h3.286V98.58h-3.286zM59.942 103.004c0-1.642-1.162-1.642-1.87-1.642h-2.275v3.285h2.275c.708 0 1.87 0 1.87-1.643m3.286 0c0 3.008-2.01 4.424-4.145 4.424H52.51V98.58h6.572c2.136 0 4.145 1.416 4.145 4.423M67.43 102.575h3.032c.329 0 .733 0 .733-.607s-.404-.607-.733-.607H67.43v1.214zm5.484 2.312l1.567 2.54H70.59l-1.226-2.072H67.43v2.073h-3.286V98.58h6.951c2.01 0 3.387 1.416 3.387 3.387 0 1.289-.594 2.35-1.567 2.92zM82.945 102.992c0-.923-.329-1.757-2.275-1.757s-2.275.822-2.275 1.757c0 .948.341 1.782 2.275 1.782s2.275-.847 2.275-1.782m-7.836 0c0-3.071 1.669-4.537 5.561-4.537 3.88 0 5.561 1.478 5.561 4.537 0 3.07-1.68 4.562-5.56 4.562-3.893 0-5.562-1.479-5.562-4.562"/>
            <path fill="#1D1D1B" d="M76.721 105.498h7.358v-5.173H76.72z"/>
            <path fill="#A7A9AC" d="M82.209 100.642l-2.19.67c-.265.076-.48.352-.48.618v2.309s-.158-.107-.511-.057c-.52.073-.94.472-.94.89 0 .417.42.673.94.6.519-.074.9-.46.9-.878v-1.972c0-.185.222-.264.222-.264l1.935-.607s.215-.071.215.127v1.584s-.197-.114-.551-.072c-.519.064-.94.453-.94.871s.421.682.94.62c.52-.064.94-.454.94-.871v-3.224c0-.266-.215-.42-.48-.344"/>
            <path fill="#F5ECDC" d="M105.356 119.96l.599 1.372s1.782.657 1.577 1.764c-.206 1.108-1.822.352-1.822.352l-7.276 1.136-4.139-3.69 11.061-.935z"/>
            <path fill="#000" d="M104.241 121.404c-.01.207.137.384.327.395.19.01.352-.15.362-.358.01-.207-.137-.384-.327-.394-.19-.01-.352.15-.362.357"/>
            <path fill="#FFF" d="M98.738 154.602s-.197 3.926-.157 4.867c1.744-.344 3.912.315 3.746 2.523H92.57c0-2.154.184-7.51.184-7.51l5.984.12z"/>
            <path fill="#B3213B" d="M95.621 144.187c1.073 1.995 5.244 7.788 3.108 10.59-.558.733-4.969.912-5.913.665-1.385-.363-3.242-3.305-4.77-6.148-1.529-2.842 6.421-7.252 7.575-5.107"/>
            <path fill="#FFF" d="M78.355 151.916s-3.597.185-4.45.325c.49 1.86.111 4.28-1.918 4.326l-.993-10.598c1.963-.22 6.861-.564 6.861-.564l.5 6.511z"/>
            <path fill="#D12C44" d="M86.648 150.122c-1.931.95-6.994 3.363-8.183 1.865-.572-.72-2.276-4.948-2.359-6.005-.109-1.39 3.95-3.276 6.702-4.63 2.753-1.355 5.917 7.747 3.84 8.77"/>
            <path fill="#B3213B" d="M94.052 129.908c-3.775-1.185-7.568-2.07-12.536 1.61-.443-.554-2.02-2.615-2.583-3.353 3.45-2.275 8.982-5.25 14.916-3.51 5.935 1.739 3.724 6.36.203 5.253"/>
            <path fill="#FFF" d="M78.939 128.231s-1.76 1.156-1.846 2.333c-.087 1.176 1.628 2.784 2.584 2.36.963-.426 1.577-1.477 1.577-1.477l-2.315-3.216z"/>
            <path fill="#F5ECDC" d="M81.06 132.149a.39.39 0 0 1-.509-.11l-2.495-3.245a.479.479 0 0 1 .087-.666l1.707-1.245a.39.39 0 0 1 .552.091l2.571 3.47a.484.484 0 0 1 .084.375.45.45 0 0 1-.213.309l-1.783 1.02z"/>
            <path fill="#D12C44" d="M104.274 136.97c-.577 3.3-1.59 5.894-1.59 5.894l-.67 10.228c-4.856.671-21.927-4.963-26.33-9.717 0 0 3.453-5.465 6.936-8.534 2.458-6.755 8.567-11.358 11.402-12.286 2.01-.657 6.988.494 8.822 3.61 1.833 3.117 2.018 7.441 1.43 10.805"/>
            <path fill="#B3213B" d="M94.397 132.414c-.405-2.627 7.062 3.426 9.673 5.613a35.3 35.3 0 0 1-1.252 4.474c-2.76-1.574-7.93-6.907-8.42-10.087"/>
            <path fill="#FFF" d="M97.097 153.38c2.132.418 3.877.574 4.998.419.358-.05.611-.406.566-.797-.045-.39-.372-.667-.73-.617-2.214.306-7.459-.817-13.05-2.795-6.065-2.145-10.827-4.658-12.739-6.722a.614.614 0 0 0-.923.006.76.76 0 0 0 .006 1.007c2.05 2.213 7.004 4.854 13.253 7.065 3.143 1.112 6.141 1.95 8.619 2.435M106.142 123.65c-.998-1.26-2.484-1.538-3.997-.51-1.513 1.03-2.842-1.865-2.967-3.037-.587-.017-1.866.332-1.866.332s-2.34.772-1.975 2.539c3.335.496 6.236 3.02 7.404 8.023.869 3.723.729 11.446 2.391 9.367 5.73-7.166 1.944-15.534 1.01-16.713"/>
            <path fill="#D12C44" d="M104.355 117.642c-.334-1.338-4.989-6.835-7.027-7.034-2.039-.2-9.09 6.109-9.995 7.391.755-.214 4.238-1.135 4.768-.907.53.227.814 1.588.966 2.575l11.288-2.025"/>
            <path fill="#FFF" d="M85.666 117.52c-.048 1.067.704 1.975 1.682 2.028.978.054 1.81-.768 1.859-1.836.049-1.067-.705-1.976-1.682-2.029-.978-.053-1.81.768-1.859 1.836M105.327 116.28c.397.223 1.103 3.665.69 3.981-.415.316-13.074 1.71-13.532 1.621-.458-.087-.857-2.398-.523-2.773.334-.375 12.517-3.305 13.365-2.829"/>
            <path fill="#D12C44" d="M98.044 129.53c2.214 3.543 4.617 6.866 10.594 7.493.017.734.027 3.42.029 4.381-3.986-.651-9.985-2.213-13.537-7.686-3.553-5.474.85-7.492 2.914-4.187"/>
            <path fill="#FFF" d="M109.155 137.394s2.053.02 2.675.986c.622.965-.138 3.781-1.129 3.466-.99-.315-2.045-.398-2.045-.398l.499-4.054z"/>
            <path fill="#FFF" d="M109.357 136.855c.19.044.327.226.328.439l.026 4.237a.472.472 0 0 1-.136.337.391.391 0 0 1-.32.115l-2.044-.23c-.212-.025-.373-.222-.37-.456l.047-4.462a.468.468 0 0 1 .155-.347.388.388 0 0 1 .344-.09l1.97.457zM102.81 143.921l.43-1.98c-5.425-1.404-17.92-6.277-20.426-8.172l-1.061 1.674c2.864 2.167 15.854 7.133 21.057 8.478M122.93 129.32c-.666-.793-3.676-3.452-4.174-3.818-1.137-.834-4.589-.966-4.678-.637-.063.23.998 2.393 3.062 3.414.55.27 4.65 2.053 4.65 2.053l1.14-1.012zM120.889 141.787c1.516.336 2.83 3.107 1.574 6.022.546.061 1.088.394 1.263.848.112.288-.004.67-.405.644-.4-.026-1.592-.048-1.88-.043-.288.005-.697-.175-.635-.615.153-1.09-.042-1.955-2.023-3.3-1.98-1.345.17-3.984 2.106-3.556M121.676 138.195c-.731-.363-3.378-1.19-4.987-1.128-.92.035-.906-.937-.167-1.088 1.877-.383 4.228.163 5.284.766 1.057.604.48 1.753-.13 1.45"/>
            <path fill="#FFF" d="M125.83 129.011c1.125.588 1.162 2.674 1.301 3.049.716 0 1.042.226 1.034.781-.038 2.462-2.886 3.389-3.994 3.612l-1.844-.301c-2.722-1.058-2.954-4.982-2.466-5.873 1.313-2.398 4.837-1.859 5.969-1.268"/>
            <path fill="#187B99" d="M126.982 135.27c.032 0 .062-.02.075-.055.018-.045-.002-.098-.043-.117-.12-.056-.447-.28-.538-.503-.019-.045-.067-.066-.109-.045-.041.02-.06.073-.04.118.118.288.498.536.623.594.01.005.021.007.032.007"/>
            <path fill="#FFF" d="M119.724 144.423c-.466 1.611-3.129 2.745-5.65 1.075-.114.586-.475 1.14-.907 1.282-.274.09-.61-.076-.544-.508.066-.432.212-1.723.238-2.036.026-.313.233-.739.627-.625.978.281 1.785.16 3.22-1.849 1.433-2.008 3.61.605 3.016 2.661M123.084 137.253c.758.293 2.568.992 4.1-.979.596-.766 1.26-.042.829.63-1.612 2.516-3.843 2.307-4.944 1.806-1.1-.502-.615-1.701.015-1.457"/>
            <path fill="#FFF" d="M116.643 140.058c-1.118.881-1.759 4.284.333 5.104.812.317 3.118.525 3.875.163 1.743-.834 3.32-8.676 3.32-8.872.006-1.055-1.298-1.45-1.844-.301-.925 1.947-3.943 2.536-5.684 3.906"/>
            <path fill="#FFF" d="M116.418 141.065c-.474-.53-1.247-.644-1.561-.119-.224.375-.456.385-.644.263-.138-.089-.21-.002-.17.151.258.996 1.876 1.698 2.4.774.268-.472.188-.83-.025-1.07"/>
            <path fill="#234B5D" d="M124.938 132.202c.077.207.293.307.482.223.19-.084.281-.32.204-.526-.076-.207-.292-.307-.482-.223-.189.084-.28.32-.204.526"/>
            <path fill="#FFF" d="M121.778 129.758c-.88-.485-4.556-1.811-5.14-1.96-1.334-.343-4.606.867-4.582 1.208.015.241 1.707 1.854 3.97 2.012.6.042 5.013.127 5.013.127l.739-1.387z"/>
            <path fill="#FFF" d="M119.355 130.11c-.09.314-2.218.424-3.206.282-.99-.142-3.138-1.075-3.07-1.35.067-.273 2.807-.534 3.252-.482.444.053 3.184.99 3.024 1.55"/>
            <path fill="#607C5D" d="M63.322 145.567l.864-1.311.857 1.315z"/>
            <path fill="#607C5D" d="M62.74 146.886l1.445-2.192 1.431 2.198z"/>
            <path fill="#607C5D" d="M62.319 148.18l1.864-2.83 1.847 2.838z"/>
            <path fill="#607C5D" d="M61.717 149.946l2.463-3.736 2.44 3.747z"/>
            <path fill="#607C5D" d="M60.754 152.19l3.424-5.194 3.392 5.21z"/>
            <path fill="#607C5D" d="M59.586 155.183l4.588-6.962 4.547 6.982z"/>
            <path fill="#607C5D" d="M58.307 158.492l5.863-8.895 5.81 8.921z"/>
            <path fill="#607C5D" d="M65.227 162.572l-2.181-.586.019-7.428 2.18.005zM46.085 117.369l2.104-3.032 2.086 3.041z"/>
            <path fill="#607C5D" d="M44.67 120.418l3.516-5.067 3.486 5.082z"/>
            <path fill="#607C5D" d="M43.644 123.408l4.538-6.54 4.498 6.56z"/>
            <path fill="#607C5D" d="M42.18 127.493l5.995-8.638 5.944 8.665z"/>
            <path fill="#607C5D" d="M39.837 132.68l8.333-12.007 8.26 12.045z"/>
            <path fill="#607C5D" d="M36.993 139.6l11.168-16.094 11.071 16.143z"/>
            <path fill="#607C5D" d="M33.88 147.25l14.272-20.564 14.146 20.629z"/>
            <path fill="#607C5D" d="M50.716 156.414l-5.297-3.773.044-14.484 5.308.012z"/>
        </g>
    </g>
</svg>
