<svg xmlns="http://www.w3.org/2000/svg" xmlns:xlink="http://www.w3.org/1999/xlink" width="53" height="53" viewBox="0 0 53 53">
    <defs>
        <path id="a" d="M0 .162h52.148V52.11H0z"/>
    </defs>
    <g fill="none" fill-rule="evenodd">
        <g transform="translate(0 .05)">
            <mask id="b" fill="#fff">
                <use xlink:href="#a"/>
            </mask>
            <path fill="#00568A" stroke="#FFF" stroke-width=".2" d="M50.098 40.232a4.3 4.3 0 0 1-3.686 4.25l.002-.06V23.995c0-1.316-2.05-1.318-2.05 0v20.426a5.644 5.644 0 0 1-5.638 5.638H7.687a5.644 5.644 0 0 1-5.637-5.638V13.382a5.644 5.644 0 0 1 5.637-5.637h31.04a5.644 5.644 0 0 1 5.637 5.637v2.328c0 1.316 2.05 1.318 2.05 0v-2.328c0-4.238-3.449-7.687-7.688-7.687H7.862a4.3 4.3 0 0 1 4.216-3.483h33.725a4.3 4.3 0 0 1 4.295 4.294v33.726zM45.803.162H12.078c-3.307 0-6.03 2.544-6.318 5.778C2.451 6.797 0 9.809 0 13.382v31.04c0 4.238 3.448 7.687 7.687 7.687h31.04c3.493 0 6.448-2.344 7.38-5.541a6.352 6.352 0 0 0 6.04-6.336V6.506A6.351 6.351 0 0 0 45.804.162z" mask="url(#b)"/>
        </g>
        <path fill="#D54537" stroke="#FFF" stroke-width=".2" d="M18.864 20.647l13.033-4.971v3.5l-13.033 4.972v-3.5zM29.39 37.31a2.51 2.51 0 0 1-2.507-2.506 2.51 2.51 0 0 1 2.507-2.507 2.51 2.51 0 0 1 2.507 2.507 2.51 2.51 0 0 1-2.507 2.506zm-15.083 5.834a2.51 2.51 0 0 1-2.507-2.507 2.51 2.51 0 0 1 2.507-2.507 2.51 2.51 0 0 1 2.507 2.507 2.51 2.51 0 0 1-2.507 2.507zm19.196-29.8a1.026 1.026 0 0 0-.947-.114l-15.082 5.754c-.398.151-.66.532-.66.957v16.893a4.529 4.529 0 0 0-2.507-.754 4.562 4.562 0 0 0-4.556 4.557 4.562 4.562 0 0 0 4.556 4.556 4.562 4.562 0 0 0 4.557-4.556V26.343l13.033-4.972V31a4.53 4.53 0 0 0-2.507-.754 4.562 4.562 0 0 0-4.556 4.557 4.562 4.562 0 0 0 4.556 4.556 4.562 4.562 0 0 0 4.557-4.556V14.188c0-.337-.166-.653-.444-.844z"/>
        <path fill="#00568A" d="M45.388 18.887c-.547 0-1.016.46-1.023 1.008a1.031 1.031 0 0 0 1.026 1.04c.566 0 1.034-.481 1.021-1.047a1.04 1.04 0 0 0-1.024-1"/>
    </g>
</svg>
