<svg xmlns="http://www.w3.org/2000/svg" xmlns:xlink="http://www.w3.org/1999/xlink" width="92" height="33" viewBox="0 0 92 33">
    <defs>
        <path id="a" d="M0 .16h27.067v32.648H0z"/>
    </defs>
    <g fill="none" fill-rule="evenodd">
        <g transform="translate(0 .032)">
            <mask id="b" fill="#fff">
                <use xlink:href="#a"/>
            </mask>
            <path fill="#1F1410" d="M14.972 23.911v-7.198L7.48 20.7l4.582-12.086v7.11l7.55-4.045-4.639 12.232M25.683 5.337c-2.59-2.81-6.487-1.574-9.3-.042-.428.234-.773.445-1.233.755-.22.149-.658.481-.674.493L12.184 8.29l3.09-8.13L3.374 15.52C2.158 17.218.9 18.973.306 21.035c-.52 1.802-.509 4.343 1.078 6.066 1.126 1.222 2.5 1.68 3.924 1.68 1.85 0 3.786-.773 5.377-1.639.428-.233 4.21-3.027 4.21-3.027l-2.592 8.693 11.39-15.89c1.216-1.698 2.474-3.454 3.068-5.515.52-1.803.51-4.343-1.078-6.066" mask="url(#b)"/>
        </g>
        <path fill="#1F1410" d="M32.215 23.845h11.551l3.458-5.725-.338.069c-.572.117-1.132.164-1.724.215-.205.017-.41.034-.616.055a105.03 105.03 0 0 1-3.909.3c-.82.048-1.484.063-2.09.045-.34-.01-.68-.027-1.013-.052-.31-.023-.58-.05-.825-.081l-.182-.022c-.218-.024-.443-.048-.625-.116-.348-.13-.688-.51-.777-.887-.038-.183-.02-.38.003-.55.065-.487 3.93-13.75 3.968-13.877l.021-.073-.045-.06c-.05-.068-.05-.068-1.58-.057H32.75l-.033.107a6105.792 6105.792 0 0 0-4.04 13.45c-.56 2.118-.534 3.813.08 5.042.633 1.27 1.791 2.016 3.46 2.217M55.49 18.17l5.428-9.7-.001 9.7H55.49zm11.25 5.675V7.465c0-.1.012-2.476-.556-3.442-.59-1.006-2.218-.992-2.284-.994h-3.622c-.043.001-1.07.046-2.285.987-1.17.907-1.875 1.977-2.498 2.995L45.357 23.845h6.796l8.54-4.274v4.274h6.047zM85.408 9.057a3.366 3.366 0 0 1-.609 1.064 3.992 3.992 0 0 1-.983.86 2.784 2.784 0 0 1-.945.343c-.298.058-.763.058-1.347.057h-2.978l1.316-4.29H83.9c.163 0 .927.174 1.211.479.283.302.539.716.298 1.487m-2.569 8.408l-.002.006a2.963 2.963 0 0 1-.579 1.06 3.975 3.975 0 0 1-.979.856c-.158.088-.319.163-.479.225-.156.06-.323.109-.5.144a5.07 5.07 0 0 1-.63.089c-.237.017-.524.035-.859.035h-2.836l1.346-4.486h3.037c.598 0 1.08.035 1.391.1.279.06.535.169.758.323.48.345.588.884.332 1.648M91.678 5.8a4.068 4.068 0 0 0-1.447-2.037 2.614 2.614 0 0 0-.83-.421 6.813 6.813 0 0 0-.96-.2 9.228 9.228 0 0 0-1.248-.112h-12.62l-.418 1.699-.796 2.77-1.591 5.24-.315.95-3.096 10.157h11.007c.922 0 1.793-.047 2.586-.138.703-.08 1.317-.2 1.825-.356a7.198 7.198 0 0 0 3.02-1.884c.84-.873 1.456-1.948 1.83-3.192.737-2.237.236-3.854-1.49-4.81a7.043 7.043 0 0 0 1.238-.678 8.816 8.816 0 0 0 1.391-1.175 8.677 8.677 0 0 0 1.112-1.427 6.962 6.962 0 0 0 .733-1.587c.321-1.015.344-1.957.069-2.799M33.38 26.627l-.955 3.741-1.65-3.741H27.81l-1.44 5.427h1.914l.96-3.76 1.667 3.76h2.943l1.439-5.427zM40.753 29.099c-.028.106-.1.35-.154.524-.146.465-.213.578-.34.683-.18.153-.512.195-1.538.195-.772 0-1.276-.027-1.403-.16-.023-.024-.045-.063-.04-.17.016-.195.016-.195.214-.996l.675-2.548h-1.88L35.63 29.1c-.213.834-.213.834-.25 1.005-.154.717-.186 1.116.048 1.445.315.462.924.581 2.963.581 1.192 0 1.736-.03 2.24-.126a1.98 1.98 0 0 0 1.474-1.207c.147-.375.179-.467.509-1.623l.675-2.548h-1.88l-.656 2.472zM50.483 26.627h-6.548l-.427 1.608h2.295l-1.013 3.82h1.959l1.013-3.82h2.294zM55.462 28.637c-.085.32-.158.415-.248.463-.094.057-.094.057-.843.071h-2.013l.254-.96h2.103c.662.008.69.01.752.04.029.013.087.041-.005.386m1.922-.153c.227-.854.257-1.315-.178-1.628-.32-.229-.32-.229-2.145-.229h-3.91l-1.44 5.427h1.882l.345-1.298h2.1c.542 0 .674.012.711.072.055.08.03.267-.102.768l-.122.458h1.858l.155-.585c.207-.708.279-1.115.103-1.38a.538.538 0 0 0-.175-.164c.056-.027.109-.056.163-.092.365-.227.541-.543.755-1.349M57.283 32.054h1.959l1.44-5.427h-1.959zM67.898 26.627H61.35l-.427 1.608h2.295l-1.013 3.82h1.959l1.012-3.82h2.295zM68.566 26.627l-1.44 5.427h1.959l1.44-5.427zM76.21 29.444c-.17.636-.273.795-.427.895-.21.129-.43.161-1.692.161-1.222 0-1.477-.022-1.598-.14-.084-.084-.094-.226.07-.847.168-.632.272-.91.395-1.068.183-.234.266-.264 1.813-.264 1.37 0 1.516.027 1.59.153.07.125.03.426-.152 1.11m1.954-2.498c-.353-.337-.807-.396-3.04-.396-2.218 0-2.696.056-3.204.377-.508.322-.78.869-1.171 2.341-.378 1.422-.47 2.079-.065 2.468.353.336.81.395 3.056.395 2.18 0 2.686-.06 3.187-.377.515-.325.78-.859 1.183-2.379.407-1.536.42-2.08.054-2.43M84.376 30.369l-1.648-3.742H79.76l-1.44 5.427h1.914l.96-3.761 1.667 3.761h2.942l1.44-5.427H85.33z"/>
    </g>
</svg>
