<svg xmlns="http://www.w3.org/2000/svg" xmlns:xlink="http://www.w3.org/1999/xlink" width="49" height="70" viewBox="0 0 49 70">
    <defs>
        <path id="a" d="M.281.17h4.547v4.5H.281z"/>
    </defs>
    <g fill="none" fill-rule="evenodd">
        <path fill="#000" d="M45.643 67.673V66.8h.303c.152 0 .276.007.405.101a.431.431 0 0 1 .023.648c-.106.101-.293.123-.434.123h-.297zm-.547 1.528h.547V68.08h.005l.764 1.122h.677l-.8-1.082a.922.922 0 0 0 .524-.279c.146-.155.243-.423.243-.635a.952.952 0 0 0-.344-.721c-.22-.184-.484-.2-.766-.207h-.85v2.924zM39.992 5.572v42.291c0 1.846-1.511 3.335-3.366 3.335H5.614c-1.863 0-3.374-1.489-3.374-3.335V5.573c0-1.848 1.511-3.346 3.374-3.346h31.012c1.855 0 3.366 1.498 3.366 3.345zm-.563 42.291a2.795 2.795 0 0 1-2.803 2.785H5.614c-1.553 0-2.81-1.246-2.81-2.785V5.573c0-1.538 1.257-2.786 2.81-2.786h31.012a2.797 2.797 0 0 1 2.803 2.785v42.291z"/>
        <path fill="#000" d="M5.613 0h31.015c3.096 0 5.612 2.495 5.612 5.573V47.86c0 3.079-2.516 5.565-5.612 5.565H5.613C2.508 53.426 0 50.94 0 47.86V5.573C0 2.495 2.508 0 5.613 0zm31.015.559c2.785 0 5.048 2.244 5.048 5.014V47.86c0 2.77-2.263 5.015-5.048 5.015H5.613c-2.794 0-5.057-2.245-5.057-5.015V5.573c0-2.77 2.263-5.014 5.057-5.014h31.015zM6.365 55.728H36.89c3.103 0 5.611 2.486 5.611 5.565v2.851c0 3.069-2.508 5.564-5.611 5.564H6.365c-3.097 0-5.614-2.495-5.614-5.564v-2.851c0-3.08 2.517-5.565 5.614-5.565zm30.525.55c2.793 0 5.055 2.244 5.055 5.015v2.851c0 2.762-2.262 5.006-5.055 5.006H6.365c-2.787 0-5.05-2.244-5.05-5.006v-2.851c0-2.771 2.263-5.015 5.05-5.015H36.89z"/>
        <path fill="#000" d="M40.263 61.292v2.851c0 1.845-1.512 3.337-3.375 3.337H6.364C4.511 67.48 3 65.988 3 64.143v-2.85c0-1.848 1.512-3.339 3.365-3.339h30.524c1.863 0 3.375 1.491 3.375 3.338zm-.565 2.851c0 1.54-1.258 2.779-2.81 2.779H6.364c-1.542 0-2.801-1.24-2.801-2.779v-2.85a2.796 2.796 0 0 1 2.801-2.786h30.524c1.553 0 2.81 1.247 2.81 2.785v2.851zM11.21 17.148v-6.01h16.56L6.364 43.341C5.32 44.874 5.81 47.8 8.825 47.8h25.327s2.671-.074 2.671-3.483v-8.208h-6.102v5.841H14.51L35.981 9.47c.768-.906.278-4.043-3.088-4.043-4.143 0-24.968-.009-24.968-.009s-2.33.293-2.33 3.146v8.582l5.614.003z"/>
        <g transform="translate(43.346 65.293)">
            <mask id="b" fill="#fff">
                <use xlink:href="#a"/>
            </mask>
            <path fill="#000" d="M.281 2.424A2.266 2.266 0 0 1 2.556.17a2.265 2.265 0 0 1 2.273 2.254c0 1.245-1.018 2.247-2.273 2.247C1.3 4.67.28 3.669.28 2.424M2.556.478c1.08 0 1.964.87 1.964 1.946 0 1.07-.884 1.942-1.964 1.942A1.954 1.954 0 0 1 .592 2.424C.592 1.35 1.47.478 2.556.478" mask="url(#b)"/>
        </g>
        <path fill="#000" d="M10.875 63.499v-1.093h4.966v2.576c-.501.273-1.21.509-2.127.706-.917.198-1.838.295-2.763.295-1.126 0-2.12-.129-2.981-.387-.86-.255-1.543-.64-2.045-1.154-.503-.515-.755-1.118-.755-1.812 0-.712.256-1.32.765-1.827.509-.506 1.17-.883 1.983-1.133.813-.25 1.787-.375 2.919-.375 1.361 0 2.451.16 3.271.484.82.321 1.346.793 1.58 1.417l-2.278.243c-.17-.333-.484-.589-.94-.763-.456-.178-1-.266-1.633-.266-.981 0-1.775.177-2.383.534-.606.354-.91.895-.91 1.62 0 .779.328 1.372.988 1.778.562.35 1.324.526 2.286.526.45 0 .917-.05 1.4-.147a6.195 6.195 0 0 0 1.298-.404V63.5h-2.64zM24.028 63.483l-1.576-2.334-1.545 2.334h3.121zm4.239 2.488H25.77l-1-1.424h-4.568l-.944 1.424H16.81l4.443-6.29h2.44l4.575 6.29zM28.895 64.2l2.249-.12c.251.803 1.082 1.206 2.486 1.206.698 0 1.244-.084 1.642-.248.399-.163.6-.368.6-.61 0-.143-.07-.265-.21-.365-.138-.1-.351-.182-.636-.247-.284-.064-.974-.172-2.07-.323-.98-.133-1.698-.28-2.155-.437-.454-.158-.819-.364-1.086-.62-.27-.256-.403-.53-.403-.825 0-.343.171-.651.517-.927.344-.273.821-.48 1.429-.62.605-.14 1.358-.21 2.25-.21 1.34 0 2.388.164 3.14.493.755.33 1.153.8 1.197 1.412l-2.306.055a1.06 1.06 0 0 0-.656-.708c-.335-.134-.811-.2-1.433-.2-.62 0-1.097.057-1.434.175-.334.116-.503.26-.503.435 0 .172.151.315.46.431.3.119 1.002.248 2.096.387 1.157.152 1.994.311 2.511.48.515.166.908.381 1.18.647.272.264.409.584.409.963 0 .546-.372 1.004-1.116 1.376-.742.37-1.907.559-3.488.559-2.797 0-4.355-.72-4.67-2.16"/>
    </g>
</svg>
