<svg xmlns="http://www.w3.org/2000/svg" xmlns:xlink="http://www.w3.org/1999/xlink" width="58" height="68" viewBox="0 0 58 68">
    <defs>
        <path id="a" d="M.012 9.51H57.99v58.115H.012z"/>
    </defs>
    <g fill="none" fill-rule="evenodd">
        <path fill="#1D1D1B" d="M2.137 12.244a.964.964 0 0 0-.743.325.997.997 0 0 0-.286.773c.028.338.19.571 1.027 1.361.838.79 1.08.937 1.419.945a.99.99 0 0 0 .75-.333.974.974 0 0 0 .28-.764c-.028-.339-.183-.578-1.02-1.368-.84-.79-1.087-.932-1.427-.94m3.554 2.16c.019.596-.162 1.131-.628 1.626-.466.497-.993.717-1.587.734-.855.027-1.388-.498-2.14-1.209-.753-.708-1.309-1.21-1.334-2.065-.019-.596.166-1.138.633-1.635.466-.496.988-.709 1.58-.727.856-.027 1.395.494 2.147 1.202.752.71 1.303 1.217 1.329 2.074M7.09 9.813c-.237-.025-.406-.006-.615.165-.26.212-.388.641-.038 1.074l1.667 2.052-.848.69-2.764-3.403.828-.675.265.325c.004-.328.191-.764.556-1.062.333-.27.636-.377 1.062-.334L7.09 9.813zM9.432 7.871c-.547.347-.306.852.005 1.342.312.49.67.93 1.216.583.545-.348.307-.865-.004-1.355s-.671-.918-1.217-.57m2.643 4.37c-.569.362-1.03.497-1.647.371l.205-.95c.332.07.593.024.903-.175.553-.352.497-.864.258-1.242l-.238-.376c-.07.423-.283.7-.645.93-.361.23-.75.308-1.086.233-.569-.127-.9-.585-1.31-1.231-.409-.646-.678-1.134-.551-1.704.075-.336.317-.66.678-.89.39-.248.712-.306 1.147-.184l-.22-.348.893-.568 2.262 3.566c.564.888.343 1.936-.65 2.569M14.974 6.693l-.786.363c-.359.166-.48.427-.35.708.127.276.395.376.784.196.276-.126.44-.23.538-.48.061-.15.026-.328-.088-.574l-.098-.213zm.798 1.674l-.16-.346c-.143.392-.342.623-.8.835-.45.207-.832.245-1.177.116-.317-.122-.579-.392-.74-.742-.293-.636-.097-1.358.828-1.785l.939-.433-.093-.2c-.2-.436-.501-.528-1.029-.285-.381.176-.516.35-.611.683l-.92-.327c.192-.61.518-.909 1.183-1.216 1.114-.515 1.913-.308 2.342.626l1.207 2.625-.97.449zM20.083 6.815l-.774-2.537c-.176-.57-.594-.654-.924-.553-.33.1-.64.408-.467.979l.776 2.537-1.045.321-1.28-4.196 1.02-.314.118.387c.184-.373.526-.637.912-.754.417-.129.796-.095 1.102.067.44.234.648.602.788 1.06l.819 2.683-1.045.32zM22.153 6.313l-.835-4.31 1.072-.209.836 4.309-1.073.21zm-.404-4.953a.686.686 0 1 1-.26-1.347.677.677 0 0 1 .797.54.687.687 0 0 1-.537.807zM24 5.934l-.083-.83 1.677-2.75-1.824.183-.097-.981 3.21-.324.084.83-1.701 2.755 1.957-.197.097.98zM30.397 3.768l-.864-.02c-.395-.009-.618.17-.625.483-.007.301.19.508.618.519.303.008.496-.014.694-.195.12-.106.166-.282.173-.552l.004-.235zM30.38 5.62l.009-.379c-.3.288-.58.407-1.084.396-.496-.012-.855-.146-1.109-.414-.23-.25-.347-.606-.338-.992.018-.7.509-1.262 1.525-1.238l1.033.024.006-.219c.01-.48-.22-.696-.8-.71-.419-.009-.615.089-.848.343l-.68-.697c.438-.462.861-.588 1.592-.57 1.227.03 1.853.565 1.83 1.593l-.068 2.888-1.068-.025zM34.595 2.573c-.648-.103-.814.417-.926 1.125-.111.708-.114 1.261.534 1.363.648.103.825-.423.935-1.131.112-.707.104-1.255-.543-1.357zm.227 3.534l.064-.408c-.352.285-.686.361-1.144.289-.422-.068-.797-.28-1-.56-.365-.5-.255-1.25-.152-1.901.102-.649.226-1.389.725-1.753.28-.203.694-.29 1.116-.224.441.07.755.238.989.6l.308-1.974 1.081.172-.932 5.924-1.055-.165zM39.923 4.022c-.084-.157-.226-.269-.437-.333a.666.666 0 0 0-.536.04c-.282.152-.416.508-.547.943-.132.435-.218.813-.065 1.095a.661.661 0 0 0 .426.331c.209.063.39.048.547-.036.282-.153.418-.516.547-.95.131-.436.216-.807.065-1.09m.015 2.898c-.34.197-.839.308-1.456.122-.621-.187-.966-.554-1.142-.906-.26-.51-.213-1.015.018-1.78.227-.758.466-1.204.964-1.484.339-.197.83-.313 1.449-.126.62.187.973.557 1.147.909.26.509.214 1.014-.014 1.771-.23.767-.47 1.213-.966 1.494M46.015 6.376c-.58-.309-.904.13-1.239.762-.332.633-.513 1.158.067 1.463.58.307.909-.137 1.242-.77.332-.635.51-1.15-.07-1.455m-.22 3.395c-.33.102-.75.052-1.128-.148-.394-.208-.629-.466-.733-.883l-.929 1.765-.966-.51 2.79-5.304.938.495-.192.365c.423-.157.772-.114 1.18.101.38.2.659.52.76.85.183.59-.159 1.258-.464 1.84-.305.58-.667 1.246-1.256 1.429M50.422 9.378a.69.69 0 0 0-.304-.457.673.673 0 0 0-.523-.138c-.316.053-.557.346-.821.717-.263.369-.469.698-.416 1.017.029.175.119.323.297.45a.687.687 0 0 0 .528.142c.317-.051.563-.352.827-.722.266-.37.465-.691.412-1.01m-.92 2.748c-.384.076-.893.02-1.42-.357-.526-.376-.733-.837-.785-1.227-.082-.565.125-1.03.59-1.678.459-.645.83-.99 1.39-1.095.386-.075.888-.027 1.413.352.526.377.741.843.794 1.233.08.565-.125 1.027-.585 1.67-.465.653-.836.997-1.398 1.102M54.18 12.644c-.01-.239-.054-.403-.252-.585-.248-.227-.69-.292-1.064.119l-1.784 1.948-.804-.74 2.958-3.234.786.723-.283.31c.325-.043.78.08 1.128.398.316.291.463.576.484 1.004l-1.17.057zM55.132 15.084a.734.734 0 0 1 .053-1.034.737.737 0 0 1 1.037.047.74.74 0 0 1-.057 1.04.73.73 0 0 1-1.033-.053m-1.65 1.496a.731.731 0 1 1 1.083-.981.731.731 0 0 1-1.083.981"/>
        <mask id="b" fill="#fff">
            <use xlink:href="#a"/>
        </mask>
        <path fill="#1D1D1B" d="M11.236 20.768c.363-.384.463-.68.202-.929-.198-.18-.419-.189-.633-.068-.082.047-.159.113-.24.192l-.545.58.751.72.03-.03.435-.465zm44.209 9.576c-.426-1.212-1.262-1.925-2.289-1.558-1.853.655-.357 3.278-1.085 3.533-.23.084-.46-.131-.598-.534a.859.859 0 0 1-.036-.495.6.6 0 0 1 .292-.402l-.539-1.53c-.866.348-1.316 1.454-.864 2.736.473 1.338 1.354 2.078 2.477 1.686 1.755-.627.32-3.266 1.05-3.523.173-.06.327.059.45.407a.969.969 0 0 1 .057.443.446.446 0 0 1-.24.352l.53 1.512c.806-.418 1.272-1.279.795-2.627zM50.5 28.742c.394-.248.601-.458.705-.666.131-.265.074-.524.006-.853.48.436 1.06.393 1.579.069.877-.556.974-1.307.033-2.806l-1.335-2.129-.273.173-4.223 2.655.917 1.48 1.571-.985.285.453c.426.687.302.908-.289 1.27-.398.256-.663.478-.739.575l.942 1.5.13-.085c-.11-.175.106-.283.69-.65zm-.903 9.858c.02-11.4-9.184-20.66-20.558-20.68-11.373-.019-20.61 9.211-20.63 20.61-.02 11.399 9.186 20.661 20.56 20.681 11.374.02 20.61-9.207 20.628-20.611zM38.241 63.64l.684-.175-.314-1.181-.68.178-.896-3.366-1.147.312-.166.047-1.893 4.026.329 1.246 1.722-.454 1.042-.28.27 1.025 1.32-.352-.27-1.026zm-4.839.71a1.514 1.514 0 0 0-.282-.785 1.541 1.541 0 0 0-.722-.535c.22-.17.375-.342.476-.513.124-.232.182-.476.168-.726-.026-.437-.234-.79-.616-1.05-.344-.24-.847-.347-1.506-.326-.07 0-.13.005-.191.01-.57.042-1.018.186-1.347.44-.423.333-.62.73-.587 1.2.018.292.114.542.28.748.13.157.316.29.567.405-.308.148-.532.343-.669.584-.14.238-.196.52-.173.856.019.34.12.637.305.903.181.262.441.454.76.568.259.098.61.146 1.046.142.105-.003.215-.01.34-.018.312-.025.614-.072.888-.15.277-.086.503-.199.68-.348.183-.144.332-.348.437-.598.116-.253.164-.524.146-.806zm-5.358-2.584c-.148-.445-.383-.786-.7-1.017-.311-.241-.749-.39-1.31-.46-.056-.008-.1-.015-.158-.017-.402-.034-.74 0-1.032.103a1.86 1.86 0 0 0-.815.606c-.21.285-.341.612-.39.992-.066.549.05 1.017.351 1.419.303.397.706.63 1.206.695.246.03.468.014.674-.043l.022-.009c.21-.065.418-.181.627-.35-.129.596-.254.982-.375 1.154a.917.917 0 0 1-.275.252.634.634 0 0 1-.36.057.513.513 0 0 1-.337-.18c-.093-.1-.14-.262-.151-.487l-1.572.004c.055.314.157.575.302.796.145.221.341.402.586.534.243.135.587.229 1.035.286.168.023.339.03.495.023.534-.015.989-.182 1.36-.508.488-.419.79-1.137.918-2.146.084-.689.049-1.259-.1-1.704zm-5.04-2.161l-1.231-.403a2.603 2.603 0 0 1-.938.639c-.356.133-.808.204-1.376.202l-.399 1.222c.377.007.699-.01.967-.047.263-.04.555-.12.858-.221l-1.173 3.584 1.51.496 1.782-5.472zM7.886 31.986l-1.56-.474.255-.832c.442-1.443-.041-2.29-1.12-2.62a1.697 1.697 0 0 0-.717-.083c-.703.065-1.282.613-1.617 1.7L2.39 32.09l2.346.727 2.65.809.5-1.64zm-3.314-5.65l4.46 2.538 2.114-3.74-1.041-.588L8.82 26.81l-.704-.397L9.16 24.57l-1.044-.593-1.038 1.841-.634-.358 1.23-2.183-1.042-.584-2.06 3.641zm3.389-5.394l2.837 2.705.942.9 1.173-1.245-1.312-1.254.359-.374c.55-.58.79-.515 1.284-.034.338.316.605.513.716.557l1.195-1.254-.109-.105c-.144.146-.298-.028-.787-.5-.761-.726-1.088-.574-1.61-.316.299-.553.112-1.101-.319-1.52-.47-.444-.94-.568-1.522-.277-.335.166-.714.469-1.151.933L7.96 20.942zm4.741-4.557l1.535 2.408c.936 1.474 1.992 1.503 3.309.661 1.414-.901 1.664-1.906.792-3.274l-1.53-2.413-1.396.89 1.62 2.555c.3.463.35.873-.15 1.195-.574.371-.886.057-1.157-.357l-1.619-2.557-1.404.892zm8.461-4.284l1.172 5.136 1.572-.358.107-.025-.107-.46-.298-1.328.3-.074.215-.042c.782-.18.948.012 1.096.686.104.46.22.77.29.872l1.703-.386-.03-.152c-.203.047-.236-.186-.384-.856-.237-1.039-.597-1.088-1.18-1.163.555-.307.705-.865.574-1.458-.212-.935-.808-1.292-2.276-1.017-.106.022-.217.044-.329.07l-2.425.555zM27.67 13.8c-.071 1.751.775 2.39 2.35 2.454 1.683.068 2.465-.615 2.534-2.248l.111-2.871-1.66-.067-.125 3.044c-.018.546-.211.92-.81.898-.68-.027-.763-.465-.742-.964l.12-3.04-1.659-.075-.12 2.869zm5.32 2.55l1.534.494.496-1.546.3-1.134.89 3.223 1.501.48 1.572-4.887-1.538-.5-.5 1.561-.293 1.13-.894-3.227-1.497-.483-1.57 4.89zm8.394-2.64l-2.82 4.491 1.407.887.895-1.423.582-1.056.064 3.453 1.377.867 2.821-4.487-1.402-.882-.907 1.423-.58 1.053-.057-3.452-1.38-.873zm5.843 4.02l-3.664 3.688 3.068 3.061.855-.86-1.868-1.859.581-.582 1.518 1.514.85-.86-1.512-1.509.523-.531 1.79 1.791.85-.859-2.99-2.993zM57.99 38.616c-.027 16.045-13.026 29.037-29.037 29.01C12.947 67.597-.016 54.56.012 38.515.039 22.47 13.046 9.486 29.052 9.51c16.011.03 28.965 13.058 28.938 29.105zM23.912 13.812l.104-.021c.52-.124.77-.315.688-.671-.088-.359-.402-.473-.79-.392l-.011.005-.783.182.23 1.026.562-.13zM51.21 26.075c.154.103.312.108.49 0 .316-.204.312-.547.096-.892l-.43-.69-.154.097-.743.465.362.587c.13.2.25.35.379.433zM25.96 61.26h-.086a.653.653 0 0 0-.458.176c-.154.14-.25.364-.289.673-.046.312 0 .566.117.75a.675.675 0 0 0 .5.314.723.723 0 0 0 .578-.17c.165-.15.269-.367.3-.663.041-.31-.003-.556-.139-.748a.76.76 0 0 0-.523-.332zm9.923.401l-.73 1.546.728-.199.725-.19-.458-1.723-.265.566zm-4.967 1.006c.021 0 .042-.004.072-.004a.592.592 0 0 0 .427-.202.648.648 0 0 0 .144-.471.707.707 0 0 0-.214-.466.623.623 0 0 0-.427-.15h-.04a.64.64 0 0 0-.464.211.675.675 0 0 0-.144.475.646.646 0 0 0 .214.46c.117.096.26.147.432.147zM4.992 29.627a.465.465 0 0 0-.25-.015c-.298.067-.455.452-.542.735l-.145.46.683.213.429.128.204-.683c.122-.387.05-.713-.379-.839zm26.566 34.168c.159.151.249.35.267.598a.872.872 0 0 1-.18.627.696.696 0 0 1-.487.275.76.76 0 0 1-.246-.028.953.953 0 0 1-.291-.173.862.862 0 0 1-.268-.597c-.019-.262.04-.473.18-.64a.7.7 0 0 1 .383-.25c.033-.004.065-.016.105-.016a.706.706 0 0 1 .537.204zm6.268-29.835l.22.018.054.007.023-.32-.076.076-.221.219zm.22.342c-.12-.008-.385-.045-.603-.077 0-.088.014-.202.037-.227l.448-.54.12-.125.311-.328a.342.342 0 0 1 .221.034 7.875 7.875 0 0 1-.103 1l.16.037c.013.093.013.123-.025.272l-.221-.021-.025.405c-.12.048-.176.017-.268-.034l-.009-.394s-.02-.002-.042-.002zm-1.606-.163c-.008.007-.028.012-.038.018-.13.084-.211.266-.193.37.033.03.12.056.23.086.225.05.556.096.844.097a.4.4 0 0 0 .063-.327c-.173-.02-.508-.059-.666-.068.595-.284.898-.898.606-1.243-.282-.3-.627-.083-.844.196-.049.055-.086.116-.12.171-.025.033.034.134.119.16.02.006.043.014.063.008.1-.095.186-.26.34-.323.182.001.272.125.245.266-.088.184-.395.468-.65.589zm-7.047-.417l.403.03-.404.995-.111.272c.03.016.073.03.11.047a.373.373 0 0 0 .208.024c.164-.493.443-1.02.663-1.52.13-.194-.537-.122-.87-.163a1.13 1.13 0 0 1-.107-.018.559.559 0 0 0-.04.318l.148.015zm1.03-7.27a.22.22 0 0 1-.134-.04c-.102.043-.193.134-.174.248.081.169.183.086.307.061a.18.18 0 0 1 .16.021c.076-.031.143-.107.143-.194-.054-.183-.182-.104-.303-.095zm5.253 8.477c.164-.002.311 0 .47.001.096.007.192.009.293.017.533.026 1.064.077 1.606.115.235.016.476.032.713.043.216-.657.036-.986.122-1.35l.006-.017c.066-.352.107-.89.087-1.07l-.091-.005c-.277-.027-.559-.04-.833-.055a29.472 29.472 0 0 0-1.606-.033c-.1.005-.196.003-.292.006-.068.004-.14.004-.201.01-.034 0-.123.692-.165 1.052-.06.646-.078.851-.109 1.286zm.47.313a14.478 14.478 0 0 0-.81-.039c.02-.536.045-1.13.089-1.612.044-.505.098-.913.209-1.357.192.002.354.01.517.01h.292c.107-.006.21-.01.336-.011.292.003.733-.014 1.271-.013h.296c.014.006.268.022.537.051.169.01.336.026.466.045-.088 1.036-.152 2.09-.36 3.106l-.112-.009c-.344-.02-.482-.029-.832-.029h-.05c-.287-.023-.866-.053-1.556-.12-.008.002-.135-.01-.293-.022zM25.53 27.974c.124.106.272.206.477.293.096-.003.605-.01.929-.114.132-.038.231-.097.257-.176.2-.07.323-.381.566-.399a.59.59 0 0 0 .062.097c.117.14.263.268.213.452.1.217-.12.36-.215.534-.013.03-.026.057-.03.088-.12.14-.356.115-.417.304.042.056.159.464.237.835-.033.224.058.537.207.857.158.322.383.653.632.896.048.051.097.093.15.137.272.051.55.034.8-.054a1.35 1.35 0 0 0 .802-.717c.086-.533.03-1.036.069-1.564-.037-.09-.116-.205-.22-.22-.145.708.059 1.55-.478 2.073-.058.013-.11.02-.173.04-.278.075-.59.156-.762-.152-.076-.187-.095-.463.045-.622.035-.383.485-.442.658-.734-.02-.07-.036-.128-.107-.174a.927.927 0 0 1 .17-.533.737.737 0 0 1 .327-.252c.273-.07.125-.406.148-.594.11-.217-.071-.52.176-.669.037-.06.028-.16-.064-.16-.08-.17-.27-.352-.124-.55-.142-.107.065-.246-.057-.372.046-.191-.038-.367-.186-.492-.06-.269-.06-.596.132-.802.149-.007.288-.061.423-.064.076.074.162.148.248.233.148.147.277.302.368.465l.1.028a.519.519 0 0 0 .078-.12c.018-.02.029-.046.042-.07-.019-.014-.024-.026-.042-.043-.03-.05-.008-.1 0-.157.035-.075.066-.153 0-.237l-.004-.013c0-.01.005-.026.005-.026.034-.058.023-.113 0-.176-.01-.058-.033-.123.001-.178l.008.001c.01-.043.01-.08-.008-.11-.034-.111-.164-.196-.244-.266-.096-.046-.203-.045-.303-.048-.216 0-.421.013-.556-.2-.159 0-.3-.037-.413-.128-.011-.002-.031-.005-.048-.005-.368-.008-.67.143-.927.39h-.022c-.268-.013-.416.333-.634.435a.274.274 0 0 1-.216.02c-.076.061.012.136-.015.222-.264.178-.102.474-.199.733-.027.225.14.562-.08.751-.1.183-.245.081-.378.092-.033 0-.06.015-.094.04-.216-.193-.48-.121-.732-.065-.048.156.077.285.056.455.018.425-.354.314-.637.299a.405.405 0 0 0-.21.03c0 .101.003.182.055.293.044.052.099.108.154.163zm15.682 7.547c.126-.55.5-1.21.043-1.693-.106-.03-.193 0-.271.061-.118.101-.22.282-.336.38a5.91 5.91 0 0 0-.139.904 5.781 5.781 0 0 0 .002.762c.062.1.178.149.292.168.055-.074.121-.147.177-.217.107-.115.2-.233.232-.365zm-.412 1.684c-.016-.158-.141-.343-.295-.457a.894.894 0 0 0-.142-.087c-.053.05-.17.104-.151.189.125.138.097.268.264.39h.028c.093.005.217.008.296-.035zm-.785-2.134a.79.79 0 0 1-.052-.498c-.063.08-.11.154-.16.232-.215.372-.222.662-.301.957-.012.125-.04.338.007.501.048.032.077.11.097.343a1.02 1.02 0 0 1 .195-.398c.073-.088.155-.17.25-.26.116-.033.093-.474-.036-.877zm-.736 7.138c.251-.985.19-2.057.217-3.081-.126-.26-.37-.291-.626-.248-.167.026-.339.088-.472.133-.266 1.12-.105 2.366.434 3.34-.21.134.144.275-.062.415-.155.654-.587 1.229-.742 1.885a.763.763 0 0 0-.014.04c-.038.083-.024.164.014.245.033.077.084.155.114.227.096.053.244.063.312-.065.145-.426.278-.858.41-1.3.101-.337.198-.671.294-1.005-.072-.202.256-.358.12-.586zm-2.652 2.626c-.122-.97.09-1.978-.199-3.11-.006-.025-.01-.052-.02-.076-.029-.069-.119-.048-.172.045-.022.175-.07.788-.104 1.564-.03.56-.049 1.21-.066 1.837.032.476-.34.719-.506 1.101-.196.256-.52.39-.834.387-.37-.002-.721-.2-.797-.633-.12-.093-.016-.2-.116-.3-.553-.843-.853-3.183-.597-4.677.094-.419.037-.897.134-1.697-.087-.002-.178-.002-.273-.011-.275-.017-.562-.078-.733-.343-.158-.281-.243-1.201-.17-1.844-.222-.153-.071-.564-.292-.906-.022-.097-.098-.189-.205-.2a.652.652 0 0 0-.202.168c-.115.125-.221.246-.432.18a.576.576 0 0 1-.091.008c-.21 0-.31-.29-.532-.276-.008.003-.013.016-.013.016-.246.29-.136.663-.041.987.01.023.021.048.037.078.426 1.002.38 3.135-.008 5.18a15.447 15.447 0 0 1-.721 2.563c-.066.416-.185.783-.185 1.209.033.164-.027.306-.118.436-.055.08-.12.16-.18.238-.145.485-.455 1.16-.772 1.76-.218.412-.44.78-.635 1.035a.877.877 0 0 1-.073.092c-.28.38-.575.832-.814 1.289a4.927 4.927 0 0 0-.462 1.192c.12.115.345.359.34.528.035.048.076.098.118.151.106.12.22.231.331.231.16-.027.295-.265.472-.129.027-.012.056-.021.083-.03.154-.055.313-.097.46-.177.054.004.115 0 .173-.007.183-.029.354-.113.539-.146l.41.025.403.01c.209-.044.399.032.609.002h.005c.181-.01.37-.023.547-.031.183-.005.35-.01.523-.01.206-.003.416-.003.621-.002.313-.063.674.045.985-.023.048-.012.1-.022.143-.046.23.148.412-.126.623-.01.083-.093.083-.01.345-.229-.149-.061-.19-.487-.023-.626.198-.355.405-.728.579-1.018.033-.055.07-.104.105-.152.158-.62.396-1.388.438-1.642.05-.979.287-2.075.47-2.198-.009-.166.158-.561.395-.957.091-.154.182-.309.293-.452.028-.034.052-.072.076-.106.033-.007.087-.166.129-.248zm-1.726 7.072a.19.19 0 0 0-.183-.113.254.254 0 0 0-.168.113c-.038.09.006.176.104.185a.13.13 0 0 1 .064-.051c.076-.04.167-.04.183-.134zm-7.647 1.67c-.024-.076-.163-.142-.362-.125a.25.25 0 0 1-.042.001c-.353.108-.465.25-.078.17.044-.01.088-.014.12-.02.226-.008.323.115.362-.027zm-.217-7.496c.217-.2.382-.59.35-.947-.097-1.285.328-2.535.41-3.806.018-.261.02-.518.002-.783-.005-.067-.01-.138-.024-.206-.118-.374-.462-.55-.86-.672-.334-.102-.712-.162-1.01-.27-.111-.001-.198.133-.24.214-.089.118-.135.297-.156.522a3.513 3.513 0 0 0-.002.589c.059.82.334 1.892.756 2.741.124.342.219.822.25 1.248.14.61-.422 1.233.392 1.357.038 0 .08.01.132.013zm-1.532-.722l-.006-.01c-.121-.237-.145-.518-.207-.778-.063-.086.062-.192-.051-.264-.242-.055-.28.237-.385.364-.096.152.014.302.095.426-.053.128.08.262-.04.39 0 .117.048.25.15.347.133.112.328.147.427-.038l.007-.016c.024-.058.016-.102.004-.153-.018-.085-.055-.166 0-.259l.006-.01zm-.008-9.33l.017-.01c.099-.057.149-.172.23-.252.09-.397-.158-.773-.102-1.375-.042.03-.077.065-.124.097a2.95 2.95 0 0 1-.852.421 1.706 1.706 0 0 1-.29.067c.117.061.209.122.29.175.12.087.196.158.264.202.15.177.532.288.394.57.031.063.092.12.173.105zm-.833-.18l.02-.002c.013-.017.043-.021.034-.05-.019-.024-.033-.042-.053-.047a.09.09 0 0 0-.063-.001c-.003.043.014.098.062.1zm.348.917c-.128.026-.254.05-.35.068-.094.017-.155.03-.155.03-.165-.104-.225.117-.133.453-.056-.056.052.282.221.683.014-.121.033-.238.067-.354.096-.398.24-.745.35-.88zm-.977.878a.548.548 0 0 1-.039-.132c-.063-.237-.084-.565-.048-.737-.209-.121-.576-.617-.773-.145-.068.02-.132.033-.203.044a3.36 3.36 0 0 1-1.113-.035c-.46-.092-.912-.269-1.344-.464-.19-.092-.389-.182-.577-.277-.154-.038-.406-.187-.517.053.025.26.264.492.477.609.01.087.035.23-.066.297-.183.023-.395-.002-.553.095-.211.275-.226.499-.23.835.033.079.121.168.21.175.417.123.846.23 1.253.382.205.078.405.17.594.278.336-.219-.164-.489.066-.702.365.059.583.484.638.852l.046.05c.244.24.496.504.73.783.119.035.244.077.38.116.35.106.734.177 1.027-.066.018-.013.03-.028.052-.048.205-.406.254-1.274-.01-1.963zm-2.688 1.881c-.249-.22-.52-.505-.836-.706a1.573 1.573 0 0 0-.698-.261c-.218.314-.261 1.375-.192 2.131.056.574.297 1.882.48 2.642-.024.166-.226.506-.205.853-.11.164-.154.405-.078.477.101.304.446.085.523.378.39.367-.173.667-.118 1.062-.313.966-.31 2.105.028 3.309.05.125.136.118.177-.02-.024-.56.013-1.156.068-1.694.072-.663.183-1.224.272-1.526.056-.334-.005-.639.06-.93-.056-.391-.014-.81-.01-1.219-.114-.145-.13-.4-.035-.502.166-.16.086-.415.2-.595.43-1.515.542-3.183.364-3.399zm-.855 10.582l.004-.01h-.004c-.043-.084-.126-.21-.212-.113.087.213-.094.417.086.587.06 0 .097 0 .125-.016.095-.042.03-.16.001-.274-.02-.064-.024-.123 0-.174zm.198 1.68c-.039-.078-.115-.1-.201-.105a1.186 1.186 0 0 0-.092-.004c-.155.159-.455.05-.524.318.095.178.362.07.51.115.028-.022.07-.046.106-.08a.675.675 0 0 0 .2-.244zm2.867-19.332c.233.42.073.65.188.843.08-.064.162-.122.26-.18.108-.068.222-.121.31-.166l-.115-.3c.01-.091-.062-.253-.072-.409-.035.006-.073.028-.124.038a4.13 4.13 0 0 0-.447.174zm.229-3.595c.004.287.003.639.223.899.018.02.03.04.053.06.1.123.155.327.339.349.072-.067.18-.107.274-.158.101-.058.186-.127.186-.271.05-.248-.027-.54-.184-.784a1.18 1.18 0 0 0-.666-.496c-.017-.004-.033-.007-.049-.007-.278.014-.035.283-.176.408zm.885 3.144c-.023.019-.047.03-.062.046-.02.12.01.252.062.38.117.316.338.634.133.769a.187.187 0 0 1-.135.05c-.095-.001-.197-.034-.274.056-.14.014-.262.081-.392.166-.096.057-.193.129-.315.19.031.052.056.392.035.696.031.149.183.249.127.334.055-.017.102-.022.151-.03.23-.055.455-.122.665-.213.241-.11.477-.247.7-.432a.43.43 0 0 0 .153-.12.854.854 0 0 0 .136-.438c-.091-.128-.1-.258-.045-.408-.037-.103-.058-.22-.089-.326a2.777 2.777 0 0 0-.32-.811c-.125-.058-.378-.008-.53.091zm3.75 15.071c-.022-.008-.033-.007-.057-.014-.195-.007-.391.182-.577.458-.31.48-.59 1.227-.778 1.737-.127.779.245.726.746-.111.005-.024.02-.044.029-.061.22-.428.383-.871.636-1.288l.003-.01c.063-.21.19-.416.163-.637 0-.034-.03-.051-.165-.074zm.558-.696c.224-.437.112-.659.26-1.123.038-.215.083-.426.135-.637.398-1.624 1.143-3.2.958-4.92-.02-.196-.24-.07-.348-.128-.23.091-.429.221-.6.375-.317.285-.534.632-.698.913-.182.285-.27 1.503-.13 2.543.198.65.312 1.677.229 2.065l-.279.176c-.011.122-.058.234-.083.35a.6.6 0 0 0 0 .358l.001.013c.08.312.502.428.555.015zm-3.137-7.505l.064.082c.316.018.681.036 1.01.133.293.082.56.23.737.49a.812.812 0 0 0 .148.155c.199.18.422.248.632.214.183-.034.347-.142.492-.333.123-.113.277-.239.459-.353.236-.15.505-.282.783-.357.283-.65-.121-1.39-.202-2.072-.053-.064-.096-.191-.201-.191-.12.028-.246.053-.376.072-.316.048-.633.08-.95.075-.21 0-.428-.018-.632-.053a2.718 2.718 0 0 1-.522-.13c-.154.027-.235-.092-.362-.115a.296.296 0 0 0-.065-.004c-.089.064-.072.173-.096.26.046.056.103.107.16.158.238.177.558.292.854.32.006.017.02.028.03.038.043.04.084.084.084.141a.404.404 0 0 1-.084.083.576.576 0 0 1-.245.099c-.25 0-.443-.083-.64-.175-.177-.083-.354-.169-.563-.194-.537.32-.527 1.068-.515 1.657zm.708-3.01c.119.057.245.104.373.14.304.095.615.143.884.144.276 0 .497-.048.633-.143.023-.023.05-.048.066-.076.035-.065-.011-.076-.066-.094-.032-.002-.076-.01-.086-.031-.176 0-.361-.014-.547-.04-.288-.035-.58-.094-.884-.12a2.092 2.092 0 0 0-.263-.024c-.196.018-.254.147-.11.245zm2.84-.04h-.004c-.133.054-.23.217-.243.374.077.12.156.11.246.086.078-.023.163-.055.26-.023.123-.048.288-.144.264-.304-.057-.24-.35-.091-.524-.133zm-2.076-.562c.164.042.328.074.494.1a6.74 6.74 0 0 0 1.581.064c.198-.013.396-.033.586-.063-.057-.213.227-.342.285-.54.015-.196.072-.369.15-.543.047-.125.105-.255.149-.392.066-.2-.019-.442.016-.788a10.228 10.228 0 0 1-1.181-.02c-.316-.022-.633-.049-.948-.074-.211-.01-.423-.025-.634-.032-.115-.005-.225-.006-.338-.005l-.124 1.543-.036.75zm3.633-.563l.007.02c.044.064.116.087.189.092.133-.098.345-.198.306-.408-.042-.04-.1-.133-.192-.099-.147.068-.24.202-.301.341 0 .016-.006.032-.009.054zm.53.637l-.01-.002c-.096.038-.186.141-.149.26.03.039.073.137.149.098l.01-.004c.076-.045.192-.12.164-.22a.25.25 0 0 0-.164-.132zm-.288-3.554c.072.358.202.754.293.931.024.04.034.068.056.09.035.04.106.04.145 0 .06-.077.004-.167-.019-.236.039-.34.001-.677.04-1.03.01-.396.001-.878-.184-1.213-.01-.036-.02-.07-.035-.102-.114-.278-.354-.353-.512-.153l-.01.005a1.79 1.79 0 0 0 0 .674l.04.098c.065.294.178.586.186.936zm1.348 6.113c-.073.32.042.645.09.666.08.176.263.246.45.205a.638.638 0 0 0 .327-.186c.06-.188-.164-.305-.278-.443-.052-.138.12-.176.177-.296-.013-.148-.094-.27-.223-.538a8.311 8.311 0 0 1-.11-.244c.032.094-.14.138-.34-.063-.09.45-.161.78-.093.9zm.103-1.643c.029.104.14.088.21.13.138-.041.073-.217.118-.293a.269.269 0 0 0 .114-.153.452.452 0 0 0 .001-.224c-.021-.118-.063-.24-.053-.344-.06-.134-.143-.295-.306-.295-.129.039-.023.184-.105.244.037.3-.066.615.02.935zm.429-2.063s.01.023.016.03c.076.19.2.584.273.827.04.29.104.94-.21 1.897-.02.067.123.333.3.54.35-.136.132-.703.38-.834.14-.353-.166-.59-.127-.925-.21-.348.216-.523.312-.789-.143-.226-.228-.736-.18-1.004-.047-.19-.047-.412-.013-.458-.025.077-.312.427-.735.705l-.016.011zm1.744 9.727c.109.285.306.232.388-.103.045-.47 0-.588.074-.665.14-.96.488-1.931.44-2.928-.06-.177-.248-.279-.42-.313-.252.114-.442.405-.558.793-.163.545-.18 1.272-.004 1.932l.054.173c.027.237.041.721.026 1.11zm-.752-6.058c.187.25.431.286.68.333.191.034.389.07.556.21-.086.248-.318.265-.557.252-.153-.01-.312-.038-.44-.026-.222-.053-.174.209-.294.299.054.059.076.146.179.13.19.01.373.047.554.103.461.142.911.362 1.4.341.087-.003.168-.015.255-.032l.038-.032c.493-.333 1.027-.713 1.607-.911.264-.087.547-.134.834-.118.063.005.121.008.182.017a.327.327 0 0 0 .246-.356c-.412-.473.024-1.135-.18-1.675-.025-.087-.123-.225-.239-.141h-.006c-.148-.119-.292.072-.427-.002-.138.004-.272.005-.406.009-.541.009-1.069.004-1.607 0l-.292-.002h-.398c-.283-.007-.503.015-.772-.012-.08-.012-.158-.012-.229-.012-.111 0-.227 0-.379-.027-.28.542-.324 1.154-.305 1.652zm2.027 14.736h.034c.023-.005.013-.026.014-.046l-.02-.001h-.028v.047zm.293-.046s.02.005.027.005c.034-.001.044-.04.045-.074-.02-.007-.03-.028-.044-.027l-.004-.006c-.058.001-.034.081-.024.102zM18.563 32.781c-.042-.218-.313-.485-.554-.547l-.006-.001c-.326.051-.613.351-.53.653-.017.153.027.622.087.916.11-.037.263.13.317.324.045-.02.09-.039.13-.066.408-.256.471-.884.556-1.279zm-1.159 2.057c-.066-.09-.05-.263-.181-.277 0 0-.015-.006-.03-.001-.128.028-.064.165-.152.225.016.193-.027.386.036.573a.574.574 0 0 0 .145-.103.51.51 0 0 0 .182-.417zm4.809-2.625c-.11-.005-.225-.014-.347-.021-.404-.02-.864-.03-1.343-.079-.162-.023-.34-.047-.514-.08l-.07.9.016.002-.002 1.498c.154.105.355.106.5.16l.065.007.192.023.918.095c.082-.06.19-.149.214-.397l-.45-.034-.436-.021c.002-.05.027-.11.052-.128.175-.31.536-.49.775-.734.079-.09.08-.211-.07-.367-.083-.079-.19-.041-.252.055-.044.1-.162.183-.22.117-.093-.049-.108-.174-.044-.252.07-.207.285-.259.364-.285.13-.01.221-.013.304.028a.438.438 0 0 1 .169.153c.12-.28.086-.412.179-.64zm-.209 1.362a.553.553 0 0 0-.14.12c-.04.046-.082.1-.115.144-.136.1-.163.118-.217.14l.33.029.035.002c.096.149.179.01.28-.053.054-.089-.025-.171-.173-.382zm19.105 3.414c-.015.286.117.657-.132.888l-.008.015c-.14.264-.293.284-.466.247-.196-.034-.412-.152-.636-.06-.001.356-.001.671-.012 1.02.084.784.05 1.559-.063 2.324-.173 1.24-.544 2.446-.931 3.642-.068.2-.131.396-.19.594-.18.487-.4.947-.646 1.392-.5.901-1.096 1.74-1.61 2.633a14.556 14.556 0 0 0-.601 1.178c.104.142.188.359.304.584.08.165.178.345.291.487.14.174.316.31.54.348.1.111.197.214.193.364-.154.208-.51.373-.71.345l-.024.004c-.097.007-.196.022-.292.03-.245.02-.493.03-.733-.063-.059.027-.316.071-.667.114-.503.068-1.185.13-1.663.158-.207.012-.38.012-.47-.001l-.14-.054-.996.01-.376.007a.711.711 0 0 0-.147-.013c-.133-.003-.283.02-.427.027-.019 0-.063 0-.12-.008l-1.017-.035c-.339-.002-.695-.003-.948.015-.18.016-.317.034-.377.067-.062.022-.144-.03-.257-.02a.397.397 0 0 0-.238.11c.28.184.132.344.088.539-.055.01-.37.038-.737.068-.541.049-1.194.1-1.272.106-.045.006-.087.01-.134.014a8.63 8.63 0 0 1-.851.013c-.224-.001-.444-.013-.666-.015-.22-.01-.445-.015-.673-.015-.099-.07-.227-.07-.353-.082a.779.779 0 0 1-.25-.05c-.06.05-.433.092-.863.108-.55.03-1.179.025-1.344-.02-.014 0-.019-.007-.03-.007-.129.102-.263.074-.42.09-.25.011-.584.029-.785-.161-.001-.095.076-.153.14-.2.143-.028.66-.037 1.095-.062.316-.018.594-.051.66-.112.214.137.356-.12.57-.03.017-.018.053-.035.115-.049.21-.054.653-.08 1.112-.114.382-.022.769-.046 1.027-.082.108-.011.192-.025.247-.043.151.035.215-.091.419-.131a.822.822 0 0 1 .348.014c-.084-.113-.098-.268-.035-.321a2.99 2.99 0 0 1 .486-.79c.016-.031.03-.071.055-.125.065-.143.155-.362.213-.515.24-.904.225-1.16.308-1.994.07-.78.497-1.902.894-2.353.025-.026.05-.047.072-.073.004-.064-.029-.118-.072-.163a.203.203 0 0 0-.082-.06c-.161.016-.212.222-.393.198-.227.028-.496-.01-.704.023-.177.178-.186.396-.23.606-.037.184-.1.355-.355.455-.158-.059-.336.097-.496-.046v-.017l-.399-.616c-.094-.228-.168-.636-.085-.9-.01-.3.221-.714.253-1.103.063-.422.04-.866.144-1.295a.319.319 0 0 1 .094-.178c.169-.2.54-.341.716-.189-.332-1.046-.65-2.103-.711-3.155a3.896 3.896 0 0 1-.007-.607c-.073-.091-.17-.193-.3-.177-.126.38-.243.776-.359 1.157-.118.393-.237.772-.367 1.123-.262.493-.489.96-.663 1.347-.296.638-.462 1.061-.446 1.061-.045.42-.324.754-.67.797a.678.678 0 0 1-.264-.023c-.046.14-.184-.125-.307.032-.318 1.366-.586 2.754-.545 4.148-.085.258.21.422.129.681.02.576.246 1.066.405 1.626l-.114.398c-.135.143-.345.476-.656.35l-.005.005c-.251.191-.628.04-.91.06-.274-.01-.324-.506-.616-.374-.184-.136-.32.149-.477-.046-.17.003-.331.014-.509.026-.093.007-.19.01-.295.016-.127-.039-.338.014-.487-.042l-.013-.002c-.125-.075-.293-.053-.363-.223.018-.14.18-.265.296-.325a6.235 6.235 0 0 0 .863.01c.235-.005.474-.016.711-.02.202.085.368-.156.583-.084.18-.791.644-1.586.408-2.469-.094-.482-.325-1.116-.456-1.27-.118-.19-.287-.813-.333-1.23-.05-.486.017-1.397.132-1.824.247-1.91-.696-3.694-.711-5.582.264-.446-.317-.715-.305-1.13L18 37.881a4.376 4.376 0 0 1 0-.792c.022-.145.048-.294.089-.435.225-.462.428-1.03.62-1.464-.054-.424-.053-.683-.079-.993-.222-.219-.38.225-.592.279-.011.007-.017.014-.033.023-.183.149-.215.44-.256.681.187.212-.12.345-.217.506-.086.085-.196.1-.311.1-.138 0-.29-.036-.426-.016-.161-.233-.643-.195-.487-.592.128-.339.1-.878.21-1.03.173-.241.217-.234.4-.311.035.02.179-.027.287-.104a3.288 3.288 0 0 1 .022-1.054c.064-.283.182-.532.396-.694.109-.177-.08-.33.033-.507-.018-.785-.194-1.719.278-2.455.03-.035.055-.068.08-.105.326-.411.864-.859 1.373-.695.01.01 0 .18.056.512.106.875-.664 1.768-.797 2.743.014.281-.018.509-.012.808.352.7.391 1.612.357 2.423.354.536.934.876 1.524 1.162l.037.02c.418.143.86.306 1.307.4.297.067.596.106.883.093.05.001.133-.007.23-.015.08-.016.161-.025.223-.045.03.015.29-.028.151-.185-.091-.117-.185-.273-.328-.344a.167.167 0 0 0-.031 0c-.38.048-.781.36-1.108.028a.208.208 0 0 1-.017-.03c-.032-.124-.022-.275-.13-.367-.016-.148-.022-.275-.18-.335-.328-.04-.684-.05-1.034-.112-.38-.066-.735-.193-.985-.482-.115-.907-.014-1.83.068-2.737 0-.08.03-.147.098-.196.268.113.546.167.824.201.446.05.895.04 1.343.06.14.007.281.02.424.035.192-.206.437-.434.691-.624.289-.23.57-.404.735-.449.196-.15-.094-.27-.062-.428-.075-.786-.62-1.662-.18-2.355.183-.01.363.007.537.05.241.055.47.16.666.309a1.5 1.5 0 0 1 .556.868c.086.093.182.197.293.229.047.013.09.013.135 0 .15-.192.445-.048.59-.257.224.066.563-.109.652.234.007.186.02.396.029.612.01.291.021.592 0 .875-.034.512-.156.978-.477 1.236-.173.263-.527-.1-.624.249-.045.154.096.263.07.426.23.595.086 1.282.356 1.854.052.168.074.352.226.488.14.01.297.259.41.071.003-.234.017-.482.032-.734.039-.6.111-1.264.22-1.972.192-.031.433-.023.668-.003.165.015.332.027.462.04l.17.011c.26.017.606.034.95.055.376.022.76.04 1.017.041.163 0 .289-.007.321-.024.441.128.052.552.224.8.018.02.036.032.052.051.102-.019.136-.135.164-.21.001-.424-.093-.837-.213-1.258-.214-.817-.506-1.628-.22-2.476.074.006.156.015.225.026.21.042.384.12.522.226.766.573.771 1.98.504 2.863.056.113-.065.3.098.365.313-.123.39-.482.616-.717.186-.53.27-1.113.387-1.678.13-.61.293-1.21.683-1.718.336-.2.647-.491.983-.646.095-.04.196-.075.302-.093.112.001.168.141.24.217-.073.334.085.69-.084 1.005-.114.158-.31.098-.46.047-.144-.183-.292-.081-.494-.088-.436.418-.462 1.22-.064 1.67.11.067.263.141.387.066a1.17 1.17 0 0 0 .168-.138c.27-.31.156-.762.41-1.101a.08.08 0 0 1 .077.082c-.097.149.085.3-.026.457.048.329-.215.569-.215.9-.088.12-.165.236-.247.35-.26.38-.49.745-.587 1.187.106.214-.144.445.008.668.143.328-.01.767.199 1.086.077.221.23.25.375.31.115.053.224.121.272.321-.027.141-.215.23-.273.344-.018.04-.029.084 0 .135v.006l.182.144 1.217-.008.293-.003.892-.006a3.42 3.42 0 0 1 .715-.16c.267-.018.535.015.756.164a.292.292 0 0 1 .075.007c.122.018.28.045.312-.084.064-.345.057-.6.266-.937.091-.246.246-.478.35-.727.097-.208.16-.423.123-.667.194-.807.16-1.667.2-2.497-.103-.781-.209-1.494-.193-1.442-.11-.366-.12-.955-.029-1.179.25-.04.43.189.615.285l.023.01a.137.137 0 0 1-.023.022.785.785 0 0 0-.144.416c-.135.43-.099.837.141 1.224.033.054.07.104.12.156.023.053.2.256.246.294.037.121.061-.037.06.433-.137.516-.138 1.244.043 1.448.07.068.145.08.25.006.059-.007.107-.067.126-.118.02-.333-.033-.653.04-.968.135-.73.088-1.549-.411-2.257a2.268 2.268 0 0 0-.37-.428c-.072-.077-.068-.178-.035-.22.073.015.25.097.406.21.074.055.136.106.188.163.68.87.549 2.115.433 3.212-.016.325-.07.573-.019.892.24 1.086.238 2.252-.402 3.21-.269.203.01.416-.083.672zm-4.967.822l.018.016c.093.025.187.041.274.043.46 0 .834-.317 1.195-.593.11-.107.226-.32.244-.417-.372.12-.488.038-.618.138-.212-.064-.38.12-.603.03-.074.015-.145.016-.217.023a2.008 2.008 0 0 1-.292-.023c-.364-.044-.724-.154-1.094-.16.007.257.193.343.259.439.2.316.581.282.834.504zm-15.973-4.843c-.063-.03-.047-.021.001.004h.004l-.005-.004zm8.273 1.74l-.08-.004c-.093-.055-.211-.115-.252-.224-.262-.008-.283.189-.043.395a.486.486 0 0 0 .375.16c.37-.013.703-.502.454-.917-.053-.113-.255-.195-.453-.2a.857.857 0 0 0-.173.016l.047-.265.126.012.414.014c.063-.087.116-.245.096-.312l-.509-.01-.39-.006-.11.847c.112.143.296.013.427-.012.024-.004.05.001.072.005.176.026.259.209.176.388-.034.077-.103.108-.177.113zm-8.487-1.775v.002l.093.016-.093-.018zm-.196-4.847c.011.117.023.403.037.565.15.618.164 1.41.729 1.796.095.061.205.113.329.155a1.33 1.33 0 0 0 1.015-.194c.691-.457 1.031-1.529 1-2.36-.024-.051-.108-.126-.163-.094.012.696-.392 1.781-.802 2.153l-.034.014c-.187.063-.344.225-.57.136-.137-.074-.26-.217-.26-.372.125-.594.347-1.312.833-1.78.106-.099.225-.19.363-.262.032-.091.006-.207.06-.288-.116-.072-.206.131-.355.083a.2.2 0 0 1-.066-.05c-.082-.083-.045-.174 0-.26.04-.096.093-.194.05-.308-.019-.025-.04-.045-.05-.07-.027-.05-.02-.094 0-.141.06-.13.258-.233.244-.395-.053-.05-.089-.117-.174-.1a.158.158 0 0 1-.068-.03c-.084-.065-.052-.185 0-.256l.01-.01-.01-.013a.173.173 0 0 1 0-.156.393.393 0 0 1 .165-.162c.109-.063.182.06.257.1.116.08.252.016.45-.123-.065-.199-.312-.277-.46-.384-.258-.192 0-.404.035-.624.126-.062.255-.194.407-.144.134-.015.2.114.26.211.004.014.015.026.017.038.021.137.152.287.083.424.013.144-.053.255-.1.37-.02.032-.044.069-.049.11a.162.162 0 0 0 .048.09c.078.084.241.07.343.084.082-.214.123-.452.297-.637-.049-.315.048-.669-.187-.929-.227-.036-.302-.28-.45-.434a.397.397 0 0 0-.201-.116c-.099-.167-.299-.252-.466-.325a.615.615 0 0 0-.444-.07c-.152.036-.3.102-.438.17-.37.047-.66.319-.907.612-.043.054-.087.106-.126.157-.063.27.073.564-.182.754a.952.952 0 0 0-.184.638c-.207.185.183.312.039.52.047.099.195.078.348.114-.007.103 0 .41.023.607-.07.476-.113.954-.696 1.186zm3.23-1.773l-.043.002c-.066.045-.184.1-.158.218a.24.24 0 0 0 .157.115.086.086 0 0 0 .043-.024.632.632 0 0 0 .198-.291c-.048-.088-.124-.033-.197-.02zm-2.503 6.625l-.154 1.312.187.021.168.026.226-1.748-.346-.032c-.014.012-.028.025-.046.036-.138.117-.353.254-.411.365.04.046.046.037.06.05l.012.006-.008-.002.005.004-.009-.004-.122-.02c.114.02.154.025.257.078l.181-.092zm15.668-2.7a.786.786 0 0 0 .092.142c.055.12.124.224.2.309.397.45 1.02.498 1.606.396.153-.024.31-.065.45-.11a1.2 1.2 0 0 0 .384-.333c.452-.571.732-1.62.589-2.45l-.043-.044c-.091.006-.206-.028-.282.026.008.602.024 1.314-.264 1.869a1.497 1.497 0 0 1-.54.606c-.112.043-.209 0-.293-.077-.068-.052-.114-.109-.164-.166-.23-.014-.421.158-.628.273-.586.092-.621-.568-.525-.953.11-.242.445-.118.507-.408.233-.263.395.137.667 0l.146-.116.081-.075c-.048-.413.475-.605.59-.936.212-.037.095-.212.163-.336.008-.012.021-.021.03-.037.028-.046.009-.086-.03-.106-.072-.037-.224-.026-.407.048-.066-.059-.086-.358-.035-.597.28.027.06-.203-.015-.44.326-.192-.076-.345-.181-.398.032-.291.038-.52.067-.819-.012-.107-.31-.141-.202-.147-.022-.053-.036-.11-.055-.17-.12-.353-.124-.752.001-.928a.15.15 0 0 1 .033-.049c.216-.05.393-.108.625-.076a.279.279 0 0 0 .175.028c.137-.014.26-.064.356.086.096.132.205.275.138.457.235.247-.009.672.325.903.023.147-.116.3-.16.426.01.16-.12.333.043.421.043.013.08-.013.116-.027-.012-.062.043-.18.104-.312.06-.098.112-.202.185-.286a.835.835 0 0 0-.009-.586 5.212 5.212 0 0 0-.173-.754.486.486 0 0 0-.047-.129c0-.084.082-.173 0-.245.048-.293-.292-.392-.368-.639-.056-.06-.163-.018-.215-.104-.1-.026-.197-.102-.294-.16-.094-.056-.19-.104-.31-.087-.148-.159-.33-.06-.521-.054a.428.428 0 0 1-.165-.025c-.158.164-.434.026-.618.116-.244.271-.766.204-.801.663a.323.323 0 0 1-.025.245c-.11.21-.388.345-.255.608-.005.096-.02.197-.04.304-.087.423-.22.881 0 1.225.029.053.07.1.118.145.015.112.097.204.173.303.091.118.163.237.076.387.104.198-.048.337-.025.55a.338.338 0 0 1-.051.107.597.597 0 0 1-.294.236.454.454 0 0 1-.125.02c-.182.171-.173.404-.111.615.127.586-.055 1.147.231 1.665zm3-4.941l.052.07c.01.117-.104.182-.201.241a.272.272 0 0 1-.111.022.338.338 0 0 1-.31-.183.47.47 0 0 1 .31-.208.383.383 0 0 1 .26.058z" mask="url(#b)"/>
        <path fill="#1D1D1B" d="M36.767 25.73a.412.412 0 1 1 .825 0 .412.412 0 0 1-.825 0" mask="url(#b)"/>
    </g>
</svg>
