<svg xmlns="http://www.w3.org/2000/svg" xmlns:xlink="http://www.w3.org/1999/xlink" width="67" height="89" viewBox="0 0 67 89">
    <defs>
        <path id="a" d="M.033.123h8.913v8.622H.033z"/>
        <path id="c" d="M0 88.882h66.973V0H0z"/>
    </defs>
    <g fill="none" fill-rule="evenodd">
        <path fill="#010203" d="M42.908 24.663s.179 2.204-1.205 4.472c-1.174 1.924-4.106 2.94-6.365 3.034-2.762.115-3.812-.217-6.038-1.138-1.418-.587-6.635-4.181-6.758-13.117l2.027-1.122.013-.007.857.613s-.085 4.603 4.092 7.423c0 0 1.974 1.189 4.433 1.018 2.346-.162 3.968-.561 5.375 0l.64-.127s-.598-1.973-.747-4.666l-.511.042s1.002 4.009-3.41 4.242c-4.411.234-7.127-2.715-7.256-8.25l.854-.437-.854-.438c.129-5.535 2.845-8.483 7.256-8.25 4.412.233 3.41 4.242 3.41 4.242l.511.043c.15-2.694.746-4.667.746-4.667l-.64-.127c-1.406.562-3.028.162-5.374 0-2.459-.17-4.433 1.018-4.433 1.018-4.177 2.821-4.092 7.423-4.092 7.423l-.857.613-2.04-1.128c.122-8.936 5.34-12.531 6.758-13.118 2.226-.92 4.44-1.252 7.201-1.137 2.26.094 4.416 1.11 5.59 3.033 1.384 2.269.817 4.472.817 4.472h.704C44.135 2.054 45.386.03 45.386.03h-.297a4.813 4.813 0 0 1-.968.36 8.32 8.32 0 0 1-2.756.246 39.07 39.07 0 0 1-2.209-.204C34.043-.234 30.772.07 30.772.07 18.092.9 16.974 14.77 16.974 14.77c-1.24.964-2.717 1.873-2.717 1.873s1.477.909 2.717 1.872c0 0 1.119 13.87 13.798 14.702 0 0 3.27.303 8.384-.364.672-.088 1.471-.151 2.209-.203a8.304 8.304 0 0 1 2.756.246c.347.094.69.212.968.359h.297s-1.251-2.024-1.774-8.592h-.704zM7.919 52.697c-.76 1.081-2.029 1.654-3.573 1.654-1.192 0-2.33-.417-3.09-1.16C.458 52.412 0 51.227 0 49.936c0-1.302.432-2.383 1.178-3.217.837-.924 1.963-1.354 3.181-1.354.51 0 1.034.052 1.557.195.275.078.68.235.904.235a.566.566 0 0 0 .549-.43h.263l.117 2.957h-.302c-.156-.717-.353-1.095-.68-1.446-.576-.612-1.257-.99-2.107-.99-1.977 0-3.142 1.589-3.142 3.842 0 1.433.328 2.449.943 3.113.576.613 1.427.938 2.33.938 1.177 0 1.897-.39 2.878-1.315l.25.234zM13.898 54.351c-2.54 0-4.28-1.823-4.28-4.533 0-2.644 1.728-4.454 4.28-4.454 2.565 0 4.28 1.914 4.28 4.493 0 2.684-1.767 4.494-4.28 4.494m1.597-7.906c-.471-.39-.995-.612-1.61-.612-.707 0-1.361.286-1.872.872-.563.639-.903 1.902-.903 3.14 0 1.55.38 2.722 1.179 3.451.444.404 1.02.587 1.622.587.654 0 1.23-.196 1.688-.626.72-.69 1.087-1.914 1.087-3.477 0-1.486-.445-2.71-1.191-3.335M28.24 45.794c-1.099.104-1.23.416-1.23 1.654v3.322c0 1.263-.117 1.966-.706 2.63-.55.625-1.44.951-2.645.951-.955 0-1.688-.195-2.225-.6-.72-.533-1.06-1.445-1.06-2.825v-4.038c0-.873-.144-1.016-1.178-1.094v-.247H22.9v.247c-1.047.09-1.19.247-1.19 1.224v4.064c0 1.016.052 1.602.575 2.11.38.365.93.586 1.676.586.837 0 1.57-.287 1.989-.768.432-.521.484-1.043.484-2.097v-3.426c0-1.342-.17-1.628-1.23-1.693v-.247h3.037v.247zM38.892 45.794c-.498.052-.694.09-.864.234-.249.222-.38.508-.38 1.537v6.747h-.235l-5.772-7.15v5.053c0 1.342.21 1.563 1.217 1.707v.247h-3.063v-.247c1.073-.118 1.27-.313 1.27-1.707v-5.731c-.432-.534-.628-.69-1.27-.69v-.247h2.226l5.052 6.29v-4.429c0-.664-.053-1.054-.25-1.276-.222-.247-.457-.273-1.033-.338v-.247h3.102v.247zM47.188 47.76c-.288-1.432-.628-1.667-2.016-1.667H44.4v6.63c0 .99.184 1.146 1.257 1.198v.247h-3.821v-.247c1.086-.065 1.23-.208 1.23-1.355v-6.473h-.785c-1.388 0-1.741.235-2.003 1.667h-.314l.091-2.214h7.356l.092 2.214h-.314zM55.955 54.169l-3.115-4.012-.733.026v2.527c0 .99.156 1.147 1.164 1.212v.247H49.66v-.247c.982-.08 1.113-.222 1.113-1.368v-5.562c0-.964-.106-1.12-1.113-1.198v-.247h3.56c1.244 0 2.173.312 2.736.768.431.352.641.99.641 1.562 0 1.134-.733 1.89-2.37 2.137l2.62 3.295c.378.482.653.56 1.229.613v.247h-2.12zM52.107 49.7c1.256-.026 1.715-.117 2.316-.443.472-.26.746-.833.746-1.484 0-1.173-.772-1.746-2.395-1.746-.445 0-.667.09-.667.547V49.7z"/>
        <g transform="translate(58.027 45.424)">
            <mask id="b" fill="#fff">
                <use xlink:href="#a"/>
            </mask>
            <path fill="#010203" d="M8.947.37C8.174.435 7.873.708 7.14 1.828l-1.937 2.97v2.5c0 1.017.248 1.148 1.348 1.2v.247H2.546v-.247c1.165-.079 1.322-.196 1.322-1.355V4.916L2.153 2.415C.95.656.662.395.033.37V.123h3.652V.37L3.37.383c-.42.013-.615.13-.615.339 0 .169.091.403.235.612l1.911 2.878L6.8 1.32c.13-.195.183-.403.183-.547-.013-.286-.21-.39-.89-.403V.123h2.854V.37z" mask="url(#b)"/>
        </g>
        <path fill="#010203" d="M23.66 68.142c-.759 1.08-2.028 1.654-3.573 1.654-1.19 0-2.33-.417-3.089-1.16-.798-.781-1.257-1.966-1.257-3.255 0-1.303.433-2.384 1.178-3.218.838-.925 1.964-1.355 3.181-1.355.51 0 1.034.053 1.558.196.274.078.68.234.903.234a.565.565 0 0 0 .55-.43h.262l.117 2.957h-.301c-.156-.716-.353-1.094-.68-1.446-.577-.611-1.257-.99-2.107-.99-1.977 0-3.142 1.59-3.142 3.843 0 1.433.327 2.449.942 3.113.577.612 1.427.938 2.33.938 1.178 0 1.898-.391 2.88-1.316l.248.235zM32.218 69.614h-7.042v-.248c.969-.052 1.139-.26 1.139-1.25v-5.614c0-1.003-.118-1.185-1.139-1.264v-.247h3.705v.247c-1.074.065-1.23.235-1.23 1.238v6.043c0 .495.222.586 1.177.586h.916c1.06 0 1.767-.234 2.213-.794.17-.221.34-.508.549-.964h.34l-.628 2.267zM42.4 61.238c-1.1.105-1.231.417-1.231 1.655v3.321c0 1.263-.118 1.966-.707 2.631-.55.625-1.44.95-2.644.95-.956 0-1.688-.194-2.225-.598-.72-.535-1.06-1.446-1.06-2.827v-4.038c0-.873-.144-1.016-1.178-1.094v-.247h3.704v.247c-1.047.091-1.191.248-1.191 1.224v4.064c0 1.017.052 1.603.575 2.11.38.366.93.587 1.675.587.839 0 1.571-.286 1.99-.769.433-.52.484-1.042.484-2.097v-3.425c0-1.342-.17-1.629-1.23-1.694v-.247H42.4v.247zM48.797 65.08c.864.144 1.216.379 1.597.717.418.378.64.925.64 1.498 0 1.446-1.23 2.319-3.128 2.319h-4.41v-.248c1.034-.026 1.257-.234 1.257-1.225V62.45c0-1.029-.197-1.147-1.257-1.211v-.248h3.665c2.264 0 3.429.795 3.429 2.175 0 .534-.21 1.068-.537 1.354-.314.274-.576.378-1.256.548v.013zm-1.506-.233c1.322 0 1.963-.535 1.963-1.616 0-1.094-.758-1.758-2.316-1.758h-.537c-.222 0-.314.117-.314.416v2.958h1.204zm-1.204 3.698c0 .443.21.587.812.587 1.1 0 1.557-.053 2.133-.56.328-.287.497-.73.497-1.29 0-.625-.183-1.107-.615-1.394-.785-.52-1.283-.468-2.827-.52v3.177zM7.46 84.567v4.215h2.843v-.272H8.17v-3.943z"/>
        <mask id="d" fill="#fff">
            <use xlink:href="#c"/>
        </mask>
        <path fill="#010203" d="M12.515 88.782h.713v-4.215h-.713zM19.938 84.567l-1.619 3.235h-.033l-1.648-3.235h-.727v4.215h.313v-3.429h.049l1.758 3.43h.145l1.737-3.454h.025v3.453h.714v-4.215zM24.86 84.47l-2.041 4.312h.356l.668-1.407h1.817l.647 1.407h.724l-1.995-4.313h-.177zm-.1.964l.768 1.669H23.97l.79-1.669zM35.483 84.567v1.92h-2.13v-1.92h-.711v4.215h.711v-2.021h2.13v2.021h.71v-4.215zM41.031 88.882a2.429 2.429 0 0 1-1.19-.306 2.313 2.313 0 0 1-.833-.801 2.22 2.22 0 0 1-.313-1.126 2.131 2.131 0 0 1 .676-1.542 2.317 2.317 0 0 1 1.031-.56c.2-.052.411-.078.629-.078.22 0 .43.026.63.078a2.353 2.353 0 0 1 1.031.56 2.105 2.105 0 0 1 .593 2.133 2.212 2.212 0 0 1-.593.987 2.333 2.333 0 0 1-1.031.574c-.2.054-.41.081-.63.081m0-.212c.241 0 .455-.05.642-.151.186-.101.343-.24.47-.421a1.98 1.98 0 0 0 .29-.64c.064-.247.098-.517.098-.81a3.04 3.04 0 0 0-.099-.794 1.91 1.91 0 0 0-.289-.624 1.34 1.34 0 0 0-.47-.406 1.367 1.367 0 0 0-.642-.146 1.312 1.312 0 0 0-1.122.552c-.126.175-.22.383-.284.624a3.109 3.109 0 0 0-.096.795c0 .292.032.562.096.81.064.246.158.46.284.639.126.18.282.32.47.42.188.102.405.152.652.152M45.263 84.567v.272H46.8v3.943h.712V84.84h1.533v-.272zM51.317 84.567v4.215h2.943v-.272H52.03v-1.891h1.492v-.273H52.03v-1.507h2.231v-.272zM56.67 84.567v4.215h2.843v-.272h-2.13v-3.943z" mask="url(#d)"/>
    </g>
</svg>
