<svg xmlns="http://www.w3.org/2000/svg" width="46" height="57" viewBox="0 0 46 57">
    <g fill="none" fill-rule="evenodd">
        <path fill="#1D1D1B" d="M16.663 36.368l5.356-13.686-3.074 1.196 5.036-7.771 12.778-4.3-3.428 4.188 4.288-1.52-20.956 21.893"/>
        <path fill="#E63137" d="M24.395 16.683l9.519-3.2-3.461 4.223 3.747-1.31-15.253 15.94 4.343-11.094-2.472.956z"/>
        <path fill="#1D1D1B" d="M31.609 21.985l-7.802 8.112h7.253v6.233c-1.663.713-2.752.97-4.48.97-2.804 0-5.34-.898-7.32-2.464l-4.645 4.699 2.58-6.744c-1.559-2.174-2.584-5.258-2.584-8.404 0-6.88 4.608-11.943 10.945-11.943 1.578 0 3.022.227 4.43.766l8.988-2.964-3.166 4.021 4.818-1.752-3.135 3.258-.392.412h4.284V1.615H34.61v2.153C31.901 2.713 28.924 2.19 25.62 2.19c-13.507 0-23.237 9.54-23.237 22.91 0 12.982 9.347 22.004 22.79 22.004 6.336 0 12.034-1.753 16.962-5.193l-.001-19.925H31.609z"/>
        <path fill="#F8B121" d="M19.94 29.806l12.086-12.648-3.398 1.17 3.458-4.23-7.692 2.584-2.61 4.03 2.015-.77z"/>
        <path fill="#1D1D1B" d="M42.39.844h-.278V.748h.66v.096H42.5V1.6h-.11zM43.22 1.6L42.99.907V1.6h-.11V.747h.152l.243.724.241-.724h.153V1.6h-.11V.907l-.229.693zM4.805 52.756v-.304c-.25-.304-.703-.626-1.526-.626-1.147 0-1.937.8-1.937 2.087 0 1.336.875 2.155 2.014 2.155.617 0 1.098-.149 1.39-.348v-1.166H3.176v-.851H5.74v2.554c-.66.47-1.483.723-2.46.723-1.962 0-3.025-1.373-3.025-3.015 0-1.756 1.088-3.051 2.811-3.051.841 0 1.414.252 1.74.504v-.373h.84v1.711h-.84zM9.793 54.137l-.694-2.224h-.026l-.678 2.224h1.398zm-3.36 2.695v-.852h.497l1.32-4.067h-.634v-.851h2.177l1.594 4.918h.488v.852H9.707v-.852h.65l-.307-.99H8.146l-.29.99h.659v.852H6.433zM13.64 51.913h-.985v.992h-.84v-1.843h4.644v1.843h-.839v-.992h-.986v4.066h.737v.852h-2.468v-.852h.737zM19.716 56.067c1.037 0 1.8-.904 1.8-2.12 0-1.181-.704-2.12-1.8-2.12-1.02 0-1.792.903-1.792 2.12 0 1.216.755 2.12 1.792 2.12m0-5.152c1.791 0 2.888 1.416 2.888 3.032 0 1.695-1.19 3.033-2.88 3.033-1.988 0-2.888-1.624-2.888-3.033 0-1.652 1.166-3.032 2.88-3.032M25.458 51.913h-.823V53.6h.874c.634 0 .994-.278.994-.869 0-.529-.394-.817-1.045-.817zm-2.46 4.066h.643v-4.066h-.643v-.85h2.486c1.388 0 2.107.554 2.107 1.528 0 .827-.608 1.27-1.2 1.346v.028c.755.12 1.047.598 1.047 1.26v.754h.642v.852h-1.637v-1.39c0-.651-.3-.99-.994-.99h-.814v1.528h.72v.852h-2.357v-.852zM32.21 54.137l-.694-2.224h-.025l-.677 2.224h1.396zm-3.358 2.695v-.852h.496l1.32-4.067h-.634v-.851h2.176l1.594 4.918h.488v.852h-2.166v-.852h.65l-.309-.99h-1.902l-.29.99h.659v.852h-2.082zM36.693 51.913v4.066h.72c1.38 0 2.005-.92 2.005-2.032 0-1.181-.635-2.034-2.014-2.034h-.711zm.754-.85c1.988 0 3.059 1.232 3.059 2.874 0 1.574-1.07 2.894-3.043 2.894h-2.407v-.852h.643v-4.066h-.643v-.85h2.391zM40.9 55.98h.644v-4.066H40.9v-.851h4.378v1.606h-.84v-.755h-1.901v1.52h1.704v.852h-1.704v1.693h1.901v-.93h.84v1.783H40.9z"/>
    </g>
</svg>
