<svg xmlns="http://www.w3.org/2000/svg" xmlns:xlink="http://www.w3.org/1999/xlink" width="113" height="47" viewBox="0 0 113 47">
    <defs>
        <path id="a" d="M0 .001h41.566V37.77H0z"/>
        <path id="c" d="M0 .001h41.566V37.77H0z"/>
        <path id="e" d="M0 .001h41.566V37.77H0z"/>
    </defs>
    <g fill="none" fill-rule="evenodd">
        <g transform="translate(0 .165)">
            <mask id="b" fill="#fff">
                <use xlink:href="#a"/>
            </mask>
            <path fill="#030100" d="M30.45 18.903c-1.125 0-4.352-1.43-4.482-1.515-1.94-.83-4.217-1.56-6.776-1.47-6.674.259-7.44 5.478-7.575 6.093-.435 1.863.646 5.523.1 7.492-.392 1.409-2.265 2.902-4.425 2.027-2.16-.876-3.384-3.706.903-7.647 6.08-5.793 4.85-10.937-2.262-14.095-1.724-.766-2.582-2.4-1.618-3.52.781-.907 2.214-.734 3.161.068 1.503 1.273 3.03 7.716 7.978 8.81 1.544.345 3.523.191 5.68-.844C24.421 12.51 27.72 8.52 30.45 8.52c2.811 0 5.089 2.325 5.089 5.191 0 2.869-2.278 5.193-5.089 5.193m2.1-13.917c-6.719.626-9.598 11.009-16.44 8.767-4.19-1.375-5.005-5.146-5.49-8.33C10.2 2.663 8.348.371 5.445.048-1.238-.697-1.628 7.733 3.5 9.798c4.184 1.681 6.914 3.53 6.82 7.418-.168 6.958-9.334 6.976-9.334 14.282 0 3.22 2.774 6.3 6.045 6.27 7.995-.072 6.672-8.531 5.903-11.894-.937-4.098.769-8.64 7.126-8.64 5.38 0 8.164 4.428 13.005 4.449 4.073.016 8.5-2.793 8.5-8.495 0-3.875-2.296-8.826-9.016-8.202" mask="url(#b)"/>
        </g>
        <g transform="translate(0 .165)">
            <mask id="d" fill="#fff">
                <use xlink:href="#c"/>
            </mask>
            <path fill="#030100" d="M30.45 18.903c-1.125 0-4.352-1.43-4.482-1.515-1.94-.83-4.217-1.56-6.776-1.47-6.674.259-7.44 5.478-7.575 6.093-.435 1.863.646 5.523.1 7.492-.392 1.409-2.265 2.902-4.425 2.027-2.16-.876-3.384-3.706.903-7.647 6.08-5.793 4.85-10.937-2.262-14.095-1.724-.766-2.582-2.4-1.618-3.52.781-.907 2.214-.734 3.161.068 1.503 1.273 3.03 7.716 7.978 8.81 1.544.345 3.523.191 5.68-.844C24.421 12.51 27.72 8.52 30.45 8.52c2.811 0 5.089 2.325 5.089 5.191 0 2.869-2.278 5.193-5.089 5.193m2.1-13.917c-6.719.626-9.598 11.009-16.44 8.767-4.19-1.375-5.005-5.146-5.49-8.33C10.2 2.663 8.348.371 5.445.048-1.238-.697-1.628 7.733 3.5 9.798c4.184 1.681 6.914 3.53 6.82 7.418-.168 6.958-9.334 6.976-9.334 14.282 0 3.22 2.774 6.3 6.045 6.27 7.995-.072 6.672-8.531 5.903-11.894-.937-4.098.769-8.64 7.126-8.64 5.38 0 8.164 4.428 13.005 4.449 4.073.016 8.5-2.793 8.5-8.495 0-3.875-2.296-8.826-9.016-8.202" mask="url(#d)"/>
        </g>
        <g transform="translate(0 .165)">
            <mask id="f" fill="#fff">
                <use xlink:href="#e"/>
            </mask>
            <path fill="#55565A" d="M30.45 18.903c-1.125 0-4.352-1.43-4.482-1.515-1.94-.83-4.217-1.56-6.776-1.47-6.674.259-7.44 5.478-7.575 6.093-.435 1.863.646 5.523.1 7.492-.392 1.409-2.265 2.902-4.425 2.027-2.16-.876-3.384-3.706.903-7.647 6.08-5.793 4.85-10.937-2.262-14.095-1.724-.766-2.582-2.4-1.618-3.52.781-.907 2.214-.734 3.161.068 1.503 1.273 3.03 7.716 7.978 8.81 1.544.345 3.523.191 5.68-.844C24.421 12.51 27.72 8.52 30.45 8.52c2.811 0 5.089 2.325 5.089 5.191 0 2.869-2.278 5.193-5.089 5.193m2.1-13.917c-6.719.626-9.598 11.009-16.44 8.767-4.19-1.375-5.005-5.146-5.49-8.33C10.2 2.663 8.348.371 5.445.048-1.238-.697-1.628 7.733 3.5 9.798c4.184 1.681 6.914 3.53 6.82 7.418-.168 6.958-9.334 6.976-9.334 14.282 0 3.22 2.774 6.3 6.045 6.27 7.995-.072 6.672-8.531 5.903-11.894-.937-4.098.769-8.64 7.126-8.64 5.38 0 8.164 4.428 13.005 4.449 4.073.016 8.5-2.793 8.5-8.495 0-3.875-2.296-8.826-9.016-8.202" mask="url(#f)"/>
        </g>
        <path fill="#55565A" d="M72.83 32.744c2.393 0 3.917.484 4.583 2.014l1.882-.946c-.878-1.64-2.36-3.192-6.46-3.192-4.078 0-6.865 1.718-6.865 5.359l-.017 5.604c0 3.797 3.024 5.388 6.834 5.388 3.121 0 5.3-.931 6.417-3.132l-1.803-1.009c-.868 1.556-2.206 2.017-4.608 2.017-2.73 0-4.763-.934-4.763-3.252l.016-5.628c.008-2.5 2.062-3.223 4.783-3.223zm19.509 8.849c0 2.975-2.693 3.281-4.847 3.281-2.407 0-4.85-.516-4.844-3.005.004-1.595 1.344-2.204 2.983-2.204h6.708v1.928zm-4.75-10.973c-4.037 0-5.619 1.437-6.562 3.079l1.84.943c.688-1.149 2.068-1.898 4.716-1.898 2.902 0 4.756.9 4.756 3.127v1.67h-6.704c-2.788 0-5.064 1.43-5.064 4.316 0 3.361 2.405 5.142 6.916 5.142 4.092 0 6.906-1.439 6.918-5.415l.017-5.713c.011-3.903-3.384-5.251-6.834-5.251zm25.259 14.043c-2.628 0-4.913-.593-4.905-3.107v-8.592h4.15v-2.126h-4.15v-2.577h-2.153v13.274c-.014 3.803 2.893 5.253 7.053 5.253l.005-2.125zm-8.709-13.906c-3.995 0-7.095 1.55-7.104 5.222V46.75h2.134V35.96c.004-2.771 3.17-3.078 4.97-3.078v-2.125zM63.236 28.29c0 .637-.518 1.151-1.156 1.151a1.153 1.153 0 0 1-1.156-1.15c0-.636.517-1.153 1.156-1.153.638 0 1.156.517 1.156 1.152zm-2.224 18.46h2.135V30.84h-2.135V46.75zM28.45 27.108h-.84c-4.565.039-7.624 2.422-7.624 5.954v7.955c0 3.532 3.035 5.915 7.565 5.955h.844c4.61 0 7.708-2.392 7.708-5.955v-4.414h-7.314v1.939h5.119v2.083c0 2.725-2.06 4.352-5.513 4.352h-.844c-3.333-.04-5.395-1.699-5.395-4.352v-7.17c0-2.68 2.013-4.297 5.395-4.35h.9c3.365 0 5.538 1.387 5.538 3.538v.353h2.114v-.746c0-3.027-3.147-5.142-7.653-5.142zm27.189 19.644h2.134V25.6h-2.134v21.15zm-5.018-9.21h-9.706l.003-1.533c0-2.135 1.623-3.264 4.836-3.264 3.068 0 4.88 1.161 4.87 3.262l-.003 1.535zm-4.86-6.921c-4.255 0-6.919 1.992-6.919 5.386l-.016 5.549c-.016 3.728 3.02 5.416 7.047 5.416 3.883 0 6.005-1.454 6.585-3.23l-1.815-.962c-.677 1.198-1.85 2.068-4.764 2.068-2.522 0-4.982-.53-4.978-3.253l.005-1.929H52.69l.01-3.657c0-3.51-2.828-5.388-6.94-5.388z"/>
        <path fill="#030100" d="M111.175 27.046h.315c.157 0 .328.035.328.248 0 .254-.188.264-.397.264h-.246v-.512zm-.233 1.407h.233v-.695h.249l.41.695h.255l-.434-.71c.227-.028.4-.15.4-.437 0-.312-.169-.462-.53-.462h-.583v1.609z"/>
        <path fill="#030100" d="M111.444 28.885a1.235 1.235 0 0 1-1.252-1.243c0-.693.568-1.226 1.252-1.226.661 0 1.233.533 1.233 1.226 0 .714-.572 1.243-1.233 1.243m0-2.64c-.78 0-1.425.605-1.425 1.397 0 .81.646 1.415 1.425 1.415.753 0 1.4-.605 1.4-1.415 0-.792-.647-1.397-1.4-1.397"/>
    </g>
</svg>
