<svg xmlns="http://www.w3.org/2000/svg" width="38" height="38" viewBox="0 0 38 38">
    <g fill="none" fill-rule="evenodd">
        <path fill="#00A9FF" d="M37.655 18.992C37.655 8.596 29.226.164 18.83.164 8.43.164 0 8.596 0 18.992c0 10.397 8.429 18.827 18.83 18.827 10.396 0 18.825-8.43 18.825-18.827"/>
        <path fill="#FFF" d="M31.187 12.701a9.504 9.504 0 0 1-2.444.62 4.58 4.58 0 0 0 1.983-2.338c.024-.061-.045-.118-.103-.086a9.419 9.419 0 0 1-2.79 1.012 4.694 4.694 0 0 0-3.398-1.437c-2.567 0-4.653 2.038-4.653 4.55 0 .357.042.703.12 1.036a13.324 13.324 0 0 1-9.57-4.725.026.026 0 0 0-.042.003 4.488 4.488 0 0 0-.611 2.256c0 1.542.787 2.908 1.99 3.73.023.017.01.054-.018.053a4.73 4.73 0 0 1-1.971-.545c-.017-.009-.037.002-.035.02.011.2.077 1.092.314 1.666a4.689 4.689 0 0 0 3.42 2.813 4.915 4.915 0 0 1-1.23.161c-.283 0-.561-.027-.835-.077a.026.026 0 0 0-.029.034c.6 1.761 2.27 3.05 4.256 3.116.026 0 .038.033.016.05a9.46 9.46 0 0 1-5.719 1.9c-.376 0-.742-.02-1.108-.061a13.399 13.399 0 0 0 7.134 2.043c3.62 0 6.548-1.24 8.72-3.126 2.191-1.903 3.614-4.464 4.206-7.073.209-.917.319-1.843.319-2.746 0-.196-.005-.393-.016-.588a9.324 9.324 0 0 0 2.18-2.155c.042-.058-.02-.133-.086-.106"/>
    </g>
</svg>
