<svg xmlns="http://www.w3.org/2000/svg" xmlns:xlink="http://www.w3.org/1999/xlink" width="104" height="35" viewBox="0 0 104 35">
    <defs>
        <path id="a" d="M0 .074h103.236v33.894H0z"/>
    </defs>
    <g fill="none" fill-rule="evenodd">
        <g transform="translate(0 .037)">
            <mask id="b" fill="#fff">
                <use xlink:href="#a"/>
            </mask>
            <path fill="#00568E" stroke="#FFF" d="M100.546 29.156c0 1.17-.952 2.122-2.122 2.122H72.032V2.764h26.392c1.17 0 2.122.952 2.122 2.122v24.27zm-31.204 2.122H4.812a2.125 2.125 0 0 1-2.122-2.122V4.886c0-1.17.952-2.122 2.122-2.122h64.53v28.514zM98.424.074H4.812A4.818 4.818 0 0 0 0 4.886v24.27a4.818 4.818 0 0 0 4.812 4.812h93.612a4.818 4.818 0 0 0 4.812-4.812V4.886A4.818 4.818 0 0 0 98.424.074z" mask="url(#b)"/>
        </g>
        <path fill="#D54537" stroke="#FFF" d="M84.555 20.914a5.595 5.595 0 0 1-5.589-5.59 5.595 5.595 0 0 1 5.59-5.588 5.596 5.596 0 0 1 5.589 5.589 5.596 5.596 0 0 1-5.59 5.589zm6.901-1.032a8.201 8.201 0 0 0 1.379-4.557v-.002a8.292 8.292 0 0 0-6.261-8.073 8.294 8.294 0 0 0-9.355 4.107 8.296 8.296 0 0 0 1.708 10.073 8.293 8.293 0 0 0 10.186.795l.265-.176 6.087 6.087 1.901-1.902-6.086-6.087.176-.265z"/>
        <path fill="#00568E" stroke="#FFF" d="M13.464 27.07h.016c.635 0 1.175-.432 1.313-1.052l2.154-9.696 2.154 9.696c.137.62.677 1.053 1.313 1.053h.02a1.348 1.348 0 0 0 1.298-1.076L25.123 9.04l-2.636-.538-2.14 10.711-2.087-9.38a1.337 1.337 0 0 0-1.313-1.053c-.635 0-1.175.433-1.313 1.052l-2.087 9.381-2.14-10.71-2.636.537 3.391 16.956a1.35 1.35 0 0 0 1.302 1.075M32.534 27.057h.015c.625 0 1.178-.443 1.313-1.053l2.154-9.68 2.154 9.694c.138.62.678 1.053 1.313 1.053h.02a1.349 1.349 0 0 0 1.298-1.076L44.192 9.04l-2.636-.538-2.14 10.711-2.087-9.38a1.337 1.337 0 0 0-1.313-1.053c-.635 0-1.175.433-1.313 1.052l-2.087 9.381-2.14-10.712-2.636.527 3.391 16.954a1.35 1.35 0 0 0 1.303 1.075M51.603 27.057h.015c.625 0 1.178-.443 1.313-1.053l2.154-9.68 2.154 9.694c.138.62.677 1.053 1.313 1.053h.02a1.349 1.349 0 0 0 1.298-1.076L63.261 9.04l-2.636-.538-2.14 10.703-2.087-9.38a1.354 1.354 0 0 0-1.313-1.052c-.625 0-1.177.442-1.313 1.052l-2.087 9.38L49.545 8.5l-2.636.527L50.3 25.982a1.352 1.352 0 0 0 1.303 1.075"/>
    </g>
</svg>
